<svg width="669" height="496" viewBox="0 0 669 496" fill="none" xmlns="http://www.w3.org/2000/svg">
<path d="M45.5242 332.445V332.945H46.0242H65.9584V340.914H36.0884V303.837H65.6858V311.813H46.0242H45.5242V312.313V318.084V318.584H46.0242H63.7841V325.903H46.0242H45.5242V326.403V332.445ZM81.7728 332.445V332.945H82.2728H102.208V340.914H72.3395V303.837H101.937V311.813H82.2728H81.7728V312.313V318.084V318.584H82.2728H100.035V325.903H82.2728H81.7728V326.403V332.445ZM118.631 330.036H118.131V330.536V340.914H108.587V303.838H124.393C129.121 303.838 132.95 305.055 135.587 307.251C138.214 309.438 139.709 312.635 139.709 316.717V316.826C139.709 321.174 138.045 324.453 135.265 326.657C132.47 328.872 128.501 330.036 123.848 330.036H118.631ZM118.132 322.269V322.769H118.632H123.633C125.59 322.769 127.223 322.256 128.375 321.299C129.537 320.333 130.167 318.951 130.167 317.319V317.211C130.167 315.452 129.545 314.047 128.362 313.094C127.196 312.155 125.547 311.705 123.576 311.705H118.632H118.132V312.205V322.269ZM178.466 318.186L178.47 318.186C182.833 319.135 186.289 320.302 188.65 322.071C190.975 323.812 192.261 326.152 192.261 329.559V329.667C192.261 333.41 190.789 336.363 188.225 338.392C185.648 340.432 181.923 341.569 177.382 341.569C170.919 341.569 164.786 339.588 160.253 335.709L165.499 329.438C169.228 332.294 173.386 333.812 177.764 333.812C179.222 333.812 180.413 333.562 181.257 333.046C182.129 332.513 182.609 331.703 182.609 330.699V330.589C182.609 330.126 182.516 329.68 182.259 329.263C182.006 328.851 181.618 328.506 181.093 328.196C180.062 327.589 178.39 327.057 175.81 326.459L175.809 326.458C171.756 325.532 168.257 324.515 165.77 322.795C163.328 321.106 161.849 318.729 161.849 314.98V314.874C161.849 311.478 163.188 308.571 165.613 306.506C168.044 304.436 171.603 303.182 176.079 303.182C182.253 303.182 187.084 304.795 191.047 307.846L186.334 314.506C182.9 312.191 179.163 310.946 175.805 310.946C174.466 310.946 173.403 311.229 172.66 311.748C171.901 312.278 171.501 313.038 171.501 313.89V314C171.501 314.5 171.596 314.971 171.861 315.405C172.123 315.834 172.526 316.182 173.065 316.488C174.124 317.086 175.838 317.588 178.466 318.186ZM238.913 323.462V303.838H248.349V340.914H239.855L223.753 320.222L222.858 319.073V320.529V340.914H213.425V303.838H222.518L238.018 323.769L238.913 324.919V323.462ZM265.524 332.445V332.945H266.024H285.955V340.914H256.088V303.837H285.685V311.813H266.024H265.524V312.313V318.084V318.584H266.024H283.784V325.903H266.024H265.524V326.403V332.445ZM289.978 303.837H300.053L306.578 325.515L307.034 327.03L307.531 325.528L314.754 303.728H323.107L330.333 325.528L330.831 327.03L331.286 325.515L337.808 303.837H347.668L335.282 341.185H326.811L319.267 319.601L318.793 318.246L318.322 319.602L310.828 341.185H302.362L289.978 303.837ZM154.981 303.838V340.914H145.379V303.838H154.981Z" fill="#14477A" stroke="white"/>
<path d="M367.486 318.185L367.486 318.185L367.491 318.187C371.855 319.135 375.311 320.302 377.672 322.071C379.997 323.812 381.282 326.152 381.282 329.559V329.667C381.282 333.41 379.811 336.363 377.247 338.392C374.67 340.432 370.945 341.569 366.402 341.569C359.939 341.569 353.806 339.588 349.276 335.709L354.52 329.438C358.249 332.294 362.406 333.812 366.784 333.812C368.242 333.812 369.434 333.562 370.278 333.046C371.151 332.513 371.632 331.703 371.632 330.699V330.589C371.632 330.125 371.538 329.68 371.281 329.263C371.028 328.851 370.639 328.506 370.115 328.196C369.083 327.589 367.41 327.057 364.833 326.459L364.831 326.458C360.778 325.532 357.279 324.515 354.792 322.795C352.349 321.106 350.869 318.729 350.869 314.98V314.874C350.869 311.478 352.209 308.571 354.633 306.506C357.065 304.436 360.623 303.182 365.099 303.182C371.274 303.182 376.106 304.795 380.069 307.846L375.358 314.506C371.924 312.19 368.187 310.946 364.828 310.946C363.488 310.946 362.425 311.229 361.681 311.748C360.922 312.277 360.522 313.038 360.522 313.89V314C360.522 314.501 360.617 314.971 360.882 315.405C361.144 315.834 361.547 316.182 362.087 316.488C363.146 317.086 364.86 317.588 367.486 318.185Z" fill="#14477A" stroke="white"/>
<path d="M46.3493 394.224H46.0106L45.885 394.538L43.2937 401.023H33.2976L49.0725 363.672H58.5726L74.3456 401.023H64.1331L61.4856 394.535L61.3587 394.224H61.0227H46.3493ZM48.9805 386.328L48.709 387.012H49.4452H57.9793H58.7122L58.4449 386.33L54.2048 375.505L53.7422 374.324L53.2745 375.503L48.9805 386.328ZM104.784 383.572V363.948H114.219V401.023H105.723L89.6237 380.328L88.7291 379.178V380.635V401.023H79.2939V363.948H88.3855L103.889 383.879L104.784 385.029V383.572ZM131.501 392.169V392.669H132.001H136.296C139.536 392.669 142.288 391.773 144.237 390.033C146.193 388.286 147.285 385.735 147.285 382.543V382.435C147.285 379.266 146.193 376.715 144.238 374.961C142.29 373.213 139.538 372.303 136.296 372.303H132.001H131.501V372.803V392.169ZM204.075 383.572V363.948H213.511V401.023H205.017L188.918 380.328L188.024 379.178V380.635V401.023H178.589V363.948H187.68L203.181 383.879L204.075 385.029V383.572ZM230.688 392.548V393.048H231.188H251.123V401.023H221.252V363.948H250.849V371.922H231.188H230.688V372.422V378.187V378.687H231.188H248.95V386.012H231.188H230.688V386.512V392.548ZM276.839 372.194H276.339V372.694V401.023H266.795V372.694V372.194H266.295H255.382V363.948H287.752V372.194H276.839ZM291.009 363.948H301.088L307.611 385.625L308.066 387.14L308.564 385.639L315.788 363.839H324.142L331.365 385.639L331.862 387.14L332.318 385.625L338.84 363.948H348.699L336.314 401.296H327.846L320.299 379.71L319.825 378.355L319.355 379.711L311.865 401.296H303.397L291.009 363.948ZM135.915 401.023H121.957V363.948H136.132C142.83 363.948 148.067 365.878 151.624 369.109C155.177 372.336 157.099 376.901 157.099 382.27V382.379C157.099 387.746 155.151 392.394 151.554 395.703C147.955 399.014 142.664 401.023 135.915 401.023Z" fill="#14477A" stroke="white"/>
<path d="M422.076 388.529L430.62 401.022H419.661L412.145 389.717L411.997 389.494H411.729H411.619H407.11H406.61V389.994V401.022H397.064V363.948H414.554C420.287 363.948 424.161 365.45 426.591 367.93L426.591 367.931L426.599 367.938C428.713 370.002 429.816 372.803 429.816 376.448V376.556C429.816 382.157 426.858 385.851 422.294 387.786L421.731 388.024L422.076 388.529ZM406.61 381.73V382.23H407.11H414.066C415.935 382.23 417.473 381.775 418.554 380.897C419.648 380.009 420.221 378.729 420.221 377.205V377.097C420.221 375.468 419.62 374.185 418.496 373.323C417.391 372.477 415.841 372.084 414.012 372.084H407.11H406.61V372.584V381.73ZM470.679 363.948L457.007 379.49L456.75 379.783L456.971 380.104L471.325 401.022H459.875L450.458 387.1L450.099 386.569L449.672 387.046L445.814 391.341L445.686 391.483V391.675V401.022H436.142V363.948H445.686V378.898V380.261L446.567 379.221L459.517 363.948H470.679ZM510.208 372.194H509.708V372.694V401.022H500.164V372.694V372.194H499.664H488.751V363.948H521.122V372.194H510.208ZM536.177 392.548V393.048H536.677H556.611V401.022H526.741L526.74 363.948H556.337V371.922H536.677H536.177V372.422V378.187V378.687H536.677H554.438V386.012H536.677H536.177V386.512V392.548ZM573.251 394.224H572.912L572.787 394.538L570.196 401.022H560.203L575.976 363.672H585.474L601.247 401.022H591.034L588.388 394.535L588.261 394.224H587.925H573.251ZM575.887 386.328L575.615 387.012H576.351H584.883H585.616L585.349 386.33L581.109 375.505L580.646 374.323L580.178 375.503L575.887 386.328ZM635.27 363.948H645.633V401.022H636.143V379.658V377.977L635.225 379.384L625.806 393.812L616.442 379.491L615.523 378.086V379.764V401.022H606.198V363.948H616.561L625.49 378.449L625.916 379.141L626.341 378.449L635.27 363.948ZM390.576 382.488C390.576 393.135 382.01 401.788 370.533 401.788C359.06 401.788 350.599 393.244 350.598 382.596V382.488C350.598 371.843 359.168 363.183 370.641 363.183C382.118 363.183 390.576 371.735 390.576 382.379V382.488ZM360.414 382.488C360.414 388.207 364.563 393.271 370.642 393.271C376.778 393.271 380.816 388.322 380.816 382.597V382.488C380.816 376.757 376.669 371.706 370.534 371.706C364.451 371.706 360.414 376.65 360.414 382.379V382.488Z" fill="#14477A" stroke="white"/>
<path d="M216.331 221.759C231.076 221.759 243.033 233.72 243.033 248.484C243.033 263.241 231.075 275.208 216.331 275.208C201.585 275.208 189.628 263.241 189.628 248.484C189.628 233.72 201.585 221.759 216.331 221.759Z" fill="#A97D34" stroke="white"/>
<path d="M81.5052 232.356H179.555V275.23H31.0007V90.1191H179.555V132.988H81.5052H81.0052V133.488V161.67V162.17H81.5052H179.555V201.844H81.5052H81.0052V202.344V231.856V232.356H81.5052Z" fill="#14477A" stroke="white"/>
<path d="M317.374 187.995V152.476L367.376 202.551V275.23H341.367L243.656 173.287L242.795 172.389V173.633V201.136L192.79 151.061V90.1191H226.105L316.506 188.334L317.374 189.277V187.995Z" fill="#25B3B5" stroke="white"/>
<path d="M396.114 134.815V134.315H395.614H317.374V90.1191H502.434V134.315H447.15H446.65V134.815V239.654C446.65 249.51 440.918 258.391 431.641 264.83C422.475 271.191 409.887 275.135 396.114 275.228V134.815Z" fill="#14477A" stroke="white"/>
</svg>
