<svg width="669" height="496" viewBox="0 0 669 496" fill="none" xmlns="http://www.w3.org/2000/svg">
<path fill-rule="evenodd" clip-rule="evenodd" d="M35.5884 341.414H66.4584V332.445H46.0242V326.403H64.2841V318.084H46.0242V312.313H66.1858V303.337H35.5884V341.414ZM71.8395 341.414H102.708V332.445H82.2728V326.403H100.535V318.084H82.2728V312.313H102.437V303.337H71.8395V341.414ZM108.087 341.414H118.631V330.536H123.848C133.306 330.536 140.209 325.806 140.209 316.826V316.717C140.209 308.288 134.01 303.338 124.393 303.338H108.087V341.414ZM118.632 322.269V312.205H123.576C127.382 312.205 129.667 313.947 129.667 317.211V317.319C129.667 320.307 127.382 322.269 123.633 322.269H118.632ZM144.879 341.414H155.481V303.338H144.879V341.414ZM177.382 342.069C186.619 342.069 192.761 337.444 192.761 329.667V329.559C192.761 322.434 187.326 319.601 178.577 317.698C173.304 316.499 172.001 315.741 172.001 314V313.89C172.001 312.53 173.253 311.446 175.805 311.446C179.175 311.446 182.978 312.748 186.457 315.197L191.729 307.747C187.598 304.427 182.545 302.682 176.079 302.682C166.946 302.682 161.349 307.801 161.349 314.874V314.98C161.349 322.813 167.599 325.095 175.697 326.946C180.861 328.144 182.109 329.017 182.109 330.589V330.699C182.109 332.337 180.589 333.312 177.764 333.312C173.361 333.312 169.175 331.735 165.426 328.746L159.555 335.763C164.228 339.948 170.644 342.069 177.382 342.069ZM212.925 341.414H223.358V320.529L239.61 341.414H248.849V303.338H238.413V323.462L222.762 303.338H212.925V341.414ZM255.588 341.414H286.455V332.445H266.024V326.403H284.284V318.084H266.024V312.313H286.185V303.337H255.588V341.414ZM302.001 341.685H311.184L318.795 319.766L326.456 341.685H335.643L348.36 303.337H337.436L330.808 325.371L323.468 303.228H314.393L307.057 325.371L300.425 303.337H289.286L302.001 341.685Z" fill="#14477A"/>
<path fill-rule="evenodd" clip-rule="evenodd" d="M366.402 342.069C375.643 342.069 381.782 337.444 381.782 329.667V329.559C381.782 322.434 376.35 319.601 367.597 317.698C362.328 316.499 361.022 315.741 361.022 314V313.89C361.022 312.53 362.274 311.446 364.828 311.446C368.198 311.446 372.002 312.748 375.48 315.197L380.752 307.747C376.621 304.427 371.566 302.682 365.099 302.682C355.966 302.682 350.369 307.801 350.369 314.874V314.98C350.369 322.813 356.621 325.095 364.719 326.946C369.88 328.144 371.132 329.017 371.132 330.589V330.699C371.132 332.337 369.609 333.312 366.784 333.312C362.382 333.312 358.196 331.735 354.447 328.746L348.579 335.763C353.249 339.948 359.664 342.069 366.402 342.069Z" fill="#14477A"/>
<path fill-rule="evenodd" clip-rule="evenodd" d="M32.5437 401.523H43.6324L46.3493 394.724H61.0227L63.7971 401.523H75.0995L58.9042 363.172H48.7409L32.5437 401.523ZM49.4452 386.512L53.7392 375.687L57.9793 386.512H49.4452ZM78.7939 401.523H89.2291V380.635L105.479 401.523H114.719V363.448H104.284V383.572L88.6301 363.448H78.7939V401.523ZM121.457 401.523H135.915C149.61 401.523 157.599 393.366 157.599 382.379V382.27C157.599 371.283 149.718 363.448 136.132 363.448H121.457V401.523ZM132.001 392.169V372.803H136.296C142.599 372.803 146.785 376.339 146.785 382.435V382.543C146.785 388.687 142.599 392.169 136.296 392.169H132.001ZM178.089 401.523H188.524V380.635L204.773 401.523H214.011V363.448H203.575V383.572L187.925 363.448H178.089V401.523ZM220.752 401.523H251.623V392.548H231.188V386.512H249.45V378.187H231.188V372.422H251.349V363.448H220.752V401.523ZM266.295 401.523H276.839V372.694H288.252V363.448H254.882V372.694H266.295V401.523ZM303.036 401.796H312.22L319.827 379.875L327.491 401.796H336.675L349.392 363.448H338.469L331.839 385.481L324.503 363.339H315.427L308.089 385.481L301.46 363.448H290.317L303.036 401.796Z" fill="#14477A"/>
<path fill-rule="evenodd" clip-rule="evenodd" d="M370.533 402.288C382.275 402.288 391.076 393.422 391.076 382.488V382.379C391.076 371.448 382.384 362.683 370.641 362.683C358.903 362.683 350.098 371.556 350.098 382.488V382.596C350.099 393.531 358.795 402.288 370.533 402.288ZM370.642 392.771C364.883 392.771 360.914 387.977 360.914 382.488V382.379C360.914 376.88 364.772 372.206 370.534 372.206C376.351 372.206 380.316 376.989 380.316 382.488V382.597C380.316 388.091 376.459 392.771 370.642 392.771ZM396.565 401.522H407.11V389.994H411.619H411.729L419.394 401.522H431.567L422.489 388.246C427.217 386.242 430.316 382.379 430.316 376.556V376.448C430.316 372.694 429.175 369.755 426.948 367.581C424.393 364.972 420.37 363.448 414.554 363.448H396.564V401.522H396.565ZM407.11 381.73V372.584H414.012C417.546 372.584 419.721 374.109 419.721 377.097V377.205C419.721 379.982 417.654 381.73 414.066 381.73H407.11ZM435.642 401.522H446.186V391.675L450.044 387.38L459.609 401.522H472.274L457.383 379.821L471.784 363.448H459.285L446.186 378.898V363.448H435.642V401.522ZM499.664 401.522H510.208V372.694H521.622V363.448H488.251V372.694H499.664V401.522ZM526.241 401.522H557.111V392.548H536.677V386.512H554.938V378.187H536.677V372.422H556.837V363.448H526.24L526.241 401.522ZM559.449 401.522H570.535L573.251 394.724H587.925L590.698 401.522H602.001L585.806 363.172H575.645L559.449 401.522ZM576.351 386.512L580.643 375.687L584.883 386.512H576.351ZM605.697 401.522H616.023V379.764L625.698 394.559H625.915L635.643 379.658V401.522H646.133V363.448H634.991L625.916 378.187L616.84 363.448H605.698V401.522H605.697Z" fill="#14477A"/>
<path fill-rule="evenodd" clip-rule="evenodd" d="M216.331 221.259C231.353 221.259 243.533 233.444 243.533 248.484C243.533 263.517 231.352 275.708 216.331 275.708C201.309 275.708 189.128 263.517 189.128 248.484C189.128 233.444 201.308 221.259 216.331 221.259Z" fill="#A97D34"/>
<path fill-rule="evenodd" clip-rule="evenodd" d="M30.5007 275.73V89.6191H180.055V133.488H81.5052V161.67H180.055V202.344H81.5052V231.856H180.055V275.73H30.5007Z" fill="#14477A"/>
<path fill-rule="evenodd" clip-rule="evenodd" d="M243.295 202.344L192.29 151.268V89.6191H226.324L316.874 187.995V151.268L367.876 202.344V275.73H341.153L243.295 173.633V202.344Z" fill="#25B3B5"/>
<path fill-rule="evenodd" clip-rule="evenodd" d="M395.614 134.815H316.874V89.6191H502.934V134.815H447.15V239.654C447.15 259.785 423.73 275.73 395.614 275.73V134.815Z" fill="#14477A"/>
</svg>
