<svg width="180" height="116" viewBox="0 0 180 116" fill="none" xmlns="http://www.w3.org/2000/svg">
<path fill-rule="evenodd" clip-rule="evenodd" d="M10.1598 83.6939H18.5021V81.2825H12.9803V79.6586H17.9145V77.4219H12.9803V75.8707H18.4285V73.4576H10.1598V83.6939ZM19.9561 83.6939H28.2981V81.2825H22.7756V79.6586H27.7108V77.4219H22.7756V75.8707H28.2248V73.4576H19.9561V83.6939ZM29.7521 83.6939H32.6013V80.7692H34.0115C36.5671 80.7692 38.4323 79.4983 38.4323 77.0838V77.0546C38.4323 74.7886 36.7575 73.4576 34.1585 73.4576H29.752V83.6939H29.7521ZM32.6013 78.5474V75.8413H33.9375C34.9661 75.8413 35.5833 76.3095 35.5833 77.187V77.2163C35.5833 78.0197 34.9661 78.5474 33.953 78.5474H32.6013ZM39.6948 83.6939H42.5596V73.4576H39.6948V83.6939ZM48.4778 83.8708C50.9743 83.8708 52.6338 82.627 52.6338 80.5362V80.507C52.6338 78.5915 51.1655 77.8301 48.8006 77.3185C47.3761 76.9962 47.0238 76.7922 47.0238 76.3241V76.2949C47.0238 75.9291 47.362 75.6375 48.0516 75.6375C48.9623 75.6375 49.9903 75.9873 50.9301 76.6462L52.3548 74.6432C51.2383 73.7507 49.8728 73.2811 48.1255 73.2811C45.6578 73.2811 44.1451 74.6575 44.1451 76.5587V76.5879C44.1451 78.6936 45.8341 79.3073 48.0223 79.8042C49.4176 80.1263 49.7551 80.3615 49.7551 80.7842V80.8134C49.7551 81.2533 49.3445 81.5162 48.581 81.5162C47.391 81.5162 46.2601 81.0914 45.247 80.2883L43.6605 82.1751C44.9235 83.3006 46.657 83.8708 48.4778 83.8708ZM58.0833 83.6939H60.9025V78.0797L65.2943 83.6939H67.7908V73.4576H64.9706V78.8682L60.7413 73.4576H58.0833V83.6939ZM69.6125 83.6939H77.9541V81.2825H72.4325V79.6586H77.3669V77.4219H72.4325V75.8707H77.8808V73.4576H69.6125V83.6939ZM82.1548 83.7673H84.6368L86.6935 77.8738L88.7638 83.7673H91.2461L94.683 73.4578H91.731L89.9395 79.3815L87.9561 73.4286H85.5036L83.5213 79.3815L81.7289 73.4578H78.7183L82.1548 83.7673Z" fill="white"/>
<path fill-rule="evenodd" clip-rule="evenodd" d="M99.5587 83.8708C102.056 83.8708 103.715 82.627 103.715 80.5362V80.507C103.715 78.5915 102.247 77.8301 99.8814 77.3185C98.4577 76.9962 98.1049 76.7922 98.1049 76.3241V76.2949C98.1049 75.9291 98.4429 75.6375 99.1334 75.6375C100.044 75.6375 101.072 75.9873 102.012 76.6462L103.437 74.6432C102.32 73.7507 100.954 73.2811 99.2063 73.2811C96.7385 73.2811 95.226 74.6575 95.226 76.5587V76.5879C95.226 78.6936 96.9159 79.3073 99.104 79.8042C100.499 80.1263 100.837 80.3615 100.837 80.7842V80.8134C100.837 81.2533 100.426 81.5162 99.662 81.5162C98.4722 81.5162 97.3412 81.0914 96.3279 80.2883L94.7422 82.1751C96.0042 83.3006 97.738 83.8708 99.5587 83.8708Z" fill="white"/>
<path fill-rule="evenodd" clip-rule="evenodd" d="M9.33716 99.8543H12.3337L13.068 98.026H17.033L17.7828 99.8543H20.8372L16.4607 89.5439H13.7145L9.33716 99.8543ZM13.9048 95.8191L15.065 92.9087L16.2108 95.8191H13.9048ZM21.8357 99.8543H24.6558V94.2385L29.047 99.8543H31.544V89.6181H28.7242V95.0286L24.4942 89.6181H21.8358L21.8357 99.8543ZM33.3648 99.8543H37.2723C40.9732 99.8543 43.1322 97.6617 43.1322 94.7078V94.6784C43.1322 91.7246 41.0025 89.6181 37.331 89.6181H33.3648V99.8543ZM36.2143 97.3396V92.1332H37.3747C39.0782 92.1332 40.2095 93.0839 40.2095 94.7228V94.7515C40.2095 96.4037 39.0782 97.3397 37.3747 97.3397H36.2143V97.3396ZM48.669 99.8543H51.4892V94.2385L55.8803 99.8543H58.3767V89.6181H55.5567V95.0286L51.327 89.6181H48.6688V99.8543H48.669ZM60.1983 99.8543H68.5407V97.4415H63.0182V95.8191H67.9533V93.581H63.0182V92.0311H68.4667V89.6182H60.1983V99.8543ZM72.5057 99.8543H75.3552V92.1038H78.4395V89.6181H69.4213V92.1038H72.5057V99.8543ZM82.4345 99.9277H84.9163L86.9723 94.0342L89.0433 99.9277H91.525L94.9618 89.6182H92.0097L90.2182 95.5419L88.2358 89.589H85.7833L83.8 95.5419L82.0085 89.6182H78.9973L82.4345 99.9277Z" fill="white"/>
<path fill-rule="evenodd" clip-rule="evenodd" d="M100.675 100.06C103.848 100.06 106.227 97.6761 106.227 94.737V94.7078C106.227 91.7687 103.877 89.4123 100.705 89.4123C97.5322 89.4123 95.1527 91.7979 95.1527 94.737V94.7662C95.1527 97.7053 97.5029 100.06 100.675 100.06ZM100.705 97.5014C99.148 97.5014 98.0755 96.2124 98.0755 94.737V94.7078C98.0755 93.2293 99.1179 91.9727 100.675 91.9727C102.247 91.9727 103.319 93.2585 103.319 94.737V94.7662C103.319 96.2431 102.276 97.5014 100.705 97.5014ZM107.71 99.8543H110.559V96.7549H111.778H111.808L113.879 99.8543H117.169L114.715 96.2853C115.993 95.7457 116.83 94.7078 116.83 93.1418V93.1131C116.83 92.1038 116.522 91.3138 115.92 90.7288C115.23 90.0275 114.143 89.6182 112.571 89.6182H107.71L107.71 99.8543ZM110.559 94.5332V92.0747H112.425C113.379 92.0747 113.967 92.4847 113.967 93.2881V93.3173C113.967 94.0636 113.409 94.5334 112.439 94.5334L110.559 94.5332ZM118.27 99.8543H121.119V97.2068L122.162 96.0521L124.747 99.8543H128.169L124.145 94.0199L128.037 89.6182H124.659L121.119 93.7718V89.6182H118.27V99.8543ZM135.571 99.8543H138.421V92.1038H141.505V89.6181H132.487V92.1038H135.571V99.8543ZM142.753 99.8543H151.096V97.4415H145.573V95.8191H150.508V93.581H145.573V92.0311H151.021V89.6182H142.753V99.8543ZM151.727 99.8543H154.723L155.457 98.026H159.422L160.172 99.8543H163.226L158.85 89.5439H156.104L151.727 99.8543ZM156.295 95.8191L157.455 92.9087L158.6 95.8191H156.295ZM164.225 99.8543H167.016V94.005L169.63 97.9825H169.689L172.318 93.9758V99.8543H175.153V89.6181H172.142L169.689 93.5808L167.237 89.6181H164.225L164.225 99.8543Z" fill="white"/>
<path fill-rule="evenodd" clip-rule="evenodd" d="M59.0035 51.3911C63.063 51.3911 66.3547 54.6671 66.3547 58.7102C66.3547 62.7519 63.063 66.0296 59.0035 66.0296C54.944 66.0296 51.6523 62.7521 51.6523 58.7102C51.6522 54.6671 54.9438 51.3911 59.0035 51.3911Z" fill="#A97D34"/>
<path fill-rule="evenodd" clip-rule="evenodd" d="M8.78503 66.0348V16H49.2007V27.7933H22.5687V35.3706H49.2007V46.3058H22.5687V54.2401H49.2007V66.0348H8.78503Z" fill="white"/>
<path fill-rule="evenodd" clip-rule="evenodd" d="M66.29 46.3058L52.5067 32.5742V16H61.704L86.1742 42.4475V32.5742L99.9569 46.3058V66.0348H92.7354L66.29 38.5868V46.3058Z" fill="#25B3B5"/>
<path fill-rule="evenodd" clip-rule="evenodd" d="M107.453 28.1507H86.1742V16H136.455V28.1507H121.38V56.3366C121.38 61.7485 115.051 66.0348 107.453 66.0348V28.1507H107.453Z" fill="white"/>
</svg>
