<svg width="447" height="417" viewBox="0 0 447 417" fill="none" xmlns="http://www.w3.org/2000/svg">
<path d="M202.42 416.76H395.18C423.48 416.76 446.43 393.82 446.43 365.51V313C446.43 231.47 380.33 165.37 298.8 165.37C217.27 165.37 151.17 231.47 151.17 313V365.51C151.17 393.81 174.11 416.76 202.42 416.76Z" fill="#236EDA"/>
<path d="M253.06 207.44C249.59 207.22 226.87 209.15 220.39 229.96C210.25 261.58 196.75 313.01 192.98 329.55C189.21 346.09 189.21 366.45 199.08 370.76C208.95 375.07 222.96 374.33 233.22 351.82C243.48 329.31 267.82 247.65 269.71 238.37C271.6 229.09 268.03 208.56 253.07 207.43L253.06 207.44Z" fill="#F6AF9A"/>
<path d="M199.35 369.64C202.97 371.22 212.65 360.7 217.05 360.07C223.64 338.85 198.82 306.08 198.49 307.36C196.04 316.84 194.09 324.71 192.98 329.56C189.21 346.1 189.49 365.34 199.35 369.65V369.64Z" fill="#F0A892"/>
<path d="M233.22 351.82C240.59 335.66 255.22 288.98 263.58 260.52C248.91 242.58 234.01 235.48 234.01 235.48C234.01 235.48 222.51 267.98 218.74 294.48C213.11 327.32 223.72 366.93 226.27 363.35C229.02 360.42 231.55 355.48 233.22 351.82Z" fill="#F0A892"/>
<path d="M196.14 299C202.28 273.38 209.89 247.16 215.57 232.97C223.5 210.01 253.33 201.33 253.33 201.33C270.38 205.67 277.9 225.78 269.61 252.56C265.26 266.61 257.42 294.36 248.58 319.95C223.82 315.78 204.67 304.68 196.15 299H196.14Z" fill="#F9F9F9"/>
<path d="M215.43 301.03C215.08 303.51 214.76 306.27 214.45 309.21C223.71 313.51 235.34 317.72 248.57 319.95C254.31 303.32 259.63 285.78 263.85 271.68C248.13 250.33 230.7 242.04 230.7 242.04C230.7 242.04 219.2 274.54 215.43 301.04V301.03Z" fill="#F2EBEB"/>
<path d="M202.43 324.6C191.5 317.04 143.11 295.14 123.28 279.47C120.63 280.18 118.12 281.41 115.98 283.11C112.16 286.15 110.68 291.46 111 296.28C139.84 314.71 190.68 366.2 197.88 370.17C200.77 371.76 205.82 373.12 210.49 372.92C215.16 372.73 219.93 367.75 221.36 357.89C222.78 348.04 216.17 334.1 202.43 324.59V324.6Z" fill="#F6AF9A"/>
<path d="M143.29 307.25C143.29 307.25 139.68 314.98 131.17 309.57C123.49 304.69 117.08 300.42 110.04 298.36C103 296.3 95.8499 293.66 89.3999 285.46C87.7799 283.37 88.3401 279.35 91.8401 278.8C91.8401 278.8 90.5999 271.82 96.2199 271.31C96.2199 271.31 94.92 266.3 100.78 265.44C100.78 265.44 103.19 259.39 107.42 260.21C111.65 261.02 126.74 278.94 134.86 286.83C144.16 295.87 148.95 299.35 143.29 307.25Z" fill="#F6AF9A"/>
<path d="M100.81 264.84C100.81 264.84 103.22 258.79 107.45 259.61C110.15 260.13 116.51 266.31 122.67 272.95C121.74 274.91 120.09 275.59 120.09 275.59C120.09 275.59 121.03 276.3 120.37 278.52C119.72 280.74 115.75 280.84 115.75 280.84C115.75 280.84 116.84 283.31 115.8 285.61C114.76 287.91 111 288.56 111 288.56C111 288.56 112.15 291.32 110.4 293.56C108.94 295.53 105.55 295.59 102.87 295.25C98.2399 293.25 93.6799 290.26 89.4199 284.85C87.7999 282.76 88.3601 278.74 91.8601 278.19C91.8601 278.19 90.62 271.21 96.24 270.7C96.24 270.7 94.94 265.69 100.8 264.83L100.81 264.84Z" fill="#E57E73"/>
<path d="M119.32 272.47C118.21 273.21 117.15 273.48 117.15 273.48C117.15 273.48 119.38 274.84 118.27 277.62C117.17 280.4 112.21 278.98 112.21 278.98C112.21 278.98 115.57 281.47 113.51 284.74C111.45 288.01 106.73 286.24 106.73 286.24C106.73 286.24 111.48 289.66 108.63 292.78C105.87 295.81 95.03 290.38 94.41 290.06C92.72 288.62 91.05 286.92 89.43 284.86C87.81 282.77 88.3699 278.75 91.8699 278.2C91.8699 278.2 90.63 271.22 96.25 270.71C96.25 270.71 94.9501 265.7 100.81 264.84C100.81 264.84 103.22 258.79 107.45 259.61C109.62 260.03 114.7 263.13 119.72 267.95C121.06 269.24 120.86 271.44 119.31 272.47H119.32Z" fill="#F6AF9A"/>
<path d="M126.03 297.77C126.03 297.77 116.69 293.65 114.86 280.7C114.86 280.7 102.58 282.84 101.99 275.41C102.05 272.33 104.79 269.54 111.37 268.83C114.04 268.54 118.01 268.16 119.72 267.95C122.91 271.17 124.6 275 127.66 278.44C129.07 283.53 129.35 290.16 126.03 297.76V297.77Z" fill="#E57E73"/>
<path d="M106.76 286.17C105.58 285.4 104.38 284.66 103.19 283.9L99.5801 281.69C98.3701 280.96 97.23 280.12 95.94 279.55C94.65 278.97 93.3399 278.44 91.9099 278.14C91.8699 278.14 91.8301 278.16 91.8201 278.2C91.8201 278.23 91.8201 278.25 91.8401 278.27C92.8801 279.3 94.04 280.11 95.23 280.87C96.42 281.64 97.75 282.13 99.01 282.75L102.83 284.56C104.12 285.14 105.39 285.74 106.69 286.3C106.73 286.32 106.77 286.3 106.79 286.26C106.81 286.23 106.79 286.19 106.76 286.17Z" fill="#E57E73"/>
<path d="M112.25 278.91C110.98 278.12 109.68 277.36 108.4 276.58L104.52 274.31C103.22 273.56 101.98 272.7 100.6 272.11C99.22 271.51 97.82 270.96 96.3 270.64C96.26 270.64 96.2199 270.66 96.2099 270.7C96.2099 270.73 96.2099 270.76 96.2299 270.77C97.3699 271.83 98.6298 272.66 99.9098 273.43C101.19 274.22 102.61 274.73 103.97 275.36L108.06 277.23C109.44 277.83 110.8 278.45 112.19 279.03C112.23 279.05 112.27 279.03 112.29 278.99C112.3 278.96 112.29 278.92 112.26 278.9L112.25 278.91Z" fill="#E57E73"/>
<path d="M117.18 273.42C115.88 272.59 114.55 271.8 113.24 271L109.26 268.64C107.93 267.86 106.66 266.97 105.25 266.35C103.84 265.72 102.41 265.14 100.85 264.79C100.81 264.79 100.77 264.81 100.76 264.85C100.76 264.88 100.76 264.91 100.78 264.92C101.95 266.01 103.23 266.87 104.55 267.68C105.86 268.5 107.31 269.05 108.7 269.71L112.89 271.67C114.3 272.3 115.7 272.95 117.11 273.57C117.15 273.59 117.19 273.57 117.21 273.53C117.23 273.5 117.21 273.46 117.18 273.44V273.42Z" fill="#E57E73"/>
<path d="M112.54 294.55C112.68 294.56 112.82 294.53 112.95 294.46C117.96 291.81 120.08 292.24 120.1 292.24C120.49 292.33 120.9 292.09 121 291.69C121.1 291.3 120.87 290.9 120.48 290.79C120.22 290.72 117.8 290.19 112.25 293.13C111.88 293.32 111.75 293.78 111.94 294.14C112.06 294.37 112.3 294.52 112.54 294.54V294.55Z" fill="#E57E73"/>
<path d="M133.85 285.51C133.85 285.51 130.29 278.99 128.94 275.2C127.58 271.41 125.47 269.12 118.4 269.92C111.33 270.72 103.13 271.9 103.76 275.09C104.39 278.27 110.24 279.67 117.72 277.88C117.72 277.88 115.45 283.9 122.13 294.01C128.81 304.12 136.99 296.02 133.84 285.51H133.85Z" fill="#F6AF9A"/>
<path d="M337.35 195.34C316.44 189.37 294.59 187.98 274.05 195.09C260.98 199.61 244.22 206.81 236.94 215.86C224.16 231.75 222.25 282.68 224.2 301.79C226.15 320.89 234.01 347.59 235.09 357.85C236.17 368.11 284.82 371.9 305.13 368.31C325.45 364.73 349.99 357.05 353.84 337.82C358.39 315.13 363.06 296.33 370.6 276.77C378.15 257.21 386.13 215.63 355.12 199.95C349.31 197.01 343.04 196.97 337.35 195.35V195.34Z" fill="#F6AF9A"/>
<path d="M273.98 170.43C273.98 170.43 273.52 191.13 268.41 200.34C263.29 209.55 278.64 216.33 288.83 216.81C299.02 217.3 315 212.48 317.52 200.31C320.04 188.14 312.27 192.35 315.58 159.07C318.17 133.03 272.59 144.55 273.98 170.43Z" fill="#F6AF9A"/>
<path d="M315.58 159.06C318.17 133.02 272.59 144.54 273.98 170.42C273.98 170.42 271.32 188.53 270.08 196.49C291.1 196.28 302.77 179.87 311.16 166.5C311.26 166.35 315.38 161.04 315.58 159.06Z" fill="#F0A892"/>
<path d="M270.09 196.5C270.09 196.5 261.58 208.58 273.35 209.57C297.08 211.58 316.79 189.46 316.79 189.46C316.79 189.46 364.2 197.7 373.03 205.5C389.35 226.29 378.65 256.37 377.23 270.68C375.81 284.98 366.33 309.25 364.8 348.23C365.68 353.25 373.53 384.49 374.55 416.77H227.29C227.88 401.61 228.51 383.67 228.41 379.16C228.21 371 226.97 334.53 224.73 320.13C222.48 305.72 217.95 252.47 228.43 223.57C236.08 200.7 257.33 201.9 270.1 196.51L270.09 196.5Z" fill="#F9F9F9"/>
<path d="M378.24 262.82C377.84 265.7 377.45 268.34 377.22 270.66C375.8 284.96 366.32 309.23 364.79 348.21C365.67 353.23 373.52 384.47 374.54 416.75H344.51C360.21 386.72 352.61 343.26 363.13 323.92C347.9 346.06 336.42 368.23 313.06 365.87C280.83 360.66 330.04 244.25 330.04 244.25C330.04 244.25 361.74 242.1 378.24 262.81V262.82Z" fill="#F2EBEB"/>
<path d="M323.38 189.71C319.33 189.4 316.78 189.46 316.78 189.46C316.78 189.46 297.07 211.58 273.34 209.57C261.57 208.57 270.08 196.5 270.08 196.5C269.72 196.47 266.51 197.13 265.68 198.05C263.36 201.54 261.17 206.77 266.67 210.89C274.93 217.08 296.36 210.46 306.74 203.55C314.44 198.43 320.67 192.45 323.38 189.71Z" fill="#EBDFDF"/>
<path d="M325.12 137.11C322.34 147.57 316.82 157.56 309.98 165.55C300.61 176.54 287.17 185.55 273.55 186.78C253.97 189.86 247.18 168.04 245.25 146.38C244.48 126.84 244.21 103.25 256.64 88.42V88.4C264.98 79.21 278.22 76.16 289.89 76.78C319.92 77.65 332.98 110.84 325.12 137.12V137.11Z" fill="#F6AF9A"/>
<path d="M275.86 132.51C275.65 134.91 273.98 136.72 272.13 136.55C270.28 136.39 268.95 134.31 269.16 131.91C269.37 129.51 271.04 127.7 272.89 127.87C274.74 128.03 276.07 130.11 275.86 132.51Z" fill="#192B4F"/>
<path d="M254.7 130.16C254.5 132.47 252.89 134.21 251.1 134.06C249.32 133.9 248.04 131.9 248.24 129.6C248.44 127.29 250.05 125.55 251.84 125.7C253.62 125.86 254.9 127.86 254.7 130.16Z" fill="#192B4F"/>
<path d="M265.23 143.26C265.23 143.26 266.9 140.28 274.44 141.1C280.57 141.77 285.11 143.1 284.72 146.92C284.69 151.92 261.32 150.63 265.23 143.26Z" fill="#F0A892"/>
<path d="M250.61 143.53C250.6 145.12 248.29 146.06 245.25 146.38C245.17 145.44 245.1 144.49 245.04 143.53C245.03 143.3 245.03 143.05 245.01 142.83C245.01 142.83 245.01 142.81 245.01 142.78C244.93 141.41 244.88 140.01 244.86 138.62C248.54 139.38 250.9 140.73 250.61 143.53Z" fill="#F0A892"/>
<path d="M265.76 121.39C265.43 122.02 265.22 123.77 267.16 124.14C269.1 124.51 272.46 124.37 276.25 122.61C280.03 120.85 283.29 119.54 283.76 118.69C284.23 117.84 278.93 117.21 275.27 119.04C271.61 120.87 266.09 120.76 265.76 121.39Z" fill="#8C4949"/>
<path d="M245.38 116.07C245.25 115.88 245.4 115.37 245.93 115.11C247.99 114.33 251.75 117.85 255.61 119.33C256.89 119.8 258.37 120.52 258.42 121.17C258.46 121.73 257.79 123.14 256.59 123.25C255.38 123.36 252.48 121.8 250.18 119.99C248.8 118.9 245.63 116.42 245.38 116.07Z" fill="#8C4949"/>
<path d="M258.37 150.45C261.12 151.11 261.57 148.85 259.83 148.49C258.42 148.44 255.88 148.19 254.86 147.5C254.86 147.2 255.43 146.11 255.76 145.44C261.64 133.64 261.38 128.41 261.36 128.2C261.29 126.88 259.21 127 259.31 128.33C259.38 128.29 259.28 133.96 253.8 144.77C250.98 149.09 254.81 150.2 258.36 150.47L258.37 150.45Z" fill="#E57E73"/>
<path d="M270.07 168.82C271.57 168.31 272.34 166.63 271.75 165.15C270.62 162.28 267.03 155.11 259.44 154.81C252.21 154.53 250.67 159.15 250.03 161.46C249.77 162.41 250 163.43 250.66 164.15C251.88 165.48 254.15 167.58 261.01 168.72C265.39 169.45 268.31 169.41 270.06 168.82H270.07Z" fill="#E57E73"/>
<path d="M249.94 162.29C252.85 161.53 260.96 159.78 269.73 161.24C270.72 162.75 271.37 164.19 271.75 165.15C272.33 166.63 271.57 168.31 270.07 168.82C268.32 169.41 265.4 169.45 261.02 168.72C254.15 167.58 251.89 165.49 250.67 164.15C250.2 163.64 249.95 162.97 249.94 162.29Z" fill="#DE7468"/>
<path d="M304.6 145.66C304.6 145.66 301.25 145.87 301.02 142.24C300.79 138.61 298.96 122.75 296.07 116.77C293.17 110.79 285.78 100.04 275.35 99.01C264.92 97.98 251.38 101.07 245.4 99.48C239.42 97.89 236.54 92.19 237.48 89.33C238.42 86.47 242.73 88.16 247 84.81C251.27 81.46 282.76 56.24 309.96 78.92C309.96 78.92 332.09 84.55 332.88 109.43C333.45 127.61 320.91 169.29 310.92 165.15C305.98 162.38 306.27 154.52 304.6 145.66Z" fill="#8C4949"/>
<path d="M304.41 136.75C304.41 136.75 309.17 127.12 317.74 131.48C326.31 135.84 311.62 156.68 304.35 153.03C297.08 149.38 304.41 136.75 304.41 136.75Z" fill="#F6AF9A"/>
<path d="M313.19 136.34C313.63 136.26 314.05 136.56 314.13 137.01C314.21 137.45 313.91 137.88 313.47 137.96C313.32 137.99 310.62 138.55 308.86 142.29C311.53 141.4 313.59 142.73 313.7 142.8C314.08 143.05 314.18 143.55 313.93 143.93C313.68 144.31 313.17 144.41 312.8 144.17C312.71 144.11 310.64 142.82 308.15 144.45C308.12 144.47 308.09 144.48 308.07 144.5C307.83 145.37 307.65 146.35 307.53 147.46C307.48 147.91 307.08 148.24 306.61 148.19C306.17 148.14 305.85 147.73 305.89 147.29C306.94 137.52 312.94 136.38 313.2 136.34H313.19Z" fill="#E57E73"/>
<path d="M304.41 135.767L329.975 141.636C331.466 141.979 332.398 143.465 332.055 144.956L319.598 199.214C319.256 200.706 317.77 201.637 316.279 201.294L290.714 195.425C289.223 195.083 288.292 193.597 288.634 192.106L301.091 137.847C301.433 136.356 302.919 135.425 304.41 135.767Z" fill="#6372A3"/>
<path d="M307.439 136.458L333.004 142.327C334.495 142.669 335.426 144.155 335.084 145.647L322.627 199.905C322.285 201.396 320.799 202.327 319.308 201.985L293.743 196.116C292.252 195.773 291.321 194.287 291.663 192.796L304.12 138.538C304.462 137.047 305.948 136.115 307.439 136.458Z" fill="#455487"/>
<path d="M308.8 145.01C307.287 145.01 306.06 143.783 306.06 142.27C306.06 140.757 307.287 139.53 308.8 139.53C310.313 139.53 311.54 140.757 311.54 142.27C311.54 143.783 310.313 145.01 308.8 145.01Z" fill="#8F9ABF"/>
<path d="M310.52 142.66C310.3 143.61 309.35 144.21 308.4 143.99C307.45 143.77 306.85 142.82 307.07 141.87C307.29 140.92 308.24 140.32 309.19 140.54C310.14 140.76 310.74 141.71 310.52 142.66Z" fill="#344270"/>
<path d="M297.57 167.09L322.88 198.79L326.91 181.27L301.59 149.56L297.57 167.09Z" fill="#4D5B8C"/>
<path d="M371.42 205.73C371.42 205.73 344.55 192.58 327.96 235.24C311.37 277.9 298.11 317.18 294.95 342.28C291.79 367.38 320.59 375.01 334.73 353.84C348.87 332.67 371.36 281.52 377.69 259.51C384.01 237.5 388.05 214.71 371.43 205.73H371.42Z" fill="#F6AF9A"/>
<path d="M333.37 346.73C333.64 344.6 340.18 317.31 339.8 315.31C339.8 315.31 330 276.33 322.95 248.31C308.75 285.84 297.79 319.77 294.96 342.28C294.23 348.1 295.23 352.96 297.35 356.76C300.4 361.54 305.47 364.99 311.54 365.76C322.4 367.15 331.99 357.59 333.38 346.73H333.37Z" fill="#F0A892"/>
<path d="M300.8 296.44C319.16 304.96 337.48 313.64 355.14 323.54C357.73 317.54 363.65 301.7 366.4 294.43C373.63 275.28 379.93 257.95 382.22 243.13C384.7 227.12 384.01 211.03 371.78 204.8C365.76 201.53 348.68 191.54 327.11 224.7C316.84 240.49 304.19 272.89 296.93 294.65C298.22 295.25 299.51 295.84 300.8 296.44Z" fill="#F9F9F9"/>
<path d="M325.41 227.44C315.48 244 303.79 274.08 296.93 294.65C298.22 295.25 299.51 295.84 300.8 296.44C313.89 302.52 326.96 308.68 339.79 315.31L325.41 227.44Z" fill="#F2EBEB"/>
<path d="M327.11 224.7C323.99 229.5 320.64 235.85 317.3 242.96C319.29 246.89 321.28 250.82 323.27 254.75C323.82 248.35 325.3 239.37 329.39 229.38C333.52 219.28 338.86 211.68 343.24 206.47C338.27 210.12 332.85 215.89 327.12 224.7H327.11Z" fill="#F2EBEB"/>
<path d="M296.93 215.9C296.93 215.9 292.56 333.72 294.22 346.46C294.25 348.18 294.5 349.86 294.95 351.47C297.04 358.89 303.39 364.72 311.51 365.76C322.37 367.15 334.56 358.82 335.96 347.97C336.23 345.84 336.15 343.74 335.77 341.74L315.9 220.34C315.86 219.93 316.36 213.97 306.78 212.47C300.73 211.69 296.76 214.87 296.93 215.9Z" fill="#F6AF9A"/>
<path d="M312.37 220.76C313.5 220.69 314.7 220.55 315.91 220.34C317.92 211.49 321.65 201.12 324.64 196.29C328.87 189.46 330.07 186.08 328.38 174.51C326.69 162.93 324.1 152.28 322.41 151.5C320.73 150.72 320.28 153.66 320.28 153.66C320.28 153.66 319.08 152.68 317.23 154.14C315.38 155.6 314.31 158.77 314.31 158.77C314.31 158.77 311.83 157.08 310.37 159.39C308.91 161.7 308.18 174 306.55 178.65C304.72 183.86 304.12 184.55 300.57 194.22C297.02 203.89 295.83 208.87 296.94 215.91C297.04 216.56 307.19 221.11 312.38 220.77L312.37 220.76Z" fill="#F6AF9A"/>
<path d="M314.36 158.76C314.62 167.48 315.57 177.45 310.25 184.88C313.44 176.61 314.12 167.24 314.36 158.76Z" fill="#C97565"/>
<path d="M320.32 153.65C320.95 163.5 323.51 177.5 318.61 186.3C321.41 175.84 320.4 164.09 320.32 153.65Z" fill="#C97565"/>
<path d="M326.01 161.35C326.25 165.35 326.45 171.19 326.58 175.27C326.64 179.74 327.59 185.51 323.66 188.65C325.64 185.69 325.64 182.2 325.61 178.75C325.84 176.48 325.64 163.53 326.01 161.35Z" fill="#C97565"/>
<path d="M157.02 53.76C154.72 48.57 135.92 6.35 133.12 0L158.23 31.97L170.65 15.5L176.59 7.63C177.77 10.05 208.69 72.98 211.07 77.84L175.45 29.33C169.23 37.57 160.08 49.71 157.02 53.76Z" fill="#FFD37B"/>
<path d="M102.78 159.89L100.31 150.39C102.16 150.79 174.71 157.16 179.59 158.2L116.33 163.67C118.76 173.02 122.35 186.84 123.73 192.12C117.89 190.29 71.2899 175.8 64.1899 173.58L107.1 176.51L102.78 159.9V159.89Z" fill="#FFD37B"/>
<path d="M72.7 65.36C71.9399 76.85 70.99 91.29 70.53 98.28C63.09 92.67 8.85001 51.84 0 45.15L54.97 68.81L56.0801 52.05L57.05 37.32C61.04 39.89 145.85 94.3 152.99 98.89L72.7 65.36Z" fill="#FFD37B"/>
</svg>
