<svg width="185" height="175" viewBox="0 0 185 175" fill="none" xmlns="http://www.w3.org/2000/svg">
<g clip-path="url(#clip0_140_156)">
<path d="M9.03253 123.015C9.41202 122.754 9.72985 122.411 9.96364 122.013C10.1974 121.614 10.3415 121.169 10.3857 120.708C10.4299 120.248 10.3731 119.783 10.2194 119.347C10.0657 118.911 9.81871 118.514 9.49596 118.184L10.7168 90.7771L4.50145 91.4787L4.86254 118.287C4.34763 118.869 4.06289 119.62 4.06229 120.4C4.06168 121.179 4.34525 121.931 4.85925 122.514C5.37325 123.097 6.08199 123.47 6.85115 123.562C7.62031 123.654 8.39646 123.46 9.03253 123.015Z" fill="#FFB8B8"/>
<path d="M20.3708 169.409L23.9083 170.035L27.4045 156.61L22.7695 155.687L20.3708 169.409Z" fill="#FFB8B8"/>
<path d="M30.1529 174.544L19.0354 172.579L19.7905 168.259L26.6127 169.465C27.1767 169.565 27.7158 169.775 28.199 170.084C28.6821 170.394 29.1 170.796 29.4288 171.267C29.7575 171.739 29.9907 172.271 30.1149 172.833C30.2392 173.396 30.2521 173.977 30.1529 174.544Z" fill="#2F2E41"/>
<path d="M10.6614 171.19H14.2531L15.9617 157.257L10.6609 157.257L10.6614 171.19Z" fill="#FFB8B8"/>
<path d="M21.18 174.544L9.89201 174.544L9.89181 170.158L16.8186 170.158C17.9752 170.158 19.0846 170.62 19.9025 171.442C20.7204 172.265 21.18 173.381 21.18 174.544Z" fill="#2F2E41"/>
<path d="M25.9402 167.375C25.8842 167.375 25.8282 167.371 25.7725 167.365L21.5451 167.015C21.3526 166.992 21.1667 166.93 20.9988 166.833C20.8308 166.736 20.6843 166.605 20.568 166.449C20.4518 166.293 20.3683 166.115 20.3226 165.926C20.2769 165.736 20.2699 165.539 20.3022 165.347L24.2058 143.343L21.5681 129.355C21.5466 129.242 21.485 129.14 21.3946 129.068C21.3042 128.997 21.1911 128.96 21.0762 128.966C20.9613 128.972 20.8524 129.019 20.7695 129.099C20.6866 129.18 20.6353 129.287 20.6251 129.402L17.3276 166.712C17.2914 167.087 17.112 167.432 16.8272 167.676C16.5425 167.92 16.1747 168.043 15.8014 168.02L11.8186 167.87C11.4696 167.846 11.1417 167.693 10.8968 167.442C10.652 167.19 10.5071 166.857 10.4896 166.506L10.2219 121.789L30.8701 119.193L32.3126 141.598L32.3068 141.622L27.3292 166.276C27.2534 166.589 27.0753 166.867 26.8235 167.067C26.5716 167.266 26.2606 167.374 25.9402 167.375Z" fill="#2F2E41"/>
<path d="M17.0296 73.017C21.0035 73.017 24.225 69.777 24.225 65.7803C24.225 61.7836 21.0035 58.5436 17.0296 58.5436C13.0556 58.5436 9.83414 61.7836 9.83414 65.7803C9.83414 69.777 13.0556 73.017 17.0296 73.017Z" fill="#FFB8B8"/>
<path d="M23.8094 125.057C22.6841 125.064 21.5803 124.746 20.6288 124.142C17.1433 121.951 13.1845 122.822 11.1348 123.536C10.9314 123.608 10.7146 123.632 10.5005 123.608C10.2864 123.583 10.0805 123.51 9.89838 123.394C9.71832 123.281 9.56615 123.127 9.4533 122.946C9.34045 122.765 9.26983 122.56 9.24672 122.348L5.51951 88.869C4.89492 83.2597 8.25456 77.9859 13.5079 76.3291C13.7053 76.2668 13.9059 76.2078 14.11 76.152C15.7448 75.7062 17.4568 75.6261 19.1257 75.9174C20.7946 76.2088 22.3797 76.8643 23.7695 77.8381C25.1852 78.8226 26.3691 80.1071 27.238 81.6013C28.1069 83.0955 28.6397 84.7631 28.7987 86.4867L31.9365 120.19C31.9578 120.408 31.9285 120.628 31.8509 120.833C31.7733 121.038 31.6494 121.222 31.4891 121.371C30.3891 122.394 27.1967 125.057 23.8094 125.057Z" fill="#F2C808"/>
<path d="M12.4598 96.0482L4.05084 95.1183C3.81158 95.0919 3.5808 95.0139 3.37422 94.8896C3.16765 94.7654 2.99013 94.5978 2.85374 94.3983C2.71736 94.1989 2.62533 93.9722 2.58391 93.7337C2.5425 93.4952 2.55267 93.2506 2.61374 93.0164L4.75413 84.8117C4.89567 83.5813 5.51654 82.4576 6.48062 81.6869C7.4447 80.9162 8.6733 80.5615 9.89705 80.7005C11.1208 80.8394 12.2398 81.4608 13.0087 82.4283C13.7777 83.3958 14.1338 84.6305 13.9989 85.8616L14.3167 94.3106C14.3257 94.5525 14.2828 94.7935 14.1908 95.0172C14.0989 95.2409 13.9601 95.4421 13.7839 95.607C13.6076 95.7719 13.3982 95.8967 13.1697 95.9728C12.9412 96.049 12.6991 96.0747 12.4598 96.0482Z" fill="#F2C808"/>
<path d="M31.9028 121.842C32.2482 121.536 32.5227 121.158 32.707 120.734C32.8914 120.31 32.981 119.85 32.9697 119.388C32.9584 118.925 32.8463 118.471 32.6414 118.056C32.4366 117.642 32.1439 117.278 31.784 116.99L29.7119 89.6344L23.6216 91.0132L27.1966 117.653C26.7552 118.293 26.5626 119.074 26.6554 119.848C26.7481 120.621 27.1197 121.333 27.6998 121.85C28.2799 122.366 29.0282 122.65 29.8028 122.649C30.5775 122.647 31.3247 122.36 31.9028 121.842Z" fill="#FFB8B8"/>
<path d="M21.2867 94.3286C21.1104 94.1638 20.9716 93.9626 20.8796 93.7389C20.7877 93.5152 20.7448 93.2741 20.754 93.0322L21.0717 84.5833C20.9369 83.3521 21.293 82.1175 22.0619 81.15C22.8308 80.1825 23.9499 79.5611 25.1736 79.4221C26.3974 79.2832 27.626 79.6379 28.59 80.4086C29.5541 81.1793 30.175 82.303 30.3165 83.5334L32.4569 91.7381C32.518 91.9723 32.5282 92.2169 32.4867 92.4554C32.4453 92.6938 32.3533 92.9205 32.2169 93.12C32.0805 93.3195 31.903 93.4871 31.6964 93.6113C31.4899 93.7356 31.2591 93.8136 31.0198 93.84L22.6108 94.7699C22.3716 94.7965 22.1294 94.7708 21.9009 94.6947C21.6724 94.6185 21.4629 94.4936 21.2867 94.3286Z" fill="#F2C808"/>
<path d="M16.6016 73.2897C16.4737 73.2896 16.3463 73.2746 16.2218 73.2451L16.1852 73.2362C9.85887 72.2628 8.4608 68.5774 8.15389 67.0383C7.83625 65.4449 8.19794 63.9068 9.01525 63.3094C8.56965 61.8943 8.64118 60.6397 9.22832 59.5786C10.2523 57.7282 12.4746 57.1025 12.7727 57.026C14.5475 55.7092 16.6709 56.5882 17.0573 56.7664C20.4904 55.489 21.8025 56.5524 22.0399 56.7897C23.5745 57.067 24.5099 57.6632 24.8204 58.5622C25.4037 60.2508 23.5591 62.3513 23.4803 62.4399L23.4394 62.4858L20.6914 62.6174C20.4306 62.6299 20.1754 62.6974 19.9422 62.8155C19.7091 62.9336 19.5032 63.0997 19.338 63.303C19.1728 63.5063 19.0519 63.7422 18.9832 63.9955C18.9144 64.2488 18.8994 64.5138 18.9391 64.7733C19.0135 65.1081 19.1074 65.4382 19.2205 65.7619C19.6898 67.237 20.0414 68.4972 19.5879 68.9762C19.4851 69.069 19.3585 69.1307 19.2225 69.1544C19.0865 69.1781 18.9466 69.1629 18.8188 69.1103C18.3891 68.995 18.0974 69.0191 17.9521 69.1824C17.7264 69.4356 17.7953 70.0766 18.146 70.9872C18.2561 71.2752 18.2857 71.5879 18.2317 71.8916C18.1777 72.1953 18.0421 72.4783 17.8396 72.7101C17.6872 72.8909 17.4976 73.0364 17.2838 73.1364C17.0701 73.2365 16.8374 73.2888 16.6016 73.2897Z" fill="#2F2E41"/>
<path d="M41.3075 175H0.292961C0.215263 175 0.140743 174.969 0.0858017 174.914C0.0308608 174.858 0 174.784 0 174.705C0 174.627 0.0308608 174.552 0.0858017 174.497C0.140743 174.442 0.215263 174.411 0.292961 174.411H41.3075C41.3852 174.411 41.4597 174.442 41.5147 174.497C41.5696 174.552 41.6005 174.627 41.6005 174.705C41.6005 174.784 41.5696 174.858 41.5147 174.914C41.4597 174.969 41.3852 175 41.3075 175Z" fill="#CCCCCC"/>
<path d="M184.273 175H143.258C143.18 175 143.106 174.969 143.051 174.914C142.996 174.858 142.965 174.784 142.965 174.705C142.965 174.627 142.996 174.552 143.051 174.497C143.106 174.442 143.18 174.411 143.258 174.411H184.273C184.35 174.411 184.425 174.442 184.48 174.497C184.535 174.552 184.566 174.627 184.566 174.705C184.566 174.784 184.535 174.858 184.48 174.914C184.425 174.969 184.35 175 184.273 175Z" fill="#CCCCCC"/>
<path d="M125.596 124.928H54.6996C51.9811 124.925 49.3748 123.838 47.4525 121.904C45.5303 119.971 44.449 117.35 44.4459 114.616V10.3125C44.449 7.57839 45.5303 4.95717 47.4525 3.02388C49.3748 1.09059 51.9811 0.00310298 54.6996 0H125.596C128.315 0.00310298 130.921 1.09059 132.843 3.02388C134.765 4.95717 135.847 7.57839 135.85 10.3125V114.616C135.847 117.35 134.765 119.971 132.843 121.904C130.921 123.838 128.315 124.925 125.596 124.928Z" fill="white"/>
<path d="M114.464 82.8032H65.8322C60.8645 82.7791 60.8438 75.1685 65.8325 75.1425L114.464 75.1425C119.428 75.1659 119.455 82.777 114.464 82.8032Z" fill="#CCCCCC"/>
<path d="M114.464 96.946H65.8322C60.8645 96.9219 60.8438 89.3114 65.8325 89.2853L114.464 89.2853C119.428 89.3087 119.455 96.9198 114.464 96.946Z" fill="#CCCCCC"/>
<path d="M114.464 111.089H65.8322C60.8645 111.065 60.8438 103.454 65.8325 103.428L114.464 103.428C119.428 103.452 119.455 111.063 114.464 111.089Z" fill="#CCCCCC"/>
<path d="M113.585 65.9495H66.711C65.4294 65.9481 64.2007 65.4354 63.2945 64.524C62.3883 63.6126 61.8786 62.3769 61.8771 61.088V34.6881C61.8786 33.3992 62.3883 32.1635 63.2945 31.2521C64.2007 30.3407 65.4294 29.828 66.711 29.8265H113.585C114.866 29.828 116.095 30.3407 117.001 31.2521C117.907 32.1635 118.417 33.3992 118.419 34.6881V61.088C118.417 62.3769 117.907 63.6126 117.001 64.524C116.095 65.4354 114.866 65.9481 113.585 65.9495Z" fill="#F2C808"/>
<path d="M125.596 124.928H54.6996C51.9811 124.925 49.3748 123.838 47.4525 121.904C45.5303 119.971 44.449 117.35 44.4459 114.616V10.3125C44.449 7.57839 45.5303 4.95717 47.4525 3.02388C49.3748 1.09059 51.9811 0.00310298 54.6996 0H125.596C128.315 0.00310298 130.921 1.09059 132.843 3.02388C134.765 4.95717 135.847 7.57839 135.85 10.3125V114.616C135.847 117.35 134.765 119.971 132.843 121.904C130.921 123.838 128.315 124.925 125.596 124.928ZM54.6996 1.76785C52.4471 1.77041 50.2876 2.67147 48.6949 4.27334C47.1022 5.87522 46.2062 8.04709 46.2037 10.3125V114.616C46.2062 116.881 47.1022 119.053 48.6949 120.655C50.2876 122.257 52.4471 123.158 54.6996 123.16H125.596C127.849 123.158 130.008 122.257 131.601 120.655C133.194 119.053 134.09 116.881 134.092 114.616V10.3125C134.09 8.04708 133.194 5.87521 131.601 4.27334C130.008 2.67146 127.849 1.77041 125.596 1.76785H54.6996Z" fill="#E6E6E6"/>
<path fill-rule="evenodd" clip-rule="evenodd" d="M89.8337 17.9552C90.6286 17.9552 91.2731 18.599 91.2731 19.3936C91.2731 20.1879 90.6285 20.832 89.8337 20.832C89.0387 20.832 88.3942 20.1879 88.3942 19.3936C88.3942 18.599 89.0387 17.9552 89.8337 17.9552Z" fill="#A97D34"/>
<path fill-rule="evenodd" clip-rule="evenodd" d="M80 20.833V11H87.914V13.3178H82.699V14.8067H87.914V16.9557H82.699V18.5149H87.914V20.833H80Z" fill="#14477A"/>
<path fill-rule="evenodd" clip-rule="evenodd" d="M91.2605 16.9557L88.5615 14.2571V11H90.3625L95.1541 16.1976V14.2571L97.8531 16.9557V20.833H96.439L91.2605 15.4388V16.9557Z" fill="#25B3B5"/>
<path fill-rule="evenodd" clip-rule="evenodd" d="M99.3209 13.3879H95.1541V11H105V13.3879H102.048V18.9269C102.048 19.9905 100.809 20.833 99.3209 20.833V13.3879Z" fill="#14477A"/>
</g>
<defs>
<clipPath id="clip0_140_156">
<rect width="185" height="175" fill="white"/>
</clipPath>
</defs>
</svg>
