<svg width="258" height="164" viewBox="0 0 258 164" fill="none" xmlns="http://www.w3.org/2000/svg">
<g clip-path="url(#clip0_140_260)">
<path d="M54.7473 38.621L64.5049 51.9063C64.5049 51.9063 72.824 55.3955 82.547 62.4012L80.2196 66.0251C80.2196 66.0251 64.1712 59.4706 60.0642 56.7012L52.5647 44.9746L54.7473 38.621Z" fill="#A0616A"/>
<path d="M88.3818 68.836C89.313 67.4768 88.2073 65.107 85.9123 63.5427C83.6172 61.9784 81.0018 61.8122 80.0706 63.1713C79.1394 64.5305 80.245 66.9004 82.5401 68.4647C84.8352 70.0289 87.4506 70.1952 88.3818 68.836Z" fill="#A0616A"/>
<path d="M49.9779 27.2795L53.1712 26.3761C53.1712 26.3761 55.0299 26.3796 56.0786 28.2006C57.1272 30.0216 64.552 46.2579 64.2001 46.8869C63.8481 47.5159 63.3569 47.6549 63.9875 48.0059C64.6181 48.3569 65.1955 48.179 64.7657 48.7049C64.3359 49.2309 64.9298 50.3864 64.9298 50.3864L56.7387 56.4141L49.9779 27.2795Z" fill="#F2C808"/>
<path d="M37.589 160.788L41.4847 160.788L43.338 145.8L37.5882 145.8L37.589 160.788Z" fill="#A0616A"/>
<path d="M50.9363 160.7C51.0576 160.903 51.1216 161.561 51.1216 161.798C51.1216 162.526 50.5296 163.117 49.7994 163.117H37.7347C37.2366 163.117 36.8327 162.714 36.8327 162.217V161.716C36.8327 161.716 36.2359 160.21 37.4647 158.355C37.4647 158.355 38.9918 159.808 41.2738 157.532L41.9468 156.316L46.818 159.869L49.518 160.201C50.1087 160.273 50.6324 160.189 50.9363 160.7Z" fill="#2F2E41"/>
<path d="M51.689 157.001L55.5309 157.645L59.8482 143.17L54.1778 142.221L51.689 157.001Z" fill="#A0616A"/>
<path d="M64.8664 159.12C64.9521 159.341 64.906 160 64.8667 160.234C64.7457 160.952 64.0638 161.437 63.3436 161.316L51.4458 159.322C50.9545 159.24 50.6231 158.776 50.7057 158.286L50.7889 157.792C50.7889 157.792 50.4504 156.208 51.9705 154.581C51.9705 154.581 53.2352 156.267 55.8637 154.399L56.7294 153.311L60.943 157.62L63.5506 158.393C64.1211 158.563 64.6515 158.566 64.8664 159.12Z" fill="#2F2E41"/>
<path d="M59.6749 80.0977C59.6749 80.0977 64.909 86.2095 64.909 91.812C64.909 97.4146 65.0367 115.014 65.0367 115.014C65.0367 115.014 61.9728 142.489 61.2068 144.781C60.4409 147.073 60.0579 150.893 60.0579 150.893L52.6535 149.111C52.6535 149.111 51.6322 123.263 54.6961 117.151L47.2917 96.2686L44.7385 155.35H36.1429C36.1429 155.35 31.717 124.281 34.0149 116.132C34.0149 116.132 28.9084 85.0635 30.185 83.2809C31.4616 81.4983 59.6749 80.0977 59.6749 80.0977Z" fill="#2F2E41"/>
<path d="M40.6533 19.2338L47.547 19.7431L49.8449 23.563C49.8449 23.563 55.2067 25.8549 55.9727 29.1655C56.7387 32.4761 56.994 71.1845 56.994 71.1845L60.8238 76.787L60.5685 81.6256L29.9297 83.1535V78.5015L27.1212 72.9671C27.1212 72.9671 30.185 28.6562 30.951 28.4015C31.717 28.1469 37.5894 24.0723 37.5894 24.0723L40.6533 19.2338Z" fill="#F2C808"/>
<path d="M43.7733 18.2861C48.5677 18.2861 52.4543 14.4096 52.4543 9.62769C52.4543 4.84576 48.5677 0.969238 43.7733 0.969238C38.9789 0.969238 35.0923 4.84576 35.0923 9.62769C35.0923 14.4096 38.9789 18.2861 43.7733 18.2861Z" fill="#A0616A"/>
<path d="M50.7074 2.66343C50.2657 1.41389 49.0402 0.655821 47.7121 0.685349C47.6558 0.686586 47.5996 0.686067 47.5439 0.683785C46.8751 0.65651 46.2331 0.428669 45.5773 0.295007C44.355 0.0458728 43.0663 0.129283 41.8865 0.533855C41.5198 0.659618 41.1527 0.81776 40.7649 0.817803C40.3771 0.817857 39.9548 0.605779 39.8602 0.230713C39.8377 0.570291 39.8153 0.909852 39.793 1.24941C39.6667 0.974579 39.5406 0.699727 39.4144 0.42488L39.1617 1.52094L38.3521 0.604914C38.4245 1.00867 38.1885 1.41561 37.8689 1.67374C37.5494 1.93189 37.1547 2.07469 36.7764 2.23552C35.1436 2.92969 33.6105 4.15871 33.1401 5.86571C32.8428 6.94419 32.9983 8.08878 33.1558 9.19615C33.295 10.1751 33.4464 11.1879 33.9799 12.0213C34.3219 12.5555 34.8149 13.005 35.0232 13.6039C35.2172 14.1621 35.1437 14.8012 35.4199 15.3239C35.6972 15.8489 36.2698 16.146 36.8301 16.3454C37.3904 16.545 37.9861 16.6861 38.4686 17.0332C38.9512 17.3804 39.5112 18.3806 40.5625 18.3267L40.9019 17.6909C41.2509 17.4072 39.9591 17.6321 39.9456 17.1832C39.9322 16.7344 41.5 16.457 41.2778 16.0664C40.937 15.4675 40.476 14.9462 40.092 14.3738C39.6429 13.7044 39.2898 12.9222 39.4447 12.1052C39.505 11.7874 39.6541 11.4871 39.8813 11.2563C40.5362 10.5907 41.2664 10.8833 41.976 10.9785C42.4651 11.0441 43.0492 10.9683 43.3032 10.5462C43.6003 10.0524 43.2692 9.42426 43.3097 8.8498C43.3526 8.24109 43.815 7.74195 44.3181 7.39492C44.8214 7.0479 45.3927 6.79506 45.8454 6.38462C46.2981 5.97414 46.6206 5.33288 46.4232 4.7553C48.569 3.86426 48.8975 3.77999 51.1571 4.32338C51.0494 3.75978 50.8986 3.20448 50.7074 2.66343Z" fill="#2F2E41"/>
<path d="M14.0591 113.404V87.1229C14.0591 86.4021 14.3671 85.7121 14.9042 85.2299C15.4413 84.7477 16.1614 84.5144 16.8803 84.59C23.5396 83.6965 29.8115 84.1214 35.4955 86.5478C36.1393 86.5478 36.6632 87.0702 36.6632 87.7124V114.086C36.6632 114.728 36.1393 115.25 35.4955 115.25C29.2387 113.787 22.6394 114.168 15.9098 115.25C14.8893 115.25 14.0591 114.422 14.0591 113.404Z" fill="#E6E6E6"/>
<path d="M14.0591 115.744V89.1846C14.0591 87.7802 15.2046 86.6377 16.6126 86.6377C22.9804 84.9759 29.2749 84.973 35.4955 86.6377C36.1394 86.6377 36.6632 87.1601 36.6632 87.8023V113.906C36.6632 114.547 36.1409 115.069 35.4984 115.07C29.3647 114.006 22.7943 115.042 15.9098 117.59C14.8893 117.59 14.0591 116.762 14.0591 115.744Z" fill="#F2F2F2"/>
<path d="M28.7634 97.6133H22.8089C20.6704 97.6133 18.9306 95.8783 18.9306 93.7453C18.9306 91.6124 20.6704 89.877 22.8089 89.877H28.7634C30.902 89.877 32.6418 91.6124 32.6418 93.7453C32.6418 95.8783 30.902 97.6133 28.7634 97.6133Z" fill="#E6E6E6"/>
<path d="M34.2207 45.448L33.9931 59.16C33.9931 59.16 33.2657 69.8463 31.4592 81.8723L27.1531 82.1463C27.1531 82.1463 27.6829 63.3692 27.4899 58.4283L27.7944 47.4543L34.2207 45.448Z" fill="#A0616A"/>
<path d="M29.7129 90.3718C31.3625 90.3158 32.6231 88.0242 32.5287 85.2533C32.4342 82.4824 31.0205 80.2814 29.371 80.3373C27.7214 80.3933 26.4608 82.6849 26.5552 85.4558C26.6497 88.2267 28.0634 90.4277 29.7129 90.3718Z" fill="#A0616A"/>
<path d="M34.1538 27.9911L30.8368 28.1116C30.8368 28.1116 29.0693 28.6854 28.6334 30.7399C28.1974 32.7944 25.1414 54.0562 25.6703 54.5467C26.1992 55.0371 26.7095 55.0186 26.2178 55.5461C25.726 56.0736 25.1218 56.0815 25.693 56.4501C26.2642 56.8186 26.0555 58.1003 26.0555 58.1003L35.2296 57.452L34.1538 27.9911Z" fill="#F2C808"/>
<path d="M253.002 150.498H164.747C164.235 150.498 163.728 150.42 163.24 150.266L163.188 150.245C135.554 136.547 111.86 129.071 90.7549 127.389L90.6746 127.373C88.5868 126.714 87.1841 124.804 87.1841 122.62V4.98924C87.1841 3.38302 87.9293 1.91728 89.2284 0.968056C90.5276 0.0188316 92.1532 -0.247522 93.6893 0.236419L163.458 22.2473C163.876 22.3791 164.31 22.4459 164.747 22.4459H253.002C255.758 22.4459 258 24.6821 258 27.4307V145.513C258 148.262 255.758 150.498 253.002 150.498ZM163.484 149.587C163.894 149.713 164.319 149.777 164.747 149.777H253.002C255.359 149.777 257.277 147.865 257.277 145.513V27.4307C257.277 25.0796 255.359 23.1669 253.002 23.1669H164.747C164.236 23.1669 163.729 23.0889 163.24 22.9349L93.4711 0.924045C92.1574 0.509288 90.7669 0.737792 89.6557 1.5497C88.5444 2.36179 87.9071 3.61539 87.9071 4.98924V122.62C87.9071 124.475 89.0896 126.099 90.8545 126.673C112.036 128.369 135.795 135.864 163.484 149.587Z" fill="#3F3D56"/>
<path d="M167.104 145.156C191.167 136.663 218.013 137.638 246.532 144.31C250.112 145.147 253.544 142.458 253.544 138.79V31.3095C253.544 28.6995 251.76 26.4174 249.218 25.7974C219.133 18.4596 191.032 17.1095 166.267 25.829C164.453 26.4678 162.439 26.1217 160.908 24.9593C140.04 9.11513 118.683 1.17099 96.6875 3.5298C93.8101 3.83838 91.6397 6.2842 91.6397 9.17066V117.824C91.6397 120.733 93.8467 123.166 96.7478 123.466C120.422 125.922 142.176 133.365 162.408 144.763C163.84 145.57 165.553 145.704 167.104 145.156Z" fill="#F2F2F2"/>
<path d="M166.331 139.129C164.692 139.129 163.078 138.68 161.656 137.799C144.665 127.274 126.154 121.126 106.637 119.524C102.061 119.149 98.4767 115.256 98.4767 110.662V17.8544C98.4767 13.0911 102.18 9.18799 106.909 8.96882C121.118 8.30795 138.372 14.6284 161.204 28.8526C163.135 30.0555 165.484 30.4126 167.648 29.8338C189.347 24.0244 212.868 23.8547 239.557 29.315C243.7 30.1628 246.707 33.8309 246.707 38.0371V128.626C246.707 131.359 245.475 133.899 243.325 135.592C241.16 137.298 238.374 137.909 235.681 137.27C210.434 131.276 188.754 131.709 169.401 138.595C168.396 138.952 167.359 139.129 166.331 139.129ZM108.937 9.64342C108.265 9.64342 107.601 9.65855 106.942 9.68919C102.601 9.8904 99.1996 13.4769 99.1996 17.8544V110.662C99.1996 114.883 102.492 118.461 106.696 118.805C126.328 120.417 144.948 126.601 162.037 137.186C164.164 138.504 166.759 138.769 169.158 137.916C188.646 130.982 210.461 130.541 235.848 136.568C238.325 137.156 240.886 136.595 242.877 135.026C244.852 133.47 245.984 131.138 245.984 128.626V38.0371C245.984 34.1717 243.22 30.8006 239.411 30.0213C212.835 24.5837 189.423 24.7502 167.835 30.5302C165.478 31.1608 162.922 30.7727 160.821 29.4641C139.184 15.9843 122.615 9.64342 108.937 9.64342Z" fill="white"/>
<path d="M164.69 30.3724L163.967 30.379L164.973 138.964L165.696 138.958L164.69 30.3724Z" fill="white"/>
<path d="M105.524 36.5708L105.297 37.2552L155.916 53.9605L156.143 53.2761L105.524 36.5708Z" fill="#3F3D56"/>
<path d="M105.524 49.935L105.297 50.6194L155.916 67.3247L156.143 66.6402L105.524 49.935Z" fill="#3F3D56"/>
<path d="M105.524 63.2992L105.297 63.9836L155.916 80.6889L156.143 80.0045L105.524 63.2992Z" fill="#3F3D56"/>
<path d="M237.54 65.8794H176.872V66.6005H237.54V65.8794Z" fill="#3F3D56"/>
<path d="M237.54 78.5013H176.872V79.2224H237.54V78.5013Z" fill="#3F3D56"/>
<path d="M237.54 91.1229H176.872V91.844H237.54V91.1229Z" fill="#3F3D56"/>
<path d="M237.54 103.745H176.872V104.466H237.54V103.745Z" fill="#3F3D56"/>
<path d="M19.6132 157.751C18.8665 157.798 18.4537 156.872 19.0187 156.333L19.0749 156.11C19.0675 156.092 19.0601 156.074 19.0526 156.056C18.2974 154.26 15.7379 154.273 14.9891 156.071C14.3245 157.668 13.4784 159.267 13.27 160.955C13.1766 161.7 13.2186 162.46 13.3844 163.191C11.8272 159.798 11.0077 156.093 11.0077 152.367C11.0077 151.431 11.059 150.495 11.1641 149.561C11.2505 148.797 11.3696 148.038 11.5237 147.286C12.3571 143.22 14.1619 139.348 16.7651 136.113C18.0165 135.431 19.0601 134.364 19.6905 133.086C19.9169 132.625 20.0944 132.129 20.1784 131.623C20.036 131.642 19.6415 129.479 19.7489 129.346C19.5504 129.046 19.1952 128.896 18.9784 128.603C17.9004 127.145 16.4151 127.4 15.6397 129.381C13.9834 130.215 13.9673 131.598 14.9837 132.928C15.6303 133.774 15.7191 134.919 16.2865 135.824C16.2281 135.899 16.1674 135.971 16.109 136.046C15.0387 137.415 14.1129 138.887 13.3325 140.433C13.5531 138.714 13.2274 136.644 12.6723 135.31C12.0404 133.789 10.8559 132.509 9.81288 131.194C8.56001 129.615 5.99087 130.304 5.77014 132.306C5.76801 132.325 5.76593 132.345 5.76389 132.364C5.91881 132.451 6.07059 132.544 6.21885 132.642C7.06452 133.199 6.77226 134.507 5.77024 134.661L5.74755 134.665C5.80359 135.221 5.89931 135.773 6.03938 136.316C4.70127 141.477 7.59015 143.357 11.7151 143.441C11.8061 143.488 11.8949 143.535 11.9859 143.579C11.568 144.752 11.2341 145.956 10.9867 147.177C10.7649 148.255 10.6108 149.345 10.5244 150.439C10.417 151.82 10.4263 153.208 10.5431 154.586L10.5361 154.537C10.2396 153.019 9.41306 151.601 8.213 150.618C6.42528 149.154 3.89958 148.614 1.97095 147.437C1.04256 146.87 -0.147093 147.602 0.0149341 148.676L0.0228215 148.727C0.309988 148.844 0.590146 148.979 0.860978 149.13C1.01591 149.217 1.16768 149.31 1.31594 149.408C2.16161 149.966 1.86935 151.273 0.867329 151.428L0.844621 151.431C0.828282 151.433 0.814268 151.436 0.797951 151.438C1.29058 152.605 1.97697 153.687 2.83614 154.621C3.67282 159.127 7.26639 159.554 11.1104 158.242H11.1127C11.533 160.068 12.147 161.852 12.9362 163.552H19.45C19.4734 163.479 19.4944 163.405 19.5154 163.333C18.913 163.37 18.306 163.335 17.713 163.226C18.1963 162.634 18.6795 162.038 19.1628 161.447C19.1745 161.435 19.1839 161.423 19.1932 161.412C19.4383 161.109 19.6858 160.809 19.931 160.506L19.9311 160.505C19.9464 159.576 19.8345 158.65 19.6132 157.751Z" fill="#F2F2F2"/>
<path d="M92.469 163.571C92.469 163.809 92.2774 164 92.0388 164H0.480815C0.242252 164 0.0506592 163.809 0.0506592 163.571C0.0506592 163.333 0.242252 163.142 0.480815 163.142H92.0388C92.2774 163.142 92.469 163.333 92.469 163.571Z" fill="#CCCCCC"/>
<path d="M240.088 140.764C244.68 140.764 248.402 137.051 248.402 132.471C248.402 127.892 244.68 124.179 240.088 124.179C235.496 124.179 231.774 127.892 231.774 132.471C231.774 137.051 235.496 140.764 240.088 140.764Z" fill="#F2C808"/>
<path d="M243.981 132.159L238.823 129.188C238.582 129.049 238.281 129.223 238.281 129.5V132.111H236.733C236.534 132.111 236.372 132.272 236.372 132.471C236.372 132.67 236.534 132.832 236.733 132.832H238.281V135.442C238.281 135.72 238.582 135.893 238.823 135.754L243.981 132.783C244.222 132.645 244.222 132.298 243.981 132.159Z" fill="white"/>
<path d="M121.697 109.097C122.021 105.401 123.559 101.871 126.021 99.093C128.419 96.3867 131.697 94.5303 135.232 93.774C137.205 93.3518 139.25 93.2694 141.248 93.5538C141.726 93.6219 141.713 94.3795 141.23 94.3107C137.829 93.8266 134.314 94.418 131.258 95.9844C128.125 97.5899 125.618 100.201 124.069 103.35C123.184 105.151 122.631 107.116 122.456 109.114C122.414 109.598 121.655 109.583 121.697 109.097Z" fill="white"/>
<path d="M140.406 90.5154L146.249 93.3903C146.461 93.4949 146.496 93.8401 146.315 93.989L140.785 98.5489C140.41 98.8575 139.884 98.3122 140.261 98.0012L145.792 93.4412L145.858 94.0398L140.016 91.1649C139.577 90.949 139.971 90.3012 140.406 90.5154Z" fill="white"/>
<path d="M208.058 53.9997C207.729 53.9986 207.402 53.9567 207.084 53.875L207.021 53.8578L206.963 53.829C204.862 52.7851 203.088 51.4064 201.693 49.7311C200.538 48.3361 199.638 46.7522 199.032 45.0507C198.308 43.0136 197.96 40.8641 198.004 38.7048C198.005 38.6595 198.005 38.6245 198.005 38.6004C198.005 37.5507 198.594 36.6298 199.504 36.2541C200.201 35.9665 206.526 33.3929 206.983 33.207C207.844 32.7798 208.762 33.1363 208.909 33.1987C209.239 33.3322 215.086 35.7013 216.35 36.2973C217.653 36.9116 218 38.0152 218 38.5704C218 41.0841 217.56 43.4333 216.694 45.5528C215.994 47.2684 215.002 48.8522 213.76 50.2352C211.366 52.9044 208.971 53.8506 208.948 53.8589C208.661 53.9565 208.36 54.0041 208.058 53.9997ZM207.494 52.6177C207.702 52.6638 208.18 52.733 208.492 52.6204C208.888 52.4774 210.892 51.4477 212.766 49.3595C215.354 46.4744 216.667 42.8475 216.669 38.5797C216.664 38.4932 216.602 37.8765 215.778 37.4876C214.539 36.9031 208.461 34.4413 208.399 34.4165L208.383 34.4094C208.255 34.3566 207.85 34.2452 207.57 34.3903L207.514 34.4161C207.447 34.4437 200.732 37.1754 200.016 37.471C199.515 37.6778 199.336 38.19 199.336 38.6004C199.336 38.6304 199.336 38.674 199.334 38.7304C199.277 41.6506 199.959 48.8364 207.494 52.6177Z" fill="#3F3D56"/>
<path d="M208.058 53.9997C207.729 53.9986 207.402 53.9567 207.084 53.875L207.021 53.8578L206.963 53.829C204.862 52.7851 203.088 51.4064 201.693 49.7311C200.538 48.3361 199.638 46.7522 199.032 45.0507C198.308 43.0136 197.96 40.8641 198.004 38.7048C198.005 38.6595 198.005 38.6245 198.005 38.6004C198.005 37.5507 198.594 36.6298 199.504 36.2541C200.201 35.9665 206.526 33.3929 206.983 33.207C207.844 32.7798 208.762 33.1363 208.909 33.1987C209.239 33.3322 215.086 35.7013 216.35 36.2973C217.653 36.9116 218 38.0152 218 38.5704C218 41.0841 217.56 43.4333 216.694 45.5528C215.994 47.2684 215.002 48.8522 213.76 50.2352C211.366 52.9044 208.971 53.8506 208.948 53.8589C208.661 53.9565 208.36 54.0041 208.058 53.9997ZM207.494 52.6177C207.702 52.6638 208.18 52.733 208.492 52.6204C208.888 52.4774 210.892 51.4477 212.766 49.3595C215.354 46.4744 216.667 42.8475 216.669 38.5797C216.664 38.4932 216.602 37.8765 215.778 37.4876C214.539 36.9031 208.461 34.4413 208.399 34.4165L208.383 34.4094C208.255 34.3566 207.85 34.2452 207.57 34.3903L207.514 34.4161C207.447 34.4437 200.732 37.1754 200.016 37.471C199.515 37.6778 199.336 38.19 199.336 38.6004C199.336 38.6304 199.336 38.674 199.334 38.7304C199.277 41.6506 199.959 48.8364 207.494 52.6177Z" fill="#3F3D56"/>
<path d="M207.288 34.1489C207.288 34.1489 200.756 36.9501 200.056 37.2546C199.356 37.5591 199.006 38.2899 199.006 39.0206C199.006 39.7514 198.481 49.287 207.288 53.8974C207.288 53.8974 208.088 54.1283 208.694 53.8974C209.301 53.6664 217 49.769 217 38.9902C217 38.9902 217 37.894 215.775 37.2851C214.55 36.6761 208.628 34.1489 208.628 34.1489C208.628 34.1489 207.901 33.8139 207.288 34.1489Z" fill="#F2C808"/>
<path d="M207.288 34.1489C207.288 34.1489 200.756 36.9501 200.056 37.2546C199.356 37.5591 199.006 38.2899 199.006 39.0206C199.006 39.7514 198.481 49.287 207.288 53.8974C207.288 53.8974 208.088 54.1283 208.694 53.8974C209.301 53.6664 217 49.769 217 38.9902C217 38.9902 217 37.894 215.775 37.2851C214.55 36.6761 208.628 34.1489 208.628 34.1489C208.628 34.1489 207.901 33.8139 207.288 34.1489Z" fill="#F2C808"/>
<path opacity="0.1" d="M208 36V51C208 51 200.938 47.6751 201 38.9341L208 36Z" fill="black"/>
<path d="M210.17 42.8279V41.6732C210.171 41.4535 210.128 41.236 210.044 41.033C209.96 40.83 209.837 40.6455 209.682 40.4901C209.527 40.3348 209.342 40.2115 209.14 40.1274C208.937 40.0433 208.719 40 208.5 40C208.281 40 208.063 40.0433 207.86 40.1274C207.658 40.2115 207.473 40.3348 207.318 40.4901C207.163 40.6455 207.04 40.83 206.956 41.033C206.872 41.236 206.829 41.4535 206.83 41.6732V42.8279C206.606 42.838 206.395 42.9338 206.241 43.0955C206.086 43.2572 206 43.4722 206 43.696V46.4247H211V43.696C211 43.4722 210.914 43.2572 210.759 43.0955C210.605 42.9338 210.394 42.838 210.17 42.8279ZM208.5 40.5899C208.787 40.5902 209.062 40.7045 209.265 40.9076C209.468 41.1107 209.582 41.386 209.582 41.6732V42.8259H207.418V41.6732C207.418 41.386 207.532 41.1107 207.735 40.9076C207.938 40.7045 208.213 40.5902 208.5 40.5899Z" fill="#1751A5"/>
<path d="M208.92 44.2029C208.92 44.1254 208.9 44.0491 208.862 43.9816C208.824 43.914 208.769 43.8575 208.702 43.8175C208.636 43.7774 208.56 43.7553 208.483 43.7531C208.405 43.7509 208.329 43.7689 208.26 43.8051C208.192 43.8414 208.134 43.8948 208.092 43.9601C208.05 44.0254 208.026 44.1004 208.022 44.1778C208.017 44.2553 208.033 44.3325 208.067 44.402C208.102 44.4716 208.153 44.531 208.217 44.5747V45.5525H208.723V44.5747C208.784 44.5335 208.833 44.4781 208.868 44.4133C208.902 44.3485 208.92 44.2762 208.92 44.2029Z" fill="#F2C808"/>
<path fill-rule="evenodd" clip-rule="evenodd" d="M132.69 38.4107C133.236 38.5572 133.561 39.1187 133.414 39.6651C133.268 40.2112 132.706 40.5354 132.159 40.3889C131.613 40.2424 131.288 39.6808 131.435 39.1346C131.581 38.5882 132.143 38.2643 132.69 38.4107Z" fill="#A97D34"/>
<path fill-rule="evenodd" clip-rule="evenodd" d="M125.397 38.5776L127.209 31.8162L132.651 33.2743L132.224 34.8681L128.638 33.9072L128.364 34.9311L131.95 35.892L131.554 37.3697L127.968 36.4088L127.68 37.481L131.266 38.4419L130.839 40.0358L125.397 38.5776Z" fill="#14477A"/>
<path fill-rule="evenodd" clip-rule="evenodd" d="M133.855 37.9863L132.496 35.6334L133.096 33.3937L134.335 33.7255L136.672 38.1824L137.029 36.8481L138.388 39.201L137.674 41.8671L136.701 41.6066L134.134 36.9432L133.855 37.9863Z" fill="#25B3B5"/>
<path fill-rule="evenodd" clip-rule="evenodd" d="M140.055 37.018L137.19 36.2503L137.63 34.6083L144.4 36.4224L143.96 38.0644L141.93 37.5205L140.91 41.3293C140.714 42.0607 139.706 42.4116 138.683 42.1375L140.055 37.018Z" fill="#14477A"/>
</g>
<defs>
<clipPath id="clip0_140_260">
<rect width="258" height="164" fill="white"/>
</clipPath>
</defs>
</svg>
