<svg width="250" height="135" viewBox="0 0 250 135" fill="none" xmlns="http://www.w3.org/2000/svg">
<g clip-path="url(#clip0_125_153)">
<path d="M15.8351 112.748L15.0553 116.662C14.9966 116.961 14.9352 117.266 14.8684 117.568C14.2166 117.432 13.5409 117.47 12.9082 117.677C13.4101 118.395 13.86 119.147 14.2542 119.929C13.7628 121.444 13.0417 122.844 11.8346 123.857C11.0284 124.518 10.0655 124.96 9.03878 125.141C8.01203 125.321 6.95608 125.234 5.97275 124.888L6.00747 124.733C4.70957 122.214 5.4146 119.037 7.02762 116.71C7.85033 115.562 8.82509 114.531 9.92519 113.645C11.0148 112.737 12.1925 111.922 13.3595 111.118C13.6216 110.938 13.9316 110.84 14.2496 110.836C14.5677 110.833 14.8796 110.925 15.1453 111.1C15.4111 111.275 15.6186 111.525 15.7415 111.819C15.8644 112.112 15.897 112.436 15.8351 112.748Z" fill="#E4E4E4"/>
<path d="M6.25045 134.306C5.92224 131.914 5.58468 129.491 5.81488 127.074C6.01944 124.927 6.674 122.83 8.00715 121.11C8.71472 120.199 9.57571 119.419 10.5514 118.804C10.8059 118.643 11.0398 119.047 10.7867 119.206C9.09854 120.274 7.79282 121.85 7.05776 123.707C6.24591 125.773 6.11559 128.025 6.25659 130.219C6.34125 131.546 6.52044 132.864 6.70124 134.181C6.7158 134.241 6.70704 134.304 6.67676 134.357C6.64647 134.411 6.59696 134.45 6.53834 134.468C6.47871 134.485 6.41514 134.476 6.36144 134.446C6.30774 134.415 6.26824 134.365 6.25152 134.305L6.25045 134.306Z" fill="#F2F2F2"/>
<path d="M9.06718 14.3294C20.5072 14.1304 31.9484 14.1018 43.3908 14.2437C54.8316 14.3864 66.2685 14.7002 77.7016 15.1852C84.1172 15.4574 90.5302 15.7835 96.9406 16.1635C97.4556 16.194 97.4538 15.3923 96.9406 15.362C85.5189 14.6858 74.0888 14.1799 62.6504 13.8441C51.2136 13.5093 39.7736 13.3457 28.3302 13.3533C21.9088 13.3576 15.4878 13.4158 9.06718 13.5279C8.55221 13.5369 8.55058 14.3384 9.06718 14.3294Z" fill="#E6E6E6"/>
<path d="M88.793 9.30373L93.7954 8.93126C94.3064 8.89321 94.3106 8.09139 93.7954 8.12975L88.793 8.50222C88.282 8.54027 88.2779 9.34209 88.793 9.30373Z" fill="#E6E6E6"/>
<path d="M88.793 14.1128L93.7954 13.7403C94.3064 13.7023 94.3106 12.9005 93.7954 12.9388L88.793 13.3113C88.282 13.3494 88.2779 14.1512 88.793 14.1128Z" fill="#E6E6E6"/>
<path d="M88.4167 11.9166L95.529 12.563C96.0423 12.6097 96.0391 11.8079 95.529 11.7615L88.4167 11.1151C87.9035 11.0685 87.9066 11.8703 88.4167 11.9166Z" fill="#E6E6E6"/>
<path d="M12.0277 8.22574C11.6798 8.22359 11.339 8.32392 11.0477 8.51422C10.7565 8.70453 10.5276 8.97638 10.3898 9.2959C10.2355 9.60863 10.1879 9.96329 10.2542 10.3056C10.3205 10.648 10.497 10.9592 10.7569 11.1917C11.0011 11.3996 11.294 11.5421 11.6083 11.606C11.9226 11.6699 12.2479 11.653 12.5538 11.5569C12.8667 11.4476 13.1381 11.2439 13.3305 10.9739C13.5229 10.704 13.6269 10.3809 13.6283 10.0494C13.6423 9.68149 13.5426 9.31824 13.343 9.00901C13.1433 8.69978 12.8533 8.45956 12.5124 8.32104C12.4099 8.2932 12.3007 8.307 12.2084 8.35943C12.1161 8.41186 12.0482 8.49867 12.0196 8.60094C11.9943 8.70332 12.0093 8.81149 12.0613 8.9032C12.1134 8.9949 12.1986 9.06316 12.2994 9.09392C12.3692 9.1209 12.2356 9.05958 12.3008 9.09511C12.3276 9.10972 12.3549 9.12292 12.3812 9.13852C12.4036 9.15178 12.425 9.16629 12.4468 9.1805C12.5216 9.22933 12.4103 9.14466 12.4581 9.18855C12.4995 9.22661 12.5406 9.26375 12.5783 9.30576C12.5925 9.32164 12.6483 9.36579 12.605 9.33493C12.5718 9.31132 12.5922 9.31687 12.605 9.33583C12.6147 9.35022 12.6249 9.36422 12.6345 9.3787C12.6657 9.42598 12.6941 9.47508 12.7195 9.52573C12.7254 9.53745 12.7308 9.54945 12.7368 9.56112C12.748 9.58297 12.7643 9.5887 12.7379 9.56132C12.7127 9.53516 12.7287 9.53695 12.7378 9.56212C12.7437 9.57867 12.7501 9.59501 12.7559 9.61161C12.7747 9.66567 12.7905 9.72073 12.8031 9.77654C12.809 9.80233 12.8137 9.82828 12.8188 9.85423C12.8367 9.94627 12.8162 9.79702 12.8205 9.86538C12.8241 9.92246 12.8283 9.97893 12.8273 10.0362C12.8269 10.0625 12.8257 10.0887 12.8239 10.1148C12.823 10.1279 12.8215 10.1409 12.8207 10.1539C12.8165 10.2168 12.8164 10.1309 12.8252 10.1251C12.8069 10.1785 12.7947 10.2338 12.789 10.2899C12.7818 10.3148 12.7733 10.3392 12.7653 10.3638C12.7374 10.4498 12.7915 10.317 12.7618 10.3757C12.7373 10.4262 12.71 10.4753 12.6799 10.5226C12.6669 10.5424 12.6177 10.5872 12.6579 10.5561C12.7016 10.5222 12.635 10.5805 12.6208 10.5955C12.6026 10.6147 12.5836 10.6333 12.564 10.6512C12.5514 10.6635 12.5382 10.675 12.5243 10.6858C12.5217 10.6845 12.5912 10.6393 12.5537 10.6632C12.5061 10.6936 12.4611 10.7261 12.4109 10.7525C12.4051 10.7556 12.3409 10.7853 12.3412 10.7864C12.3384 10.7756 12.4237 10.7564 12.3652 10.7753C12.3529 10.7792 12.3408 10.784 12.3286 10.7882C12.2753 10.8061 12.221 10.8206 12.1659 10.8315C12.1532 10.834 12.1399 10.8353 12.1275 10.8385C12.0861 10.8493 12.167 10.8323 12.1695 10.8337C12.1389 10.8323 12.1082 10.8351 12.0783 10.8417C12.0215 10.845 11.9645 10.845 11.9077 10.8417C11.8945 10.841 11.8814 10.8397 11.8682 10.8389C11.8377 10.8371 11.8153 10.8151 11.8559 10.839C11.8873 10.8574 11.8847 10.844 11.8569 10.8389C11.8439 10.8364 11.8309 10.8344 11.8179 10.832C11.7616 10.8215 11.706 10.8078 11.6513 10.7912C11.6218 10.7822 11.5929 10.7717 11.5639 10.7616C11.5512 10.7579 11.5389 10.7531 11.527 10.7474C11.5268 10.7441 11.6019 10.7833 11.5623 10.7619C11.5122 10.7349 11.4605 10.7123 11.4116 10.6828C11.3856 10.6671 11.3605 10.65 11.3352 10.6331C11.324 10.6264 11.3134 10.6188 11.3035 10.6104C11.3043 10.607 11.3656 10.6638 11.3334 10.6332C11.2927 10.5944 11.2492 10.5597 11.2107 10.5184C11.2019 10.5089 11.1935 10.499 11.1848 10.4896L11.1763 10.4799C11.1546 10.4533 11.1541 10.4534 11.1751 10.4802C11.1963 10.4865 11.1953 10.5098 11.1752 10.4795C11.168 10.4687 11.1604 10.4583 11.1532 10.4475C11.1207 10.4011 11.0929 10.3515 11.0704 10.2995C11.0724 10.298 11.1051 10.396 11.0801 10.3221C11.0753 10.3081 11.07 10.2944 11.0654 10.2804C11.0562 10.2526 11.0481 10.2245 11.0411 10.1961C11.0341 10.168 11.0306 10.139 11.0236 10.111C11.0118 10.0638 11.0305 10.1482 11.0284 10.1461C11.0217 10.1395 11.0245 10.0986 11.024 10.0888C11.0208 10.0259 11.028 9.9649 11.0291 9.90239C11.03 9.85397 11.0251 9.94013 11.0241 9.9376C11.0243 9.9231 11.0269 9.90873 11.0317 9.89504C11.0389 9.86207 11.0457 9.82914 11.0546 9.79654C11.0647 9.75921 11.0764 9.72234 11.0897 9.68593C11.0946 9.67231 11.1006 9.65888 11.1052 9.64514C11.1221 9.59482 11.0719 9.70592 11.0996 9.66054C11.1377 9.59811 11.1661 9.53054 11.2065 9.46888C11.2161 9.45427 11.2744 9.37285 11.2435 9.41396C11.2127 9.4549 11.2751 9.3773 11.287 9.36412C11.3361 9.30938 11.3939 9.26444 11.4448 9.21203C11.4749 9.181 11.4237 9.22731 11.4207 9.22946C11.4365 9.2182 11.4519 9.20651 11.4679 9.19552C11.4957 9.17634 11.5242 9.15821 11.5533 9.14112C11.5862 9.12185 11.6234 9.1075 11.6552 9.08711C11.6929 9.06302 11.6264 9.09768 11.6253 9.09841C11.6424 9.08987 11.6604 9.08302 11.6789 9.07794C11.7099 9.06694 11.8448 9.0087 11.8731 9.02691C11.8719 9.02609 11.7707 9.03506 11.8525 9.0298C11.8718 9.02856 11.891 9.02668 11.9104 9.02587C11.9495 9.02425 11.9886 9.02523 12.0277 9.02726C12.1337 9.02657 12.2352 8.98412 12.3102 8.90912C12.3851 8.83411 12.4276 8.73258 12.4283 8.62651C12.426 8.52093 12.383 8.42031 12.3084 8.34564C12.2338 8.27097 12.1332 8.22801 12.0277 8.22574Z" fill="#E6E6E6"/>
<path d="M17.6358 8.22574C17.288 8.22359 16.9472 8.32392 16.6559 8.51422C16.3646 8.70453 16.1358 8.97638 15.9979 9.2959C15.8437 9.60863 15.7961 9.96329 15.8624 10.3056C15.9287 10.648 16.1052 10.9592 16.365 11.1917C16.6093 11.3996 16.9022 11.5421 17.2165 11.606C17.5307 11.6699 17.856 11.653 18.162 11.5569C18.4749 11.4476 18.7463 11.2439 18.9387 10.9739C19.1311 10.704 19.2351 10.3809 19.2365 10.0494C19.2504 9.68149 19.1508 9.31824 18.9512 9.00901C18.7515 8.69978 18.4615 8.45956 18.1206 8.32104C18.0181 8.2932 17.9089 8.307 17.8165 8.35943C17.7242 8.41186 17.6564 8.49867 17.6278 8.60094C17.6025 8.70332 17.6175 8.81149 17.6695 8.9032C17.7216 8.9949 17.8068 9.06316 17.9076 9.09392C17.9774 9.1209 17.8438 9.05958 17.909 9.09511C17.9358 9.10972 17.9631 9.12292 17.9894 9.13852C18.0118 9.15178 18.0332 9.16629 18.055 9.1805C18.1298 9.22933 18.0185 9.14466 18.0663 9.18855C18.1077 9.22661 18.1488 9.26375 18.1865 9.30576C18.2007 9.32164 18.2565 9.36579 18.2132 9.33493C18.18 9.31132 18.2004 9.31687 18.2131 9.33583C18.2228 9.35022 18.2331 9.36422 18.2427 9.3787C18.2739 9.42598 18.3023 9.47508 18.3277 9.52573C18.3336 9.53745 18.339 9.54945 18.345 9.56112C18.3562 9.58297 18.3724 9.5887 18.3461 9.56132C18.3209 9.53516 18.3369 9.53695 18.3459 9.56212C18.3519 9.57867 18.3583 9.59501 18.3641 9.61161C18.3829 9.66567 18.3987 9.72073 18.4113 9.77654C18.4172 9.80233 18.4219 9.82828 18.427 9.85423C18.4449 9.94627 18.4244 9.79702 18.4287 9.86538C18.4323 9.92246 18.4365 9.97893 18.4355 10.0362C18.4351 10.0625 18.4339 10.0887 18.4321 10.1148C18.4312 10.1279 18.4297 10.1409 18.4289 10.1539C18.4247 10.2168 18.4246 10.1309 18.4334 10.1251C18.4151 10.1785 18.4029 10.2338 18.3972 10.2899C18.39 10.3148 18.3815 10.3392 18.3735 10.3638C18.3456 10.4498 18.3997 10.317 18.37 10.3757C18.3455 10.4262 18.3182 10.4753 18.2881 10.5226C18.2751 10.5424 18.2258 10.5872 18.2661 10.5561C18.3098 10.5222 18.2432 10.5805 18.229 10.5955C18.2107 10.6147 18.1918 10.6333 18.1722 10.6512C18.1596 10.6635 18.1463 10.675 18.1324 10.6858C18.1299 10.6845 18.1994 10.6393 18.1619 10.6632C18.1143 10.6936 18.0693 10.7261 18.0191 10.7525C18.0133 10.7556 17.9491 10.7853 17.9494 10.7864C17.9466 10.7756 18.0318 10.7564 17.9733 10.7753C17.9611 10.7792 17.949 10.784 17.9368 10.7882C17.8835 10.8061 17.8292 10.8206 17.774 10.8315C17.7614 10.834 17.7481 10.8353 17.7357 10.8385C17.6942 10.8493 17.7752 10.8323 17.7777 10.8337C17.747 10.8323 17.7164 10.8351 17.6865 10.8417C17.6297 10.845 17.5727 10.845 17.5158 10.8417C17.5027 10.841 17.4896 10.8397 17.4764 10.8389C17.4459 10.8371 17.4235 10.8151 17.4641 10.839C17.4955 10.8574 17.4929 10.844 17.4651 10.8389C17.4521 10.8364 17.4391 10.8344 17.4261 10.832C17.3698 10.8215 17.3142 10.8078 17.2594 10.7912C17.23 10.7822 17.2011 10.7717 17.172 10.7616C17.1594 10.7579 17.147 10.7531 17.1352 10.7474C17.135 10.7441 17.2101 10.7833 17.1705 10.7619C17.1204 10.7349 17.0687 10.7123 17.0198 10.6828C16.9937 10.6671 16.9687 10.65 16.9433 10.6331C16.9322 10.6264 16.9216 10.6188 16.9116 10.6104C16.9125 10.607 16.9737 10.6638 16.9416 10.6332C16.9009 10.5944 16.8574 10.5597 16.8189 10.5184C16.8101 10.5089 16.8017 10.499 16.7929 10.4896L16.7844 10.4799C16.7627 10.4533 16.7623 10.4534 16.7832 10.4802C16.8045 10.4865 16.8035 10.5098 16.7834 10.4795C16.7762 10.4687 16.7686 10.4583 16.7614 10.4475C16.7289 10.4011 16.7011 10.3515 16.6786 10.2995C16.6805 10.298 16.7133 10.396 16.6882 10.3221C16.6835 10.3081 16.6782 10.2944 16.6736 10.2804C16.6644 10.2526 16.6563 10.2245 16.6493 10.1961C16.6423 10.168 16.6388 10.139 16.6318 10.111C16.62 10.0638 16.6387 10.1482 16.6365 10.1461C16.6299 10.1395 16.6327 10.0986 16.6322 10.0888C16.629 10.0259 16.6362 9.9649 16.6373 9.90239C16.6382 9.85397 16.6333 9.94013 16.6323 9.9376C16.6325 9.9231 16.6351 9.90873 16.6399 9.89504C16.6471 9.86207 16.6539 9.82914 16.6628 9.79654C16.6729 9.75921 16.6846 9.72234 16.6979 9.68593C16.7028 9.67231 16.7088 9.65888 16.7134 9.64514C16.7303 9.59482 16.6801 9.70592 16.7078 9.66054C16.7459 9.59811 16.7743 9.53054 16.8147 9.46888C16.8243 9.45427 16.8826 9.37285 16.8517 9.41396C16.8208 9.4549 16.8833 9.3773 16.8952 9.36412C16.9443 9.30938 17.0021 9.26444 17.053 9.21203C17.0831 9.181 17.0319 9.22731 17.0289 9.22946C17.0447 9.2182 17.0601 9.20651 17.0761 9.19552C17.1039 9.17634 17.1324 9.15821 17.1615 9.14112C17.1944 9.12185 17.2316 9.1075 17.2634 9.08711C17.301 9.06302 17.2346 9.09768 17.2334 9.09841C17.2506 9.08987 17.2686 9.08302 17.2871 9.07794C17.3181 9.06694 17.453 9.0087 17.4813 9.02691C17.48 9.02609 17.3789 9.03506 17.4607 9.0298C17.48 9.02856 17.4992 9.02668 17.5186 9.02587C17.5577 9.02425 17.5967 9.02523 17.6359 9.02726C17.7419 9.02657 17.8434 8.98412 17.9183 8.90912C17.9933 8.83411 18.0357 8.73258 18.0364 8.62651C18.0342 8.52093 17.9912 8.42031 17.9166 8.34564C17.842 8.27097 17.7414 8.22801 17.6358 8.22574Z" fill="#E6E6E6"/>
<path d="M23.244 8.22574C22.8962 8.22359 22.5554 8.32392 22.2641 8.51422C21.9728 8.70453 21.744 8.97638 21.6061 9.2959C21.4519 9.60863 21.4043 9.96329 21.4706 10.3056C21.5369 10.648 21.7134 10.9592 21.9732 11.1917C22.2175 11.3996 22.5104 11.5421 22.8247 11.606C23.1389 11.6699 23.4642 11.653 23.7702 11.5569C24.0831 11.4476 24.3545 11.2439 24.5469 10.9739C24.7393 10.704 24.8433 10.3809 24.8447 10.0494C24.8586 9.68149 24.759 9.31824 24.5594 9.00901C24.3597 8.69978 24.0697 8.45956 23.7288 8.32104C23.6263 8.2932 23.5171 8.307 23.4247 8.35943C23.3324 8.41186 23.2646 8.49867 23.236 8.60094C23.2107 8.70332 23.2257 8.81149 23.2777 8.9032C23.3298 8.9949 23.415 9.06316 23.5158 9.09392C23.5856 9.1209 23.452 9.05958 23.5172 9.09511C23.544 9.10972 23.5713 9.12292 23.5976 9.13852C23.62 9.15178 23.6414 9.16629 23.6632 9.1805C23.738 9.22933 23.6267 9.14466 23.6745 9.18855C23.7159 9.22661 23.757 9.26375 23.7947 9.30576C23.8089 9.32164 23.8647 9.36579 23.8214 9.33493C23.7882 9.31132 23.8086 9.31687 23.8213 9.33583C23.831 9.35022 23.8413 9.36422 23.8509 9.3787C23.8821 9.42598 23.9105 9.47508 23.9359 9.52573C23.9418 9.53745 23.9472 9.54945 23.9532 9.56112C23.9644 9.58297 23.9806 9.5887 23.9543 9.56132C23.9291 9.53516 23.9451 9.53695 23.9541 9.56212C23.9601 9.57867 23.9665 9.59501 23.9723 9.61161C23.9911 9.66567 24.0069 9.72073 24.0195 9.77654C24.0254 9.80233 24.0301 9.82828 24.0352 9.85423C24.0531 9.94627 24.0326 9.79702 24.0369 9.86538C24.0405 9.92246 24.0447 9.97893 24.0437 10.0362C24.0433 10.0625 24.0421 10.0887 24.0403 10.1148C24.0394 10.1279 24.0379 10.1409 24.0371 10.1539C24.0329 10.2168 24.0328 10.1309 24.0416 10.1251C24.0233 10.1785 24.0111 10.2338 24.0054 10.2899C23.9982 10.3148 23.9897 10.3392 23.9817 10.3638C23.9538 10.4498 24.0079 10.317 23.9782 10.3757C23.9537 10.4262 23.9264 10.4753 23.8963 10.5226C23.8833 10.5424 23.834 10.5872 23.8743 10.5561C23.918 10.5222 23.8514 10.5805 23.8372 10.5955C23.8189 10.6147 23.8 10.6333 23.7804 10.6512C23.7678 10.6635 23.7545 10.675 23.7406 10.6858C23.7381 10.6845 23.8076 10.6393 23.7701 10.6632C23.7225 10.6936 23.6775 10.7261 23.6273 10.7525C23.6215 10.7556 23.5573 10.7853 23.5576 10.7864C23.5548 10.7756 23.64 10.7564 23.5815 10.7753C23.5693 10.7792 23.5572 10.784 23.545 10.7882C23.4917 10.8061 23.4374 10.8206 23.3822 10.8315C23.3696 10.834 23.3563 10.8353 23.3439 10.8385C23.3024 10.8493 23.3834 10.8323 23.3859 10.8337C23.3552 10.8323 23.3246 10.8351 23.2947 10.8417C23.2379 10.845 23.1809 10.845 23.124 10.8417C23.1109 10.841 23.0978 10.8397 23.0846 10.8389C23.0541 10.8371 23.0317 10.8151 23.0723 10.839C23.1037 10.8574 23.1011 10.844 23.0733 10.8389C23.0603 10.8364 23.0473 10.8344 23.0343 10.832C22.978 10.8215 22.9224 10.8078 22.8676 10.7912C22.8382 10.7822 22.8093 10.7717 22.7802 10.7616C22.7676 10.7579 22.7552 10.7531 22.7434 10.7474C22.7432 10.7441 22.8183 10.7833 22.7787 10.7619C22.7286 10.7349 22.6769 10.7123 22.628 10.6828C22.6019 10.6671 22.5769 10.65 22.5515 10.6331C22.5404 10.6264 22.5298 10.6188 22.5198 10.6104C22.5207 10.607 22.5819 10.6638 22.5498 10.6332C22.5091 10.5944 22.4656 10.5597 22.4271 10.5184C22.4183 10.5089 22.4099 10.499 22.4011 10.4896L22.3926 10.4799C22.3709 10.4533 22.3705 10.4534 22.3914 10.4802C22.4127 10.4865 22.4117 10.5098 22.3916 10.4795C22.3844 10.4687 22.3768 10.4583 22.3696 10.4475C22.3371 10.4011 22.3093 10.3515 22.2868 10.2995C22.2887 10.298 22.3215 10.396 22.2964 10.3221C22.2917 10.3081 22.2864 10.2944 22.2818 10.2804C22.2726 10.2526 22.2645 10.2245 22.2575 10.1961C22.2505 10.168 22.247 10.139 22.24 10.111C22.2282 10.0638 22.2469 10.1482 22.2447 10.1461C22.2381 10.1395 22.2409 10.0986 22.2404 10.0888C22.2372 10.0259 22.2444 9.9649 22.2455 9.90239C22.2464 9.85397 22.2415 9.94013 22.2405 9.9376C22.2407 9.9231 22.2433 9.90873 22.2481 9.89504C22.2553 9.86207 22.2621 9.82914 22.271 9.79654C22.2811 9.75921 22.2928 9.72234 22.3061 9.68593C22.311 9.67231 22.317 9.65888 22.3216 9.64514C22.3385 9.59482 22.2883 9.70592 22.316 9.66054C22.3541 9.59811 22.3825 9.53054 22.4229 9.46888C22.4325 9.45427 22.4908 9.37285 22.4599 9.41396C22.429 9.4549 22.4915 9.3773 22.5034 9.36412C22.5525 9.30938 22.6103 9.26444 22.6612 9.21203C22.6913 9.181 22.6401 9.22731 22.6371 9.22946C22.6529 9.2182 22.6683 9.20651 22.6843 9.19552C22.7121 9.17634 22.7406 9.15821 22.7697 9.14112C22.8026 9.12185 22.8398 9.1075 22.8716 9.08711C22.9092 9.06302 22.8428 9.09768 22.8416 9.09841C22.8588 9.08987 22.8768 9.08302 22.8953 9.07794C22.9263 9.06694 23.0612 9.0087 23.0895 9.02691C23.0882 9.02609 22.9871 9.03506 23.0689 9.0298C23.0882 9.02856 23.1074 9.02668 23.1268 9.02587C23.1659 9.02425 23.2049 9.02523 23.2441 9.02726C23.3501 9.02657 23.4516 8.98412 23.5265 8.90912C23.6015 8.83411 23.6439 8.73258 23.6446 8.62651C23.6424 8.52093 23.5994 8.42031 23.5248 8.34564C23.4502 8.27097 23.3496 8.22801 23.244 8.22574Z" fill="#E6E6E6"/>
<path d="M104.262 96.9828H6.01036C4.76796 96.9814 3.57683 96.4871 2.69831 95.6082C1.81979 94.7293 1.32562 93.5377 1.32422 92.2948V4.68813C1.32561 3.44519 1.81978 2.25356 2.6983 1.37466C3.57682 0.495767 4.76795 0.00139378 6.01036 0H104.262C105.504 0.00139378 106.695 0.495767 107.574 1.37466C108.452 2.25356 108.947 3.44519 108.948 4.68813V92.2948C108.947 93.5377 108.452 94.7293 107.574 95.6082C106.695 96.4871 105.504 96.9814 104.262 96.9828ZM6.01036 0.53434C4.90956 0.535593 3.8542 0.973626 3.07582 1.75234C2.29743 2.53106 1.85958 3.58686 1.85833 4.68813V92.2948C1.85961 93.396 2.29747 94.4518 3.07586 95.2305C3.85424 96.0092 4.90958 96.4472 6.01036 96.4484H104.262C105.363 96.4472 106.418 96.0092 107.196 95.2305C107.975 94.4518 108.413 93.396 108.414 92.2948V4.68813C108.413 3.58686 107.975 2.53106 107.196 1.75234C106.418 0.973626 105.363 0.535594 104.262 0.53434H6.01036Z" fill="#E6E6E6"/>
<path d="M83.5031 47H72.4968C71.6702 47 71 47.2239 71 47.5C71 47.7761 71.6702 48 72.4968 48H83.5031C84.3298 48 85 47.7761 85 47.5C85 47.2239 84.3298 47 83.5031 47Z" fill="#F2C808"/>
<path d="M23.2783 58.9575L23.4919 46.3372C23.5007 45.8212 22.6995 45.8211 22.6908 46.3372L22.4771 58.9575C22.4684 59.4735 23.2695 59.4736 23.2783 58.9575Z" fill="#E6E6E6"/>
<path d="M23.0125 44.592L23.0115 44.5926L23.0136 44.592H23.0125Z" fill="#E6E6E6"/>
<path d="M23.0146 44.5919L23.0136 44.5921C23.0149 44.5922 23.0146 44.5919 23.0146 44.5919Z" fill="#E6E6E6"/>
<path d="M40.1041 37.1113L40.1031 37.1119L40.1052 37.1113H40.1041Z" fill="#E6E6E6"/>
<path d="M40.1062 37.1112L40.1052 37.1114C40.1065 37.1115 40.1062 37.1112 40.1062 37.1112Z" fill="#E6E6E6"/>
<path d="M56.6616 40.8517L56.6606 40.8522L56.6627 40.8517H56.6616Z" fill="#E6E6E6"/>
<path d="M56.6638 40.8516L56.6627 40.8517C56.664 40.8519 56.6638 40.8516 56.6638 40.8516Z" fill="#E6E6E6"/>
<path d="M73.4862 32.5693L73.4851 32.5699L73.4872 32.5693H73.4862Z" fill="#E6E6E6"/>
<path d="M73.4883 32.5693L73.4873 32.5695C73.4886 32.5696 73.4883 32.5693 73.4883 32.5693Z" fill="#E6E6E6"/>
<path d="M89.2425 37.9128L89.2415 37.9134L89.2436 37.9128H89.2425Z" fill="#E6E6E6"/>
<path d="M89.2446 37.9127L89.2436 37.9129C89.2449 37.913 89.2446 37.9127 89.2446 37.9127Z" fill="#E6E6E6"/>
<path d="M100.705 77.8132L105.385 69.9375L108.843 71.5717C108.843 71.5717 102.884 79.0181 102.694 79.2323C102.775 79.5943 102.745 79.9724 102.607 80.3166C102.468 80.6609 102.229 80.9551 101.92 81.1603C101.611 81.3654 101.247 81.472 100.877 81.4657C100.506 81.4595 100.146 81.3408 99.8437 81.1254C99.5419 80.91 99.3125 80.6079 99.186 80.2592C99.0594 79.9105 99.0417 79.5316 99.1351 79.1726C99.2284 78.8136 99.4286 78.4914 99.709 78.2487C99.9894 78.0059 100.337 77.8541 100.705 77.8132Z" fill="#FFB6B6"/>
<path d="M102.652 59.5186L110.233 63.4755C110.707 63.817 111.104 64.2536 111.4 64.7574C111.695 65.2612 111.882 65.8212 111.949 66.4015C112.016 66.9818 111.961 67.5697 111.788 68.1276C111.615 68.6855 111.327 69.2011 110.943 69.6414L105.717 75.6392L103.44 72.5527L105.195 68.8818L101.797 67.9854L102.652 59.5186Z" fill="#F2C808"/>
<path d="M81.0478 50.2853L80.1939 59.4074L76.369 59.4138C76.369 59.4138 78.5635 50.1307 78.6433 49.8557C78.4147 49.5636 78.2803 49.2089 78.2576 48.8386C78.235 48.4683 78.3253 48.0999 78.5165 47.7821C78.7077 47.4642 78.9908 47.212 79.3285 47.0586C79.6661 46.9053 80.0424 46.8581 80.4074 46.9233C80.7724 46.9885 81.1091 47.1631 81.3728 47.4239C81.6365 47.6847 81.8148 48.0194 81.8843 48.3838C81.9537 48.7482 81.9109 49.1251 81.7615 49.4647C81.6121 49.8042 81.3633 50.0904 81.0478 50.2853Z" fill="#FFB6B6"/>
<path d="M88.6614 68.9397L79.858 67.3245C76.1509 66.8785 74.6295 64.4383 75.2984 62.0582L77.4511 54.3983L80.8304 56.2108L80.8174 60.2799L85.5478 59.6329L88.6614 68.9397Z" fill="#F2C808"/>
<path d="M85.0578 131.98H82.6372L81.4856 122.639H85.0583L85.0578 131.98Z" fill="#FFB6B6"/>
<path d="M85.1431 134.506L77.6993 134.506V134.412C77.6994 133.643 78.0047 132.906 78.548 132.362C79.0914 131.819 79.8283 131.513 80.5967 131.513L81.9565 130.481L84.4934 131.514L85.1432 131.514L85.1431 134.506Z" fill="#2F2E41"/>
<path d="M102.185 131.98H104.606L105.758 122.639H102.185L102.185 131.98Z" fill="#FFB6B6"/>
<path d="M102.1 134.506L109.544 134.506V134.412C109.544 133.643 109.239 132.906 108.695 132.362C108.152 131.819 107.415 131.513 106.647 131.513L105.287 130.481L102.75 131.514L102.1 131.514L102.1 134.506Z" fill="#2F2E41"/>
<path d="M81.3791 115.775C81.4149 115.242 81.6991 112.294 81.6991 112.294L82.38 106.043L83.58 89.4729L84.6496 85.1174L89.9442 87.1809L94.2403 85.1205L99.3467 86.7535L103.323 88.2452C103.323 88.2452 103.33 88.8837 103.36 89.6551C103.401 90.6649 103.473 91.9029 103.643 92.2247C103.927 92.7935 103.856 95.8467 103.856 95.8467C103.856 95.8467 104.138 102.059 104.494 102.74C104.85 103.421 104.921 104.839 104.814 105.124C104.707 105.408 105.17 112.868 105.17 112.868C105.17 112.868 106.358 126.07 105.612 128.061C104.867 130.051 102.05 128.747 102.05 128.747C102.05 128.747 102.186 128.216 101.369 127.966C100.552 127.715 98.0633 108.996 98.0633 108.996C98.0633 108.996 97.6003 105.158 97.1748 104.058C96.7492 102.958 96.3578 99.8671 96.3578 99.8671C96.3578 99.8671 93.7297 94.7517 93.6956 93.6142C93.6956 93.6142 93.3518 92.55 93.0267 93.7215C92.7016 94.8931 91.7433 97.6993 91.7433 97.6993L90.8089 101.146L89.7093 106.295L88.9978 110.631C88.9978 110.631 87.9323 116.385 87.7621 116.633C87.5918 116.882 87.7621 122.139 87.7621 122.139C87.7621 122.139 86.9382 126.615 85.774 127.397C84.6097 128.178 81.5252 127.409 81.5252 127.409C81.5252 127.409 81.3434 116.308 81.3791 115.775Z" fill="#2F2E41"/>
<path d="M85.3371 71.1026L84.6606 79.8706L83.6442 80.923C83.5525 81.0179 83.481 81.1303 83.4338 81.2535C83.3866 81.3767 83.3647 81.5082 83.3695 81.6401C83.3743 81.7719 83.4057 81.9015 83.4617 82.0209C83.5177 82.1404 83.5972 82.2473 83.6955 82.3353L83.1355 83.296L82.9373 86.323C82.8807 86.5586 82.8768 86.8037 82.9259 87.0409C82.975 87.2781 83.0758 87.5015 83.2212 87.6952C83.3666 87.8889 83.553 88.0481 83.767 88.1615C83.981 88.2748 84.2173 88.3394 84.4592 88.3508L101.987 89.1746C102.227 89.1859 102.467 89.1443 102.69 89.0526C102.913 88.9609 103.112 88.8214 103.275 88.644C103.438 88.4666 103.56 88.2555 103.632 88.0258C103.705 87.7961 103.726 87.5533 103.694 87.3145L102.204 76.0896V75.2503L101.536 73.6294L101.879 68.1994L102.677 59.5809L98.0403 58.3827L95.5263 56.6522L91.1587 56.7218L88.5085 58.8993L84.9749 59.4529L82.3026 59.9843L81.9622 60.7245L82.643 60.5764L85.1108 70.2056L85.3371 71.1026Z" fill="#F2C808"/>
<path d="M93.2448 55.4773C96.0864 55.4773 98.3899 53.1728 98.3899 50.33C98.3899 47.4873 96.0864 45.1827 93.2448 45.1827C90.4033 45.1827 88.0997 47.4873 88.0997 50.33C88.0997 53.1728 90.4033 55.4773 93.2448 55.4773Z" fill="#FFB6B6"/>
<path d="M92.0044 55.1452L95.7217 54.9556C96.198 54.9312 96.7179 54.8892 97.0643 54.5613C97.2507 54.3587 97.394 54.1205 97.4857 53.861C97.8294 53.0623 98.1731 52.2637 98.5079 51.4614C98.9712 50.3516 99.4261 49.1798 99.3079 47.9829C99.2801 47.4363 99.051 46.9194 98.6647 46.5319C98.4676 46.3452 98.2141 46.2291 97.944 46.2017C97.6739 46.1743 97.4024 46.2372 97.1718 46.3806C97.1145 46.002 96.972 45.6415 96.7549 45.3261C96.5378 45.0108 96.2519 44.749 95.9188 44.5605C95.2461 44.1887 94.4779 44.0258 93.7123 44.0925C92.6013 44.1641 91.5407 44.5823 90.6795 45.2883C90.4374 45.5118 90.1787 45.7169 89.9059 45.9017C89.7686 45.9935 89.6141 46.0563 89.4517 46.0864C89.2894 46.1164 89.1226 46.113 88.9616 46.0764C88.8021 46.0338 88.6635 45.9348 88.5712 45.7979C88.479 45.6609 88.4395 45.4951 88.4599 45.3313C88.1981 45.5271 88.0186 45.8135 87.9564 46.1345C87.8943 46.4556 87.9539 46.7883 88.1236 47.0678C87.9306 47.1487 87.72 47.1783 87.5123 47.1537C87.3045 47.1291 87.1066 47.0512 86.9378 46.9275C86.757 47.0172 86.5969 47.1438 86.4678 47.299C86.3387 47.4543 86.2434 47.6348 86.1881 47.829C86.1327 48.0232 86.1186 48.2268 86.1464 48.4268C86.1743 48.6268 86.2436 48.8188 86.3499 48.9905C86.4562 49.1621 86.5972 49.3097 86.7638 49.4237C86.9304 49.5377 87.119 49.6157 87.3174 49.6525C87.5159 49.6894 87.7199 49.6844 87.9163 49.6379C88.1127 49.5914 88.2973 49.5043 88.4581 49.3823C88.6837 49.6984 88.5997 50.1281 88.5703 50.5154C88.5409 50.9027 88.6448 51.3841 89.018 51.4911C89.5226 51.6359 89.9313 50.9562 90.4562 50.9634C90.5856 50.9739 90.7105 51.0163 90.8197 51.0867C90.9289 51.1571 91.019 51.2533 91.0821 51.3669C91.2058 51.5952 91.2905 51.8425 91.3327 52.0987L92.0044 55.1242" fill="#2F2E41"/>
<path d="M236.948 101.428C236.948 100.631 236.68 99.9838 236.352 99.9823H146.796C146.466 99.9838 146.2 100.631 146.198 101.428V134.239C146.198 134.313 146.171 134.384 146.121 134.439C146.071 134.494 146.003 134.528 145.929 134.535C145.689 134.558 145.449 134.58 145.208 134.6C145.202 134.6 145.196 134.601 145.19 134.601C145.06 134.613 144.929 134.622 144.798 134.632H144.796C144.729 134.508 144.663 134.382 144.597 134.256C144.575 134.213 144.563 134.166 144.563 134.118V99.5525C144.563 99.3324 144.572 99.1109 144.587 98.8923C144.608 98.5921 144.645 98.2933 144.698 97.9971C144.95 96.6156 145.517 95.6802 146.162 95.6772H236.983C237.078 95.6779 237.171 95.6976 237.257 95.7352C237.384 95.7913 237.498 95.8717 237.594 95.9717C237.725 96.1073 237.836 96.2598 237.926 96.4252C238.296 97.1631 238.509 97.9697 238.552 98.7941C238.552 98.803 238.553 98.812 238.553 98.8209C238.574 99.0618 238.584 99.3071 238.583 99.5525L238.604 102.739L238.617 104.64L238.657 110.603L238.672 112.72L238.737 134.461C238.737 134.54 238.706 134.616 238.65 134.672C238.595 134.727 238.519 134.759 238.44 134.759H237.245C237.166 134.759 237.091 134.727 237.035 134.672C236.979 134.616 236.948 134.54 236.948 134.461V101.428Z" fill="#E6E6E6"/>
<path d="M212.613 80.7655H202.963C202.826 80.7657 202.695 80.8202 202.599 80.9168C202.503 81.0135 202.449 81.1446 202.449 81.2811V96.5315H213.128V81.2811C213.128 81.2134 213.115 81.1463 213.089 81.0838C213.063 81.0212 213.025 80.9643 212.977 80.9164C212.929 80.8686 212.872 80.8306 212.81 80.8047C212.747 80.7788 212.68 80.7655 212.613 80.7655ZM207.82 89.4306C207.518 89.4292 207.229 89.3086 207.016 89.0951C206.803 88.8816 206.682 88.5925 206.681 88.2906V86.5316C206.681 86.2293 206.801 85.9393 207.014 85.7255C207.228 85.5117 207.518 85.3916 207.82 85.3916C208.122 85.3916 208.412 85.5117 208.626 85.7255C208.84 85.9393 208.96 86.2293 208.96 86.5316V88.2906C208.958 88.5925 208.838 88.8816 208.624 89.0951C208.411 89.3086 208.122 89.4292 207.82 89.4306Z" fill="#CCCCCC"/>
<path d="M202.416 96.0437V97.515C202.416 97.5913 202.446 97.6644 202.5 97.7183C202.554 97.7722 202.627 97.8025 202.703 97.8027H212.874C212.95 97.8023 213.023 97.7719 213.076 97.718C213.13 97.6642 213.161 97.5912 213.161 97.515V96.0437H202.416Z" fill="#3F3D56"/>
<path d="M228.592 56.9656H187.343C186.988 56.9661 186.649 57.1072 186.398 57.3579C186.147 57.6086 186.006 57.9485 186.006 58.303V86.15C186.006 86.5046 186.147 86.8446 186.398 87.0954C186.648 87.3461 186.988 87.4871 187.343 87.4875H228.592C228.946 87.4871 229.286 87.3461 229.537 87.0954C229.787 86.8446 229.928 86.5046 229.929 86.15V58.303C229.928 57.9485 229.787 57.6086 229.537 57.3579C229.286 57.1072 228.946 56.9661 228.592 56.9656Z" fill="#E6E6E6"/>
<path d="M228.248 57.9316H187.687C187.498 57.9321 187.316 58.0077 187.182 58.1421C187.048 58.2765 186.972 58.4586 186.972 58.6484V85.8052C186.973 85.9948 187.048 86.1765 187.182 86.3106C187.316 86.4447 187.498 86.5201 187.687 86.5204H228.248C228.437 86.5201 228.619 86.4447 228.753 86.3106C228.887 86.1765 228.962 85.9948 228.962 85.8052V58.6484C228.962 58.4586 228.887 58.2765 228.753 58.1421C228.619 58.0077 228.437 57.9321 228.248 57.9316Z" fill="white"/>
<path d="M220.347 98.3147H196.216C196.15 98.3147 196.085 98.3 196.025 98.2716C195.965 98.2432 195.913 98.2018 195.871 98.1505C195.83 98.0992 195.8 98.0392 195.784 97.975C195.769 97.9107 195.768 97.8438 195.781 97.7792L196.156 96.0001C196.177 95.9005 196.232 95.8113 196.311 95.7471C196.39 95.683 196.489 95.6478 196.59 95.6475H219.973C220.074 95.6478 220.173 95.683 220.252 95.7471C220.331 95.8113 220.386 95.9005 220.407 96.0001L220.781 97.7792C220.795 97.8438 220.794 97.9107 220.779 97.975C220.763 98.0392 220.733 98.0992 220.692 98.1505C220.65 98.2018 220.598 98.2432 220.538 98.2716C220.478 98.3 220.413 98.3147 220.347 98.3147Z" fill="#CCCCCC"/>
<path d="M197.374 95.9678H196.892C196.82 95.9678 196.762 96.0262 196.762 96.0982V96.2835C196.762 96.3555 196.82 96.4139 196.892 96.4139H197.374C197.446 96.4139 197.505 96.3555 197.505 96.2835V96.0982C197.505 96.0262 197.446 95.9678 197.374 95.9678Z" fill="#E6E6E6"/>
<path d="M198.861 95.9678H198.378C198.306 95.9678 198.248 96.0262 198.248 96.0982V96.2835C198.248 96.3555 198.306 96.4139 198.378 96.4139H198.861C198.933 96.4139 198.991 96.3555 198.991 96.2835V96.0982C198.991 96.0262 198.933 95.9678 198.861 95.9678Z" fill="#E6E6E6"/>
<path d="M200.347 95.9678H199.865C199.793 95.9678 199.734 96.0262 199.734 96.0982V96.2835C199.734 96.3555 199.793 96.4139 199.865 96.4139H200.347C200.419 96.4139 200.478 96.3555 200.478 96.2835V96.0982C200.478 96.0262 200.419 95.9678 200.347 95.9678Z" fill="#E6E6E6"/>
<path d="M201.834 95.9678H201.351C201.279 95.9678 201.221 96.0262 201.221 96.0982V96.2835C201.221 96.3555 201.279 96.4139 201.351 96.4139H201.834C201.906 96.4139 201.964 96.3555 201.964 96.2835V96.0982C201.964 96.0262 201.906 95.9678 201.834 95.9678Z" fill="#E6E6E6"/>
<path d="M203.32 95.9678H202.838C202.766 95.9678 202.707 96.0262 202.707 96.0982V96.2835C202.707 96.3555 202.766 96.4139 202.838 96.4139H203.32C203.392 96.4139 203.451 96.3555 203.451 96.2835V96.0982C203.451 96.0262 203.392 95.9678 203.32 95.9678Z" fill="#E6E6E6"/>
<path d="M204.807 95.9678H204.324C204.252 95.9678 204.194 96.0262 204.194 96.0982V96.2835C204.194 96.3555 204.252 96.4139 204.324 96.4139H204.807C204.879 96.4139 204.937 96.3555 204.937 96.2835V96.0982C204.937 96.0262 204.879 95.9678 204.807 95.9678Z" fill="#E6E6E6"/>
<path d="M206.293 95.9678H205.811C205.739 95.9678 205.68 96.0262 205.68 96.0982V96.2835C205.68 96.3555 205.739 96.4139 205.811 96.4139H206.293C206.365 96.4139 206.423 96.3555 206.423 96.2835V96.0982C206.423 96.0262 206.365 95.9678 206.293 95.9678Z" fill="#E6E6E6"/>
<path d="M207.779 95.9678H207.297C207.225 95.9678 207.167 96.0262 207.167 96.0982V96.2835C207.167 96.3555 207.225 96.4139 207.297 96.4139H207.779C207.851 96.4139 207.91 96.3555 207.91 96.2835V96.0982C207.91 96.0262 207.851 95.9678 207.779 95.9678Z" fill="#E6E6E6"/>
<path d="M209.266 95.9678H208.783C208.711 95.9678 208.653 96.0262 208.653 96.0982V96.2835C208.653 96.3555 208.711 96.4139 208.783 96.4139H209.266C209.338 96.4139 209.396 96.3555 209.396 96.2835V96.0982C209.396 96.0262 209.338 95.9678 209.266 95.9678Z" fill="#E6E6E6"/>
<path d="M210.752 95.9678H210.27C210.198 95.9678 210.14 96.0262 210.14 96.0982V96.2835C210.14 96.3555 210.198 96.4139 210.27 96.4139H210.752C210.824 96.4139 210.883 96.3555 210.883 96.2835V96.0982C210.883 96.0262 210.824 95.9678 210.752 95.9678Z" fill="#E6E6E6"/>
<path d="M212.239 95.9678H211.756C211.684 95.9678 211.626 96.0262 211.626 96.0982V96.2835C211.626 96.3555 211.684 96.4139 211.756 96.4139H212.239C212.311 96.4139 212.369 96.3555 212.369 96.2835V96.0982C212.369 96.0262 212.311 95.9678 212.239 95.9678Z" fill="#E6E6E6"/>
<path d="M213.725 95.9678H213.243C213.171 95.9678 213.112 96.0262 213.112 96.0982V96.2835C213.112 96.3555 213.171 96.4139 213.243 96.4139H213.725C213.797 96.4139 213.856 96.3555 213.856 96.2835V96.0982C213.856 96.0262 213.797 95.9678 213.725 95.9678Z" fill="#E6E6E6"/>
<path d="M215.212 95.9678H214.729C214.657 95.9678 214.599 96.0262 214.599 96.0982V96.2835C214.599 96.3555 214.657 96.4139 214.729 96.4139H215.212C215.284 96.4139 215.342 96.3555 215.342 96.2835V96.0982C215.342 96.0262 215.284 95.9678 215.212 95.9678Z" fill="#E6E6E6"/>
<path d="M216.698 95.9678H216.216C216.144 95.9678 216.085 96.0262 216.085 96.0982V96.2835C216.085 96.3555 216.144 96.4139 216.216 96.4139H216.698C216.77 96.4139 216.828 96.3555 216.828 96.2835V96.0982C216.828 96.0262 216.77 95.9678 216.698 95.9678Z" fill="#E6E6E6"/>
<path d="M218.184 95.9678H217.702C217.63 95.9678 217.572 96.0262 217.572 96.0982V96.2835C217.572 96.3555 217.63 96.4139 217.702 96.4139H218.184C218.257 96.4139 218.315 96.3555 218.315 96.2835V96.0982C218.315 96.0262 218.257 95.9678 218.184 95.9678Z" fill="#E6E6E6"/>
<path d="M219.671 95.9678H219.188C219.116 95.9678 219.058 96.0262 219.058 96.0982V96.2835C219.058 96.3555 219.116 96.4139 219.188 96.4139H219.671C219.743 96.4139 219.801 96.3555 219.801 96.2835V96.0982C219.801 96.0262 219.743 95.9678 219.671 95.9678Z" fill="#E6E6E6"/>
<path d="M197.357 96.7113H196.874C196.802 96.7113 196.744 96.7697 196.744 96.8417V97.027C196.744 97.099 196.802 97.1574 196.874 97.1574H197.357C197.429 97.1574 197.487 97.099 197.487 97.027V96.8417C197.487 96.7697 197.429 96.7113 197.357 96.7113Z" fill="#E6E6E6"/>
<path d="M198.843 96.7113H198.361C198.289 96.7113 198.23 96.7697 198.23 96.8417V97.027C198.23 97.099 198.289 97.1574 198.361 97.1574H198.843C198.915 97.1574 198.974 97.099 198.974 97.027V96.8417C198.974 96.7697 198.915 96.7113 198.843 96.7113Z" fill="#E6E6E6"/>
<path d="M200.33 96.7113H199.847C199.775 96.7113 199.717 96.7697 199.717 96.8417V97.027C199.717 97.099 199.775 97.1574 199.847 97.1574H200.33C200.402 97.1574 200.46 97.099 200.46 97.027V96.8417C200.46 96.7697 200.402 96.7113 200.33 96.7113Z" fill="#E6E6E6"/>
<path d="M201.816 96.7113H201.334C201.262 96.7113 201.203 96.7697 201.203 96.8417V97.027C201.203 97.099 201.262 97.1574 201.334 97.1574H201.816C201.888 97.1574 201.947 97.099 201.947 97.027V96.8417C201.947 96.7697 201.888 96.7113 201.816 96.7113Z" fill="#E6E6E6"/>
<path d="M203.303 96.7113H202.82C202.748 96.7113 202.69 96.7697 202.69 96.8417V97.027C202.69 97.099 202.748 97.1574 202.82 97.1574H203.303C203.375 97.1574 203.433 97.099 203.433 97.027V96.8417C203.433 96.7697 203.375 96.7113 203.303 96.7113Z" fill="#E6E6E6"/>
<path d="M204.789 96.7113H204.307C204.235 96.7113 204.176 96.7697 204.176 96.8417V97.027C204.176 97.099 204.235 97.1574 204.307 97.1574H204.789C204.861 97.1574 204.919 97.099 204.919 97.027V96.8417C204.919 96.7697 204.861 96.7113 204.789 96.7113Z" fill="#E6E6E6"/>
<path d="M206.275 96.7113H205.793C205.721 96.7113 205.663 96.7697 205.663 96.8417V97.027C205.663 97.099 205.721 97.1574 205.793 97.1574H206.275C206.348 97.1574 206.406 97.099 206.406 97.027V96.8417C206.406 96.7697 206.348 96.7113 206.275 96.7113Z" fill="#E6E6E6"/>
<path d="M207.762 96.7113H207.279C207.207 96.7113 207.149 96.7697 207.149 96.8417V97.027C207.149 97.099 207.207 97.1574 207.279 97.1574H207.762C207.834 97.1574 207.892 97.099 207.892 97.027V96.8417C207.892 96.7697 207.834 96.7113 207.762 96.7113Z" fill="#E6E6E6"/>
<path d="M209.248 96.7113H208.766C208.694 96.7113 208.635 96.7697 208.635 96.8417V97.027C208.635 97.099 208.694 97.1574 208.766 97.1574H209.248C209.32 97.1574 209.379 97.099 209.379 97.027V96.8417C209.379 96.7697 209.32 96.7113 209.248 96.7113Z" fill="#E6E6E6"/>
<path d="M210.735 96.7113H210.252C210.18 96.7113 210.122 96.7697 210.122 96.8417V97.027C210.122 97.099 210.18 97.1574 210.252 97.1574H210.735C210.807 97.1574 210.865 97.099 210.865 97.027V96.8417C210.865 96.7697 210.807 96.7113 210.735 96.7113Z" fill="#E6E6E6"/>
<path d="M212.221 96.7113H211.739C211.667 96.7113 211.608 96.7697 211.608 96.8417V97.027C211.608 97.099 211.667 97.1574 211.739 97.1574H212.221C212.293 97.1574 212.352 97.099 212.352 97.027V96.8417C212.352 96.7697 212.293 96.7113 212.221 96.7113Z" fill="#E6E6E6"/>
<path d="M213.708 96.7113H213.225C213.153 96.7113 213.095 96.7697 213.095 96.8417V97.027C213.095 97.099 213.153 97.1574 213.225 97.1574H213.708C213.78 97.1574 213.838 97.099 213.838 97.027V96.8417C213.838 96.7697 213.78 96.7113 213.708 96.7113Z" fill="#E6E6E6"/>
<path d="M215.194 96.7113H214.712C214.64 96.7113 214.581 96.7697 214.581 96.8417V97.027C214.581 97.099 214.64 97.1574 214.712 97.1574H215.194C215.266 97.1574 215.324 97.099 215.324 97.027V96.8417C215.324 96.7697 215.266 96.7113 215.194 96.7113Z" fill="#E6E6E6"/>
<path d="M216.681 96.7113H216.198C216.126 96.7113 216.068 96.7697 216.068 96.8417V97.027C216.068 97.099 216.126 97.1574 216.198 97.1574H216.681C216.753 97.1574 216.811 97.099 216.811 97.027V96.8417C216.811 96.7697 216.753 96.7113 216.681 96.7113Z" fill="#E6E6E6"/>
<path d="M218.167 96.7113H217.685C217.613 96.7113 217.554 96.7697 217.554 96.8417V97.027C217.554 97.099 217.613 97.1574 217.685 97.1574H218.167C218.239 97.1574 218.297 97.099 218.297 97.027V96.8417C218.297 96.7697 218.239 96.7113 218.167 96.7113Z" fill="#E6E6E6"/>
<path d="M219.653 96.7113H219.171C219.099 96.7113 219.041 96.7697 219.041 96.8417V97.027C219.041 97.099 219.099 97.1574 219.171 97.1574H219.653C219.725 97.1574 219.784 97.099 219.784 97.027V96.8417C219.784 96.7697 219.725 96.7113 219.653 96.7113Z" fill="#E6E6E6"/>
<path d="M209.694 97.6035H204.009C203.937 97.6035 203.879 97.6619 203.879 97.7339V97.9192C203.879 97.9912 203.937 98.0496 204.009 98.0496H209.694C209.766 98.0496 209.825 97.9912 209.825 97.9192V97.7339C209.825 97.6619 209.766 97.6035 209.694 97.6035Z" fill="#E6E6E6"/>
<path d="M226.209 61.6733H188.257C188.217 61.6724 188.18 61.6561 188.152 61.6279C188.124 61.5997 188.109 61.5618 188.109 61.5223C188.109 61.4829 188.124 61.4449 188.152 61.4167C188.18 61.3885 188.217 61.3722 188.257 61.3713H226.209C226.248 61.3722 226.286 61.3885 226.313 61.4167C226.341 61.4449 226.356 61.4829 226.356 61.5223C226.356 61.5618 226.341 61.5997 226.313 61.6279C226.286 61.6561 226.248 61.6724 226.209 61.6733Z" fill="#CACACA"/>
<path d="M190.84 60.6003C191.328 60.6003 191.724 60.1953 191.724 59.6957C191.724 59.1961 191.328 58.7911 190.84 58.7911C190.352 58.7911 189.956 59.1961 189.956 59.6957C189.956 60.1953 190.352 60.6003 190.84 60.6003Z" fill="#CCCCCC"/>
<path d="M193.895 60.6003C194.384 60.6003 194.78 60.1953 194.78 59.6957C194.78 59.1961 194.384 58.7911 193.895 58.7911C193.407 58.7911 193.011 59.1961 193.011 59.6957C193.011 60.1953 193.407 60.6003 193.895 60.6003Z" fill="#CCCCCC"/>
<path d="M196.951 60.6003C197.44 60.6003 197.836 60.1953 197.836 59.6957C197.836 59.1961 197.44 58.7911 196.951 58.7911C196.463 58.7911 196.067 59.1961 196.067 59.6957C196.067 60.1953 196.463 60.6003 196.951 60.6003Z" fill="#CCCCCC"/>
<path d="M224.369 59.0154H222.198C222.155 59.0162 222.114 59.0339 222.084 59.0647C222.054 59.0954 222.037 59.1367 222.037 59.1798C222.037 59.2228 222.054 59.2642 222.084 59.2949C222.114 59.3257 222.155 59.3434 222.198 59.3442H224.369C224.412 59.3434 224.453 59.3257 224.483 59.2949C224.513 59.2642 224.53 59.2228 224.53 59.1798C224.53 59.1367 224.513 59.0954 224.483 59.0647C224.453 59.0339 224.412 59.0162 224.369 59.0154Z" fill="#CCCCCC"/>
<path d="M224.369 59.6326H222.198C222.155 59.6334 222.114 59.6511 222.084 59.6819C222.054 59.7126 222.037 59.7539 222.037 59.797C222.037 59.84 222.054 59.8813 222.084 59.9121C222.114 59.9428 222.155 59.9605 222.198 59.9614H224.369C224.412 59.9605 224.453 59.9428 224.483 59.9121C224.513 59.8813 224.53 59.84 224.53 59.797C224.53 59.7539 224.513 59.7126 224.483 59.6819C224.453 59.6511 224.412 59.6334 224.369 59.6326Z" fill="#CCCCCC"/>
<path d="M224.369 60.2489H222.198C222.155 60.2498 222.114 60.2674 222.084 60.2982C222.054 60.3289 222.037 60.3703 222.037 60.4133C222.037 60.4564 222.054 60.4977 222.084 60.5284C222.114 60.5592 222.155 60.5769 222.198 60.5777H224.369C224.412 60.5769 224.453 60.5592 224.483 60.5284C224.513 60.4977 224.53 60.4564 224.53 60.4133C224.53 60.3703 224.513 60.3289 224.483 60.2982C224.453 60.2674 224.412 60.2498 224.369 60.2489Z" fill="#CCCCCC"/>
<path d="M52.6662 30H13.3338C12.0449 30 11 30.2239 11 30.5C11 30.7761 12.0449 31 13.3338 31H52.6662C53.9551 31 55 30.7761 55 30.5C55 30.2239 53.9551 30 52.6662 30Z" fill="#E6E6E6"/>
<path d="M54.5601 38H13.4399C12.0924 38 11 38.2239 11 38.5C11 38.7761 12.0924 39 13.4399 39H54.5601C55.9076 39 57 38.7761 57 38.5C57 38.2239 55.9076 38 54.5601 38Z" fill="#E6E6E6"/>
<path d="M62.1357 48H13.8643C12.2823 48 11 48.2239 11 48.5C11 48.7761 12.2823 49 13.8643 49H62.1357C63.7176 49 65 48.7761 65 48.5C65 48.2239 63.7176 48 62.1357 48Z" fill="#E6E6E6"/>
<path d="M140.132 115.27L137.945 114.224L140.948 105.082L144.175 106.626L140.132 115.27Z" fill="#FFB6B6"/>
<path d="M154.788 113.796C154.629 113.895 154.47 113.993 154.31 114.091C153.99 114.287 153.667 114.48 153.345 114.67C153.182 114.765 153.019 114.859 152.856 114.953V114.957L152.847 114.959L152.844 114.961L152.596 115.022L152.241 114.083L152.078 113.651L151.846 113.039L151.422 111.919L149.19 106.024L152.66 105.167L152.791 105.699H152.792L152.856 105.962L154.069 110.882L154.316 111.887L154.324 111.918L154.473 112.519L154.602 113.039L154.745 113.621L154.788 113.796Z" fill="#FFB6B6"/>
<path d="M175.489 93.0907C175.269 93.4441 175.045 93.796 174.818 94.1446C174.397 94.7936 173.965 95.433 173.522 96.0628C173.522 96.0644 173.521 96.0644 173.519 96.066C173.26 96.3056 172.975 96.5143 172.668 96.6877C172.655 96.6973 172.641 96.7038 172.628 96.7118C172.402 96.8368 172.161 96.9334 171.912 96.9994C171.822 97.0219 171.73 97.0443 171.64 97.0668C171.316 97.1439 170.995 97.2098 170.675 97.2676C170.107 97.3689 169.545 97.4412 168.986 97.4861C168.941 97.491 168.896 97.4942 168.851 97.4974C166.553 97.6661 164.316 97.3946 161.981 96.9496C160.828 96.7311 159.651 96.4692 158.432 96.1977C158.034 96.1077 157.634 96.0194 157.229 95.931C157.199 95.9246 157.167 95.9166 157.135 95.9101C156.557 95.7832 155.969 95.6579 155.367 95.5342C154.609 95.3784 153.827 95.2274 153.014 95.0844L153.072 96.2298C153.12 97.111 153.303 97.9795 153.615 98.8051C153.962 99.8204 154.236 100.624 153.656 102.296L153.377 103.106C153.522 103.508 153.572 103.938 153.522 104.363C153.473 104.787 153.326 105.194 153.093 105.552L153.037 105.638L155.367 111.535L155.518 111.917H154.324L152.857 111.919H150.369L146.78 104.715L146.608 104.372V104.354L146.979 90.5106C146.984 90.3885 146.994 90.2648 147.01 90.1427C147.075 89.5877 147.251 89.0512 147.525 88.5647C147.8 88.0781 148.169 87.6512 148.611 87.3089C149.034 86.978 149.519 86.7347 150.037 86.5929C150.555 86.4511 151.096 86.4138 151.628 86.4831L152.857 86.6422L155.367 86.9667L157.135 87.1964L157.17 87.2012L162.384 87.8759L162.758 86.3498L162.827 86.3241L165.022 85.5192L172.615 82.7351L172.634 82.7287L173.134 82.5455L173.193 82.6419C173.211 82.6708 173.228 82.6998 173.244 82.7287C173.738 83.614 174.14 84.5474 174.444 85.5144C174.955 87.094 175.376 88.7016 175.704 90.3291C175.719 90.3998 175.732 90.4641 175.743 90.5219L175.748 90.5396C175.753 90.5669 175.756 90.5845 175.757 90.5894C175.908 91.4317 175.815 92.2995 175.489 93.0907Z" fill="#2F2E41"/>
<path d="M175.81 87.9891C175.786 87.8863 175.755 87.7819 175.723 87.6807C175.468 86.9141 175.171 86.1622 174.833 85.4283C174.454 84.5929 174 83.6981 173.459 82.7294C173.197 82.2603 172.916 81.7724 172.614 81.2658C172.463 81.012 172.306 80.7534 172.144 80.4899C172.137 80.4778 172.13 80.466 172.123 80.4545L172.076 80.3774L164.564 81.3831L161.767 81.7574L161.6 83.1519L161.56 83.4973C161.558 83.4973 161.558 83.4973 161.56 83.4989L161.447 84.4403V84.4419L161.298 85.6854L161.285 85.6838L157.134 85.1456L152.856 84.5913L150.558 84.2941C150.025 84.2247 149.484 84.262 148.966 84.4037C148.448 84.5455 147.964 84.7889 147.541 85.1199C147.099 85.4623 146.73 85.8893 146.455 86.3758C146.181 86.8624 146.005 87.3988 145.94 87.9538C145.925 88.0662 145.916 88.1819 145.911 88.296L143.743 93.4352C142.446 96.5088 141.619 99.7606 141.292 103.081L139.703 108.165L139.929 108.186L143.298 108.5L144.188 108.583L146.147 105.722C146.37 105.396 146.582 105.06 146.779 104.716C147.105 104.155 147.394 103.573 147.645 102.975L151.883 92.8858C152.21 92.942 152.535 92.9956 152.856 93.0464C154.341 93.2874 155.767 93.484 157.134 93.636C161.577 94.1325 165.425 94.171 168.85 93.7501C169.812 93.6328 170.742 93.4786 171.639 93.2874C171.969 93.2184 172.294 93.1439 172.614 93.0641C172.69 93.0465 172.764 93.0288 172.837 93.0095C173.501 92.8383 174.111 92.5033 174.612 92.0351C175.113 91.567 175.488 90.9807 175.704 90.3298C175.961 89.5756 175.998 88.7635 175.81 87.9891Z" fill="#2F2E41"/>
<path d="M140.83 113.777L138.465 112.643L138.094 112.464L137.501 113.92L133.364 114.831C133.16 114.876 132.975 114.985 132.837 115.142C132.699 115.3 132.615 115.497 132.597 115.706C132.579 115.915 132.628 116.124 132.737 116.302C132.846 116.481 133.01 116.62 133.204 116.699L137.246 118.349L138.529 117.194L138.214 118.744L139.736 119.366L141.405 114.053L140.83 113.777Z" fill="#2F2E41"/>
<path d="M155.367 111.535L155.518 111.918H155.367V111.535Z" fill="#2F2E41"/>
<path d="M154.543 111.999L152.064 112.858L151.675 112.993L152.278 114.444L149.979 118.003C149.865 118.179 149.811 118.387 149.823 118.596C149.836 118.805 149.915 119.005 150.049 119.165C150.183 119.326 150.365 119.44 150.568 119.49C150.772 119.54 150.986 119.524 151.179 119.444L155.212 117.771L155.311 116.047L156.178 117.37L157.697 116.74L155.146 111.791L154.543 111.999Z" fill="#2F2E41"/>
<path d="M139.5 58.844C139.617 59.073 139.783 59.2735 139.987 59.4313C140.19 59.5891 140.426 59.7004 140.677 59.7573C140.928 59.8142 141.188 59.8154 141.439 59.7608C141.691 59.7061 141.927 59.5969 142.132 59.441L147.344 62.9023L147.354 59.6502L142.403 56.8618C142.118 56.5351 141.724 56.3241 141.294 56.269C140.864 56.2139 140.429 56.3184 140.071 56.5627C139.713 56.807 139.458 57.1742 139.352 57.5947C139.247 58.0151 139.299 58.4597 139.5 58.844Z" fill="#FFB6B6"/>
<path d="M143.393 60.3471L145.825 57.5796L155.726 63.4599L168.85 62.2574C169.499 62.198 170.153 62.2822 170.766 62.504C171.378 62.7258 171.934 63.0798 172.395 63.5409C172.855 64.002 173.209 64.5588 173.43 65.1719C173.651 65.7849 173.734 66.4391 173.674 67.0881C173.565 68.2602 172.995 69.3408 172.089 70.0929C171.184 70.845 170.018 71.2072 168.846 71.1L154.064 69.7312L143.393 60.3471Z" fill="#CCCCCC"/>
<path d="M173.855 60.3898L173.833 60.3612C171.986 60.1789 170.127 60.5364 168.479 61.3903C166.832 62.2442 165.468 63.5579 164.552 65.172L163.438 67.1349C159.835 71.5414 162.453 74.5802 162.61 75.0321L161.359 80.8007L161.64 82.7313L161.78 83.3048L176.055 90.767C176.868 86.8604 176.082 83.5314 173.121 80.9883L175.986 72.0707C176.621 70.0989 176.759 68.0006 176.387 65.9626C176.015 63.9246 175.146 62.0102 173.855 60.3898Z" fill="#CCCCCC"/>
<path d="M162.505 103.713H157.926C157.674 103.713 157.431 103.622 157.241 103.457C157.05 103.292 156.926 103.063 156.891 102.814C156.608 100.732 156.608 98.6221 156.891 96.5407C156.926 96.2942 157.047 96.0683 157.234 95.9034C157.42 95.7386 157.659 95.6456 157.908 95.6413C159.349 94.9952 160.9 94.9953 162.521 95.6412C162.671 95.6432 162.82 95.6782 162.956 95.7438C163.092 95.8094 163.212 95.9039 163.307 96.0208C163.407 96.1424 163.478 96.2846 163.516 96.4372C163.554 96.5898 163.557 96.7488 163.526 96.9029C163.158 98.7341 163.158 100.62 163.526 102.452C163.557 102.606 163.554 102.765 163.516 102.917C163.478 103.07 163.407 103.212 163.307 103.334C163.21 103.453 163.088 103.548 162.949 103.614C162.81 103.68 162.658 103.714 162.505 103.713Z" fill="#F2C808"/>
<path d="M162.025 98.0329H158.171C158.139 98.0332 158.108 98.0271 158.078 98.0151C158.049 98.0031 158.022 97.9855 158 97.9631C157.977 97.9406 157.959 97.914 157.947 97.8846C157.935 97.8552 157.928 97.8237 157.928 97.7919C157.928 97.7601 157.935 97.7286 157.947 97.6992C157.959 97.6698 157.977 97.6431 158 97.6207C158.022 97.5983 158.049 97.5806 158.078 97.5686C158.108 97.5567 158.139 97.5506 158.171 97.5509H162.025C162.057 97.5506 162.089 97.5567 162.118 97.5686C162.148 97.5806 162.174 97.5983 162.197 97.6207C162.22 97.6431 162.238 97.6698 162.25 97.6992C162.262 97.7286 162.268 97.7601 162.268 97.7919C162.268 97.8237 162.262 97.8552 162.25 97.8846C162.238 97.914 162.22 97.9406 162.197 97.9631C162.174 97.9855 162.148 98.0031 162.118 98.0151C162.089 98.0271 162.057 98.0332 162.025 98.0329Z" fill="white"/>
<path d="M162.025 99.9606H158.171C158.139 99.9609 158.108 99.9549 158.078 99.9429C158.049 99.9309 158.022 99.9132 158 99.8908C157.977 99.8684 157.959 99.8417 157.947 99.8123C157.935 99.783 157.928 99.7514 157.928 99.7196C157.928 99.6878 157.935 99.6563 157.947 99.6269C157.959 99.5975 157.977 99.5709 158 99.5485C158.022 99.5261 158.049 99.5084 158.078 99.4964C158.108 99.4844 158.139 99.4784 158.171 99.4786H162.025C162.057 99.4784 162.089 99.4844 162.118 99.4964C162.148 99.5084 162.174 99.5261 162.197 99.5485C162.22 99.5709 162.238 99.5975 162.25 99.6269C162.262 99.6563 162.268 99.6878 162.268 99.7196C162.268 99.7514 162.262 99.783 162.25 99.8123C162.238 99.8417 162.22 99.8684 162.197 99.8908C162.174 99.9132 162.148 99.9309 162.118 99.9429C162.089 99.9549 162.057 99.9609 162.025 99.9606Z" fill="white"/>
<path d="M162.025 101.888H158.171C158.139 101.889 158.108 101.883 158.078 101.871C158.049 101.859 158.022 101.841 158 101.819C157.977 101.796 157.959 101.77 157.947 101.74C157.934 101.711 157.928 101.679 157.928 101.647C157.928 101.616 157.934 101.584 157.947 101.555C157.959 101.525 157.977 101.499 158 101.476C158.022 101.454 158.049 101.436 158.078 101.424C158.108 101.412 158.139 101.406 158.171 101.407H162.025C162.057 101.406 162.089 101.412 162.118 101.424C162.148 101.436 162.174 101.454 162.197 101.476C162.22 101.499 162.238 101.525 162.25 101.555C162.262 101.584 162.268 101.616 162.268 101.647C162.268 101.679 162.262 101.711 162.25 101.74C162.238 101.77 162.22 101.796 162.197 101.819C162.174 101.841 162.148 101.859 162.118 101.871C162.089 101.883 162.057 101.889 162.025 101.888Z" fill="white"/>
<path d="M140.339 60.4317H135.76C135.508 60.4315 135.265 60.3404 135.075 60.1752C134.885 60.0099 134.761 59.7816 134.725 59.5321C134.442 57.4507 134.442 55.3405 134.725 53.2591C134.76 53.0126 134.882 52.7867 135.068 52.6218C135.255 52.457 135.494 52.364 135.743 52.3596C137.183 51.7136 138.735 51.7137 140.355 52.3596C140.506 52.3616 140.654 52.3966 140.79 52.4622C140.926 52.5277 141.046 52.6223 141.142 52.7392C141.241 52.8607 141.313 53.003 141.35 53.1556C141.388 53.3081 141.391 53.4672 141.36 53.6212C140.992 55.4525 140.992 57.3387 141.36 59.1699C141.391 59.3239 141.388 59.483 141.35 59.6356C141.313 59.7882 141.241 59.9304 141.142 60.052C141.044 60.171 140.922 60.2667 140.783 60.3324C140.644 60.3981 140.493 60.432 140.339 60.4317Z" fill="#F2C808"/>
<path d="M139.86 54.7513H136.006C135.974 54.7515 135.942 54.7455 135.913 54.7335C135.883 54.7215 135.856 54.7038 135.834 54.6814C135.811 54.659 135.793 54.6324 135.781 54.603C135.769 54.5736 135.763 54.5421 135.763 54.5103C135.763 54.4784 135.769 54.4469 135.781 54.4176C135.793 54.3882 135.811 54.3615 135.834 54.3391C135.856 54.3167 135.883 54.299 135.913 54.287C135.942 54.275 135.974 54.269 136.006 54.2693H139.86C139.891 54.269 139.923 54.275 139.952 54.287C139.982 54.299 140.009 54.3167 140.031 54.3391C140.054 54.3615 140.072 54.3882 140.084 54.4176C140.096 54.4469 140.103 54.4784 140.103 54.5103C140.103 54.5421 140.096 54.5736 140.084 54.603C140.072 54.6324 140.054 54.659 140.031 54.6814C140.009 54.7038 139.982 54.7215 139.952 54.7335C139.923 54.7455 139.891 54.7515 139.86 54.7513Z" fill="white"/>
<path d="M139.86 56.6791H136.006C135.974 56.6794 135.942 56.6734 135.913 56.6614C135.883 56.6494 135.856 56.6317 135.834 56.6093C135.811 56.5869 135.793 56.5602 135.781 56.5308C135.769 56.5015 135.763 56.47 135.763 56.4381C135.763 56.4063 135.769 56.3748 135.781 56.3454C135.793 56.316 135.811 56.2894 135.834 56.267C135.856 56.2446 135.883 56.2269 135.913 56.2149C135.942 56.2029 135.974 56.1969 136.006 56.1972H139.86C139.891 56.1969 139.923 56.2029 139.952 56.2149C139.982 56.2269 140.009 56.2446 140.031 56.267C140.054 56.2894 140.072 56.316 140.084 56.3454C140.096 56.3748 140.103 56.4063 140.103 56.4381C140.103 56.47 140.096 56.5015 140.084 56.5308C140.072 56.5602 140.054 56.5869 140.031 56.6093C140.009 56.6317 139.982 56.6494 139.952 56.6614C139.923 56.6734 139.891 56.6794 139.86 56.6791Z" fill="white"/>
<path d="M139.86 58.6068H136.006C135.974 58.6071 135.942 58.6011 135.913 58.5892C135.883 58.5772 135.856 58.5595 135.834 58.5371C135.811 58.5147 135.793 58.488 135.781 58.4586C135.769 58.4292 135.762 58.3977 135.762 58.3659C135.762 58.334 135.769 58.3025 135.781 58.2731C135.793 58.2437 135.811 58.2171 135.834 58.1947C135.856 58.1723 135.883 58.1546 135.913 58.1426C135.942 58.1306 135.974 58.1246 136.006 58.1249H139.86C139.891 58.1246 139.923 58.1306 139.952 58.1426C139.982 58.1546 140.009 58.1723 140.031 58.1947C140.054 58.2171 140.072 58.2437 140.084 58.2731C140.096 58.3025 140.103 58.334 140.103 58.3659C140.103 58.3977 140.096 58.4292 140.084 58.4586C140.072 58.488 140.054 58.5147 140.031 58.5371C140.009 58.5595 139.982 58.5772 139.952 58.5892C139.923 58.6011 139.891 58.6071 139.86 58.6068Z" fill="white"/>
<path d="M59.9551 72.1872H55.3761C55.1243 72.187 54.8809 72.0959 54.6908 71.9307C54.5007 71.7654 54.3766 71.5371 54.3412 71.2876C54.0585 69.2062 54.0585 67.096 54.3412 65.0146C54.3762 64.7681 54.4978 64.5422 54.6842 64.3773C54.8707 64.2125 55.1098 64.1195 55.3586 64.1151C56.7993 63.4691 58.3508 63.4692 59.9709 64.1151C60.1218 64.1171 60.2704 64.1521 60.4063 64.2177C60.5422 64.2832 60.6621 64.3778 60.7576 64.4946C60.8572 64.6162 60.9285 64.7585 60.9662 64.9111C61.004 65.0636 61.0073 65.2227 60.9759 65.3767C60.6081 67.208 60.6081 69.0942 60.9759 70.9254C61.0073 71.0794 61.004 71.2385 60.9662 71.3911C60.9285 71.5437 60.8572 71.6859 60.7576 71.8075C60.6605 71.9265 60.538 72.0222 60.3992 72.0879C60.2604 72.1536 60.1087 72.1875 59.9551 72.1872Z" fill="#F2C808"/>
<path d="M59.4756 66.5067H55.6216C55.5898 66.507 55.5582 66.501 55.5287 66.489C55.4993 66.477 55.4725 66.4593 55.4499 66.4369C55.4273 66.4145 55.4094 66.3879 55.3971 66.3585C55.3849 66.3291 55.3786 66.2976 55.3786 66.2658C55.3786 66.2339 55.3849 66.2024 55.3971 66.1731C55.4094 66.1437 55.4273 66.117 55.4499 66.0946C55.4725 66.0722 55.4993 66.0545 55.5287 66.0425C55.5582 66.0305 55.5898 66.0245 55.6216 66.0248H59.4756C59.5074 66.0245 59.5389 66.0305 59.5684 66.0425C59.5979 66.0545 59.6247 66.0722 59.6473 66.0946C59.6699 66.117 59.6878 66.1437 59.7 66.1731C59.7123 66.2024 59.7186 66.2339 59.7186 66.2658C59.7186 66.2976 59.7123 66.3291 59.7 66.3585C59.6878 66.3879 59.6699 66.4145 59.6473 66.4369C59.6247 66.4593 59.5979 66.477 59.5684 66.489C59.5389 66.501 59.5074 66.507 59.4756 66.5067Z" fill="white"/>
<path d="M59.4756 68.4346H55.6216C55.5898 68.4349 55.5582 68.4289 55.5287 68.4169C55.4993 68.4049 55.4725 68.3872 55.4499 68.3648C55.4273 68.3424 55.4094 68.3157 55.3971 68.2863C55.3849 68.257 55.3786 68.2255 55.3786 68.1936C55.3786 68.1618 55.3849 68.1303 55.3971 68.1009C55.4094 68.0715 55.4273 68.0449 55.4499 68.0225C55.4725 68.0001 55.4993 67.9824 55.5287 67.9704C55.5582 67.9584 55.5898 67.9524 55.6216 67.9526H59.4756C59.5074 67.9524 59.5389 67.9584 59.5684 67.9704C59.5979 67.9824 59.6247 68.0001 59.6473 68.0225C59.6699 68.0449 59.6878 68.0715 59.7 68.1009C59.7123 68.1303 59.7186 68.1618 59.7186 68.1936C59.7186 68.2255 59.7123 68.257 59.7 68.2863C59.6878 68.3157 59.6699 68.3424 59.6473 68.3648C59.6247 68.3872 59.5979 68.4049 59.5684 68.4169C59.5389 68.4289 59.5074 68.4349 59.4756 68.4346Z" fill="white"/>
<path d="M59.4756 70.3623H55.6216C55.5897 70.3626 55.5582 70.3566 55.5287 70.3447C55.4992 70.3327 55.4724 70.315 55.4498 70.2926C55.4272 70.2702 55.4092 70.2435 55.397 70.2141C55.3847 70.1847 55.3784 70.1532 55.3784 70.1214C55.3784 70.0895 55.3847 70.058 55.397 70.0286C55.4092 69.9992 55.4272 69.9726 55.4498 69.9502C55.4724 69.9278 55.4992 69.9101 55.5287 69.8981C55.5582 69.8861 55.5897 69.8801 55.6216 69.8804H59.4756C59.5074 69.8801 59.539 69.8861 59.5684 69.8981C59.5979 69.9101 59.6248 69.9278 59.6474 69.9502C59.67 69.9726 59.6879 69.9992 59.7002 70.0286C59.7124 70.058 59.7187 70.0895 59.7187 70.1214C59.7187 70.1532 59.7124 70.1847 59.7002 70.2141C59.6879 70.2435 59.67 70.2702 59.6474 70.2926C59.6248 70.315 59.5979 70.3327 59.5684 70.3447C59.539 70.3566 59.5074 70.3626 59.4756 70.3623Z" fill="white"/>
<path d="M163.846 97.8575C164.068 97.7265 164.258 97.5486 164.404 97.3361C164.549 97.1237 164.646 96.882 164.688 96.6279C164.73 96.3739 164.716 96.1138 164.646 95.8659C164.577 95.618 164.454 95.3883 164.286 95.1931L167.431 89.783L164.185 89.966L161.696 95.0755C161.387 95.3792 161.2 95.7858 161.171 96.2182C161.141 96.6507 161.271 97.079 161.536 97.4219C161.801 97.7648 162.183 97.9985 162.609 98.0788C163.034 98.1591 163.475 98.0803 163.846 97.8575Z" fill="#FFB6B6"/>
<path d="M165.115 93.88L162.21 91.6158L167.49 81.3793L165.511 68.3434C165.413 67.6991 165.459 67.0411 165.644 66.4162C165.829 65.7913 166.149 65.2148 166.582 64.7276C167.014 64.2404 167.549 63.8545 168.148 63.5973C168.746 63.3401 169.394 63.2179 170.045 63.2393C171.221 63.2794 172.333 63.7845 173.137 64.6439C173.942 65.5032 174.372 66.6466 174.335 67.8232L173.846 82.6662L165.115 93.88Z" fill="#CCCCCC"/>
<path d="M24.6721 91.0831C24.8551 90.899 24.9956 90.6771 25.0836 90.4329C25.1716 90.1887 25.205 89.9282 25.1815 89.6696C25.1579 89.4111 25.078 89.1609 24.9474 88.9366C24.8167 88.7123 24.6385 88.5194 24.4253 88.3715L27.2513 74.329L24.1305 75.3314L21.8684 88.914C21.6438 89.2889 21.5644 89.7331 21.6453 90.1626C21.7261 90.5921 21.9617 90.977 22.3073 91.2444C22.6529 91.5117 23.0845 91.643 23.5203 91.6133C23.9562 91.5835 24.366 91.3949 24.6721 91.0831Z" fill="#9E616A"/>
<path d="M28.8448 61.3728L26.9085 59.9106C26.9085 59.9106 25.2004 59.7895 24.8979 62.8712C24.5954 65.9529 23.9742 71.9587 23.9742 71.9587L21.0113 85.6876L25.1128 86.5882L28.2863 71.7723L30.1901 67.3725L28.8448 61.3728Z" fill="#CCCCCC"/>
<path d="M25.6526 83.7907L36.5638 83.6088L37.4731 76.1497H25.6526V83.7907Z" fill="#9E616A"/>
<path d="M35.4726 129.692H37.9915L39.1897 119.972L35.472 119.972L35.4726 129.692Z" fill="#9E616A"/>
<path d="M19.6922 129.925L22.2111 129.907L23.3413 120.179L20.0653 120.931L19.6922 129.925Z" fill="#9E616A"/>
<path d="M27.5704 69.7261L26.9997 71.2105L27.1137 72.6952L38.2839 76.5657L37.7297 70.0687L36.474 68.584L27.5704 69.7261Z" fill="#FFB6B6"/>
<path d="M32.3625 56.3664C34.5659 56.3664 36.352 54.5794 36.352 52.3751C36.352 50.1708 34.5659 48.3839 32.3625 48.3839C30.1591 48.3839 28.373 50.1708 28.373 52.3751C28.373 54.5794 30.1591 56.3664 32.3625 56.3664Z" fill="#9E616A"/>
<path d="M34.8478 128.449L38.8297 128.211V129.918L42.6153 132.533C42.8023 132.662 42.9432 132.848 43.0173 133.063C43.0914 133.278 43.0949 133.511 43.0272 133.728C42.9596 133.945 42.8244 134.134 42.6414 134.269C42.4583 134.404 42.2371 134.477 42.0098 134.477H37.2693L36.4522 132.788L36.1331 134.477H34.3458L34.8478 128.449Z" fill="#2F2E41"/>
<path d="M18.8306 128.688L22.8106 128.422L22.8226 130.129L26.6265 132.718C26.8143 132.846 26.9565 133.03 27.0321 133.245C27.1077 133.459 27.1128 133.692 27.0467 133.91C26.9806 134.127 26.8467 134.318 26.6646 134.454C26.4825 134.59 26.2618 134.664 26.0345 134.666L21.2941 134.699L20.4652 133.016L20.158 134.707L18.3707 134.719L18.8306 128.688Z" fill="#2F2E41"/>
<path d="M18.9084 122.473L20.7426 107.806L22.9248 92.3415C21.3267 89.3724 24.9252 80.1522 24.9252 80.1522L25.4331 80.1766L36.9299 82.3464L36.9274 82.3354C39.2789 88.7517 40.058 91.9215 39.9291 98.7543L39.4659 123.317H39.6112C39.8523 123.317 40.0836 123.412 40.2541 123.583C40.4247 123.754 40.5205 123.985 40.5205 124.226C40.5205 124.467 40.4247 124.699 40.2541 124.869C40.0836 125.04 39.8523 125.136 39.6112 125.136H35.0649C34.9454 125.136 34.8269 125.113 34.7164 125.067C34.6059 125.021 34.5055 124.954 34.4209 124.87C34.3363 124.785 34.2692 124.685 34.2234 124.575C34.1776 124.464 34.1541 124.346 34.1541 124.226C34.1541 124.107 34.1776 123.988 34.2234 123.878C34.2692 123.767 34.3363 123.667 34.4209 123.582C34.5055 123.498 34.6059 123.431 34.7164 123.385C34.8269 123.34 34.9454 123.316 35.0649 123.317H35.1821L31.0091 94.0702L27.4711 106.35L23.4704 122.36C24.9252 121.996 24.6993 122.839 24.6993 123.317C24.6993 123.558 24.6035 123.789 24.433 123.96C24.2625 124.13 24.0312 124.226 23.79 124.226H19.2437C19.0323 124.226 18.8274 124.153 18.6644 124.018C18.5013 123.883 18.3904 123.696 18.3507 123.488C18.3109 123.28 18.3449 123.065 18.4467 122.88C18.5485 122.695 18.7118 122.55 18.9084 122.473Z" fill="#2F2E41"/>
<path d="M24.03 80.6298L24.3937 76.9912C24.4315 76.8428 24.5153 76.7101 24.633 76.6123C24.7508 76.5144 24.8965 76.4563 25.0493 76.4464C25.2009 74.7131 25.8384 67.2355 25.8765 66.9094L25.878 66.8956L26.1679 60.6995C26.1785 60.4745 26.2715 60.2612 26.4292 60.1004C26.587 59.9397 26.7984 59.8427 27.0231 59.828L28.5544 59.7279C28.5754 59.7271 28.5954 59.7183 28.61 59.7032C28.6246 59.6881 28.6327 59.6679 28.6327 59.6468C28.6327 59.4777 28.6661 59.3101 28.7308 59.1538C28.7955 58.9975 28.8903 58.8555 29.0099 58.7359C29.1295 58.6162 29.2715 58.5213 29.4277 58.4566C29.5839 58.3918 29.7514 58.3585 29.9205 58.3585H34.4543C34.748 58.3586 35.0315 58.466 35.2516 58.6604C35.4718 58.8548 35.6135 59.1229 35.6501 59.4144C35.6521 59.4345 35.6616 59.4531 35.6767 59.4664C35.6918 59.4798 35.7114 59.4869 35.7316 59.4865H35.7321C36.2473 59.4759 36.7492 59.6503 37.1467 59.9783C37.5443 60.3062 37.8112 60.7659 37.8989 61.2738C38.5188 64.8817 39.7609 73.0701 39.1468 77.6224C38.933 79.2071 39.3939 77.952 39.4747 79.2779C39.4828 79.4061 39.4654 79.5345 39.4238 79.656C39.3821 79.7774 39.3169 79.8894 39.2318 79.9856C39.4059 80.0489 39.548 80.1783 39.6273 80.3457C39.7065 80.5132 39.7166 80.7051 39.6552 80.88L39.7349 80.8602C39.7116 80.9529 39.6702 81.0401 39.6132 81.1167C39.5562 81.1934 39.4846 81.2581 39.4026 81.3071C39.3206 81.3561 39.2297 81.3885 39.1352 81.4023C39.0407 81.4162 38.9444 81.4113 38.8518 81.388L26.9902 82.9959C26.6007 82.8976 23.9318 81.0195 24.03 80.6298Z" fill="#CCCCCC"/>
<path d="M55.7255 65.836C55.6512 66.0847 55.5233 66.3141 55.3508 66.5081C55.1783 66.702 54.9653 66.8557 54.727 66.9584C54.4887 67.0611 54.2308 67.1102 53.9714 67.1024C53.7121 67.0946 53.4576 67.03 53.2259 66.9131L48.6403 71.0998L48.0314 67.8777L52.4822 64.4063C52.7042 64.0299 53.0566 63.7481 53.4724 63.6142C53.8883 63.4804 54.3388 63.5038 54.7386 63.68C55.1384 63.8562 55.4596 64.173 55.6415 64.5704C55.8234 64.9678 55.8533 65.4181 55.7255 65.836Z" fill="#9E616A"/>
<path d="M39.7651 62.6359C39.7651 62.6359 38.1661 59.021 36.1466 59.7395C34.1271 60.4581 35.1698 63.9656 35.1698 63.9656L42.7572 75.4035C42.7572 75.4035 53.7009 68.3803 52.3701 68.3307C51.0394 68.2811 50.6413 65.8597 50.6413 65.8597L44.8573 68.7509L44.6616 67.7217L44.348 68.0355L43.5385 67.3981L39.7651 62.6359Z" fill="#CCCCCC"/>
<path d="M170.564 58.6647C173.641 58.6647 176.134 56.1698 176.134 53.0923C176.134 50.0148 173.641 47.52 170.564 47.52C167.488 47.52 164.994 50.0148 164.994 53.0923C164.994 56.1698 167.488 58.6647 170.564 58.6647Z" fill="#FFB6B6"/>
<path d="M188.44 61.292C187.797 62.2032 186.859 62.864 185.785 63.1622C185.355 63.2902 184.911 63.3656 184.463 63.3868C184.408 62.8799 184.275 62.3845 184.07 61.9177C184.091 62.4145 184.022 62.9111 183.866 63.3833C183.194 63.3452 182.536 63.1689 181.934 62.8654C181.343 62.5679 180.829 62.1367 180.434 61.6059C180.038 61.0752 179.772 60.4596 179.656 59.8079C179.42 58.2838 180.11 56.7872 180.36 55.2653C180.611 53.7435 180.14 51.816 178.651 51.416C177.517 51.1112 177.644 51.243 176.701 51.9432C177.682 53.3937 174.06 58.7095 172.578 58.246C171.74 57.9839 171.203 57.2146 171.03 57.2146C169.865 59.2223 172.059 62.6052 169.848 63.3077L170.03 63.1255C171.365 61.4833 168.575 58.0076 169.91 56.3654C170.282 55.9059 170.678 55.3616 170.569 54.7806C170.464 54.2282 169.588 53.936 169.331 54.3898C169.793 53.3321 169.111 51.9202 167.983 51.6486C166.981 51.4068 166.999 51.7048 165.993 51.8343C165.928 51.3994 165.805 50.9752 165.628 50.5726C165.647 51.0064 165.596 51.4404 165.478 51.8583C165.123 51.8514 164.78 51.7273 164.502 51.5054C163.682 50.8441 163.848 49.4552 164.58 48.6977C165.313 47.9403 166.402 47.6675 167.441 47.491C167.743 45.3869 173.546 45.1675 174.315 47.2699C174.643 45.6999 176.607 44.8851 178.134 45.3722C179.661 45.8592 180.721 47.2859 181.279 48.7894C181.837 50.2918 181.992 51.9088 182.336 53.4742C182.68 55.0395 183.26 56.6336 184.456 57.7005C185.652 58.7662 187.601 59.1192 188.861 58.1291C189.044 58.6523 189.101 59.2113 189.028 59.7608C188.955 60.3103 188.754 60.8348 188.44 61.292Z" fill="#2F2E41"/>
<path d="M240.697 74.0081L239.917 77.9222C239.858 78.2214 239.797 78.526 239.73 78.8279C239.078 78.6927 238.402 78.7305 237.77 78.9374C238.272 79.655 238.722 80.4077 239.116 81.1897C238.624 82.7045 237.903 84.1045 236.696 85.1171C235.89 85.7783 234.927 86.2205 233.9 86.4012C232.874 86.5818 231.818 86.4947 230.834 86.1483L230.869 85.9934C229.571 83.474 230.276 80.2973 231.889 77.9703C232.712 76.8222 233.687 75.7913 234.787 74.9058C235.876 73.9974 237.054 73.1826 238.221 72.3784C238.483 72.1981 238.793 72.1 239.111 72.0968C239.429 72.0935 239.741 72.1852 240.007 72.3602C240.273 72.5351 240.48 72.7853 240.603 73.0789C240.726 73.3724 240.759 73.6959 240.697 74.0081Z" fill="#E4E4E4"/>
<path d="M231.112 95.5661C230.784 93.1741 230.446 90.7517 230.676 88.3341C230.881 86.1871 231.536 84.0901 232.869 82.3706C233.576 81.4596 234.437 80.6791 235.413 80.0641C235.667 79.9038 235.901 80.3069 235.648 80.4667C233.96 81.534 232.654 83.1101 231.919 84.9677C231.107 87.0335 230.977 89.2855 231.118 91.4797C231.203 92.8068 231.382 94.1247 231.563 95.4419C231.577 95.5014 231.569 95.5644 231.538 95.6177C231.508 95.671 231.459 95.7108 231.4 95.7288C231.34 95.7449 231.277 95.7368 231.223 95.7063C231.169 95.6758 231.13 95.6253 231.113 95.5658L231.112 95.5661Z" fill="#F2F2F2"/>
<path d="M249.682 134.918L0.317976 135C0.233802 135 0.153161 134.966 0.0937268 134.906C0.0342929 134.847 0.000915527 134.766 0.000915527 134.682C0.000915527 134.598 0.0342929 134.517 0.0937268 134.457C0.153161 134.398 0.233802 134.364 0.317976 134.364L249.682 134.282C249.766 134.282 249.847 134.315 249.906 134.375C249.966 134.435 249.999 134.516 249.999 134.6C249.999 134.684 249.966 134.765 249.906 134.824C249.847 134.884 249.766 134.918 249.682 134.918Z" fill="#CACACA"/>
<path d="M27.667 49.9313C27.0551 50.2251 26.3702 49.7831 25.842 49.3452L26.0309 49.5084C25.0973 50.4172 24.6608 51.7246 24.4475 53.0116C24.234 54.2973 24.2102 55.6121 23.9414 56.8887C23.6724 58.1639 23.1143 59.4451 22.0719 60.2261C20.6755 61.2722 18.7495 61.2051 17.0358 60.8844C17.013 60.8798 16.9917 60.8762 16.9689 60.8716C17.43 59.5397 17.6174 58.1283 17.52 56.7222C17.0606 58.1313 16.2786 59.4136 15.2363 60.4669C14.1001 60.1541 12.991 59.7498 11.92 59.258C11.2271 58.9389 10.4809 58.5026 10.2886 57.7638C10.0957 57.0306 10.5435 56.2615 11.1422 55.7985C11.7409 55.3356 12.4757 55.094 13.1578 54.7642C13.8387 54.4359 14.5125 53.9679 14.7852 53.2613C15.414 51.6358 13.6226 49.7706 14.3208 48.1728C14.665 47.387 15.5083 46.9596 16.3009 46.6301C17.5109 46.1285 18.7533 45.7092 20.0198 45.3752C21.1316 45.0818 22.2925 44.8538 23.4251 45.0461C24.5577 45.2385 25.6673 45.9276 26.075 47.0037C26.7551 47.2337 27.4772 47.4929 27.9137 48.0656C28.35 48.637 28.3148 49.6207 27.667 49.9313Z" fill="#2F2E41"/>
<path d="M33.1113 48.0478C31.3609 46.6653 29.9456 46.9013 28.8538 47.7602C28.6703 47.5559 27.8892 48.1179 27.6247 48.0371L26.6682 49.8337C26.1759 50.7026 25.974 51.5897 26.0536 52.0889C25.1481 54.6291 27.2953 56.3445 29.8344 57.2503C30.8476 57.6142 31.9531 57.6302 32.9764 57.2958L33.0076 56.8629L33.1999 57.2177C33.1999 57.2177 35.5211 61.9993 36.0697 62.2141C35.7368 61.3503 34.859 57.2451 34.614 56.3894C34.278 55.2251 34.5075 53.3753 34.7049 52.2412C34.828 51.5421 34.8345 50.8273 34.724 50.126L34.7191 50.0954L35.2622 51.1922L36.4808 50.4256C36.0151 49.0685 36.0058 47.4451 33.1113 48.0478Z" fill="#2F2E41"/>
<path d="M82.6774 33.9182V30.685C82.6778 30.0699 82.5572 29.4608 82.3223 28.8924C82.0875 28.324 81.743 27.8075 81.3086 27.3724C80.8742 26.9373 80.3585 26.5922 79.7907 26.3567C79.223 26.1212 78.6145 26 78 26C77.3855 26 76.777 26.1212 76.2093 26.3567C75.6415 26.5922 75.1258 26.9373 74.6914 27.3724C74.257 27.8075 73.9125 28.324 73.6777 28.8924C73.4428 29.4608 73.3222 30.0699 73.3226 30.685V33.9182C72.6974 33.9464 72.1071 34.2147 71.6745 34.6674C71.2419 35.1201 71.0003 35.7223 71 36.3487V43.989H85V36.3487C84.9997 35.7223 84.7581 35.1201 84.3255 34.6674C83.8929 34.2147 83.3026 33.9464 82.6774 33.9182ZM78 27.6517C78.8034 27.6527 79.5737 27.9726 80.1418 28.5412C80.7099 29.1099 81.0295 29.8808 81.0303 30.685V33.9125H74.9697V30.685C74.9706 29.8808 75.2901 29.1099 75.8582 28.5412C76.4263 27.9726 77.1966 27.6527 78 27.6517Z" fill="white"/>
<path d="M79.1752 37.7683C79.1752 37.5511 79.1192 37.3376 79.0125 37.1485C78.9058 36.9594 78.7521 36.8011 78.5662 36.689C78.3804 36.5769 78.1688 36.5149 77.9519 36.5088C77.735 36.5027 77.5202 36.5529 77.3284 36.6544C77.1366 36.756 76.9743 36.9054 76.8572 37.0883C76.7401 37.2711 76.6723 37.4812 76.6603 37.698C76.6482 37.9148 76.6924 38.1311 76.7885 38.3258C76.8846 38.5205 77.0294 38.687 77.2088 38.8092V41.547H78.6245V38.8092C78.7942 38.6939 78.9331 38.5387 79.029 38.3572C79.125 38.1758 79.1752 37.9736 79.1752 37.7683Z" fill="#F2C808"/>
<path fill-rule="evenodd" clip-rule="evenodd" d="M208 73.8293C208.324 73.8293 208.586 74.0912 208.586 74.4145C208.586 74.7376 208.324 74.9996 208 74.9996C207.677 74.9996 207.415 74.7376 207.415 74.4145C207.415 74.0912 207.677 73.8293 208 73.8293Z" fill="#A97D34"/>
<path fill-rule="evenodd" clip-rule="evenodd" d="M204 75V71H207.219V71.9429H205.098V72.5486H207.219V73.4227H205.098V74.057H207.219V75H204Z" fill="#14477A"/>
<path fill-rule="evenodd" clip-rule="evenodd" d="M208.581 73.4227L207.483 72.325V71H208.215L210.165 73.1144V72.325L211.263 73.4227V75H210.687L208.581 72.8057V73.4227Z" fill="#25B3B5"/>
<path fill-rule="evenodd" clip-rule="evenodd" d="M211.86 71.9714H210.165V71H214.17V71.9714H212.969V74.2246C212.969 74.6573 212.465 75 211.86 75V71.9714Z" fill="#14477A"/>
</g>
<defs>
<clipPath id="clip0_125_153">
<rect width="250" height="135" fill="white"/>
</clipPath>
</defs>
</svg>
