<svg width="175" height="165" viewBox="0 0 175 165" fill="none" xmlns="http://www.w3.org/2000/svg">
<g clip-path="url(#clip0_119_34)">
<path d="M150.075 61.7491C140.967 26.498 109.495 1.05169 72.5543 0.0310634C53.0247 -0.508517 32.4742 5.8665 17.5119 28.175C-9.23486 68.0538 19.1555 95.6113 38.9486 108.706C48.511 115.045 57.1273 122.667 64.5479 131.352C77.9174 146.967 103.637 166.371 134.269 135.968C156.47 113.932 156.142 85.2297 150.075 61.7491Z" fill="#F2F2F2"/>
<path d="M174.797 140.251C174.797 148.904 136.433 165 88.1083 165C39.7834 165 0 149.902 0 141.249C0 132.597 39.7834 133.665 88.1083 133.665C136.433 133.665 174.797 131.599 174.797 140.251Z" fill="#3F3D56"/>
<path opacity="0.1" d="M174.797 140.251C174.797 148.904 136.433 165 88.1083 165C39.7834 165 0 149.902 0 141.249C0 132.597 39.7834 133.665 88.1083 133.665C136.433 133.665 174.797 131.599 174.797 140.251Z" fill="black"/>
<path d="M87.5 156.817C135.825 156.817 175 149.803 175 141.15C175 132.497 135.825 125.482 87.5 125.482C39.1751 125.482 0 132.497 0 141.15C0 149.803 39.1751 156.817 87.5 156.817Z" fill="#3F3D56"/>
<path d="M120.626 87.865V129.767L127.747 141.189L128.289 142.058H156.387L156.955 87.865H120.626Z" fill="#2F2E41"/>
<path opacity="0.1" d="M120.626 87.865V129.767L127.747 141.189L128.184 87.865H120.626Z" fill="black"/>
<path d="M52.7936 86.7476V128.649L45.6726 140.072L45.1305 140.941H17.0324L16.4648 86.7476H52.7936Z" fill="#2F2E41"/>
<path opacity="0.1" d="M52.7936 86.7476V128.649L45.6726 140.072L45.2354 86.7476H52.7936Z" fill="black"/>
<path d="M165.469 85.9095V88.4237H12.7752V84.7922L26.966 77.5293H152.981L165.469 85.9095Z" fill="#2F2E41"/>
<path opacity="0.1" d="M165.469 85.9095V88.4237H12.7752V84.7922L165.469 85.9095Z" fill="black"/>
<path opacity="0.1" d="M34.6291 98.4802H27.8175L24.9794 96.5247H37.7511L34.6291 98.4802Z" fill="black"/>
<path opacity="0.1" d="M34.6291 106.581H27.8175L24.9794 104.626H37.7511L34.6291 106.581Z" fill="black"/>
<path opacity="0.1" d="M34.6291 118.034H27.8175L24.9794 116.079H37.7511L34.6291 118.034Z" fill="black"/>
<path opacity="0.1" d="M34.6291 129.487H27.8175L24.9794 127.532H37.7511L34.6291 129.487Z" fill="black"/>
<path opacity="0.1" d="M138.79 99.5974H145.602L148.44 97.6421H135.668L138.79 99.5974Z" fill="black"/>
<path opacity="0.1" d="M138.79 107.698H145.602L148.44 105.743H135.668L138.79 107.698Z" fill="black"/>
<path opacity="0.1" d="M138.79 119.152H145.602L148.44 117.196H135.668L138.79 119.152Z" fill="black"/>
<path opacity="0.1" d="M138.79 130.605H145.602L148.44 128.649H135.668L138.79 130.605Z" fill="black"/>
<path d="M107.984 70.5388L107.037 76.4879C107.037 76.4879 102.377 78.9249 105.654 78.9966C108.931 79.0683 124.369 78.9966 124.369 78.9966C124.369 78.9966 127.355 78.9966 122.622 76.4163L121.675 70.1804L107.984 70.5388Z" fill="#3F3D56"/>
<path opacity="0.1" d="M104.994 78.9321C105.631 78.4256 106.315 77.9799 107.037 77.6011L107.984 71.652L121.675 71.6647L122.622 77.5294C123.4 77.9246 124.133 78.3995 124.809 78.9463C125.417 78.8097 126.082 78.3024 122.622 76.4163L121.675 70.1804L107.984 70.5388L107.037 76.4879C107.037 76.4879 103.121 78.536 104.994 78.9321Z" fill="black"/>
<path d="M143.429 29.074H86.0844C84.8867 29.074 83.9157 30.0296 83.9157 31.2085V69.2285C83.9157 70.4074 84.8867 71.3631 86.0844 71.3631H143.429C144.627 71.3631 145.598 70.4074 145.598 69.2285V31.2085C145.598 30.0296 144.627 29.074 143.429 29.074Z" fill="#3F3D56"/>
<path d="M143.522 31.3318H85.9912V63.0128H143.522V31.3318Z" fill="#F2F2F2"/>
<path d="M114.757 30.6866C114.958 30.6866 115.121 30.5262 115.121 30.3282C115.121 30.1303 114.958 29.9698 114.757 29.9698C114.556 29.9698 114.393 30.1303 114.393 30.3282C114.393 30.5262 114.556 30.6866 114.757 30.6866Z" fill="#F2F2F2"/>
<path d="M145.598 65.5214V69.2285C145.598 69.5088 145.542 69.7864 145.433 70.0453C145.324 70.3043 145.164 70.5397 144.963 70.7379C144.761 70.9361 144.522 71.0933 144.259 71.2006C143.996 71.3078 143.714 71.363 143.429 71.363H86.0844C85.7996 71.363 85.5176 71.3078 85.2544 71.2006C84.9913 71.0933 84.7522 70.9361 84.5508 70.7379C84.3494 70.5397 84.1897 70.3043 84.0807 70.0453C83.9717 69.7864 83.9157 69.5088 83.9157 69.2285V65.5214H145.598Z" fill="#3F3D56"/>
<path d="M114.757 69.822C115.521 69.822 116.14 69.2122 116.14 68.4601C116.14 67.708 115.521 67.0983 114.757 67.0983C113.993 67.0983 113.373 67.708 113.373 68.4601C113.373 69.2122 113.993 69.822 114.757 69.822Z" fill="#F2F2F2"/>
<path d="M112.6 82.867V83.5839H73.4211V83.0105L73.4751 82.867L74.4407 80.2867H111.799L112.6 82.867Z" fill="#3F3D56"/>
<path d="M127.678 82.1654C127.607 82.4657 127.337 82.7825 126.728 83.0821C124.544 84.1573 120.101 82.7954 120.101 82.7954C120.101 82.7954 116.679 82.222 116.679 80.7168C116.775 80.652 116.875 80.5934 116.979 80.5412C117.897 80.0629 120.943 78.8827 126.343 80.5912C126.741 80.7141 127.096 80.9433 127.369 81.2532C127.49 81.3704 127.581 81.5142 127.635 81.6728C127.689 81.8313 127.703 82.0001 127.678 82.1654Z" fill="#3F3D56"/>
<path opacity="0.1" d="M127.678 82.1654C125.004 83.1739 122.62 83.2491 120.174 81.5769C118.941 80.734 117.82 80.5254 116.979 80.5412C117.897 80.0629 120.943 78.8827 126.343 80.5912C126.741 80.7141 127.096 80.9433 127.369 81.2532C127.49 81.3704 127.581 81.5142 127.635 81.6728C127.689 81.8313 127.703 82.0002 127.678 82.1654Z" fill="black"/>
<path d="M124.325 81.577C124.848 81.577 125.272 81.4486 125.272 81.2902C125.272 81.1319 124.848 81.0035 124.325 81.0035C123.802 81.0035 123.378 81.1319 123.378 81.2902C123.378 81.4486 123.802 81.577 124.325 81.577Z" fill="#F2F2F2"/>
<path opacity="0.1" d="M112.6 82.8671V83.584H73.4211V83.0106L73.4751 82.8671H112.6Z" fill="black"/>
<path d="M80.0253 38.7478C84.3086 38.7478 87.781 35.3302 87.781 31.1143C87.781 26.8985 84.3086 23.4808 80.0253 23.4808C75.7419 23.4808 72.2696 26.8985 72.2696 31.1143C72.2696 35.3302 75.7419 38.7478 80.0253 38.7478Z" fill="#FFB9B9"/>
<path d="M74.3106 34.931V46.9839H86.9646C86.9646 46.9839 85.3318 36.9398 86.1482 33.9266L74.3106 34.931Z" fill="#FFB9B9"/>
<path d="M99.4146 51.2024C99.4146 51.2024 87.3728 45.3768 87.3728 44.9751C87.3728 44.5733 86.1482 41.9618 85.3318 41.9618C84.5154 41.9618 77.5761 39.7521 73.6983 42.9662L73.2901 45.5777L58.391 55.22L62.4729 69.8843C62.4729 69.8843 65.1262 72.6966 64.3098 74.7054C63.4934 76.7142 64.9221 86.9592 64.9221 86.9592L96.9654 85.9548V72.2949C96.9654 72.2949 97.9859 69.0808 98.5982 68.0764C99.2105 67.0719 98.5982 64.0587 98.5982 64.0587L103.497 58.0323C103.497 58.0323 102.884 52.4076 99.4146 51.2024Z" fill="#D0CDE1"/>
<path opacity="0.1" d="M58.9012 60.1415L59.8197 55.22C59.8197 55.22 54.5131 77.9195 55.1254 80.531C55.7377 83.1424 60.2279 87.16 60.8401 87.3609C61.4524 87.5618 67.1672 70.0852 67.1672 70.0852L58.9012 60.1415Z" fill="black"/>
<path d="M61.8606 54.6173L58.391 55.22C58.391 55.22 53.0844 77.9195 53.6967 80.5309C54.309 83.1424 58.7992 87.16 59.4115 87.3609C60.0238 87.5618 65.7385 70.0851 65.7385 70.0851L61.8606 54.6173Z" fill="#D0CDE1"/>
<path opacity="0.1" d="M100.537 61.3469L102.272 58.0323C102.272 58.0323 104.721 80.7319 103.088 82.9416C101.456 85.1513 94.9968 85.9781 94.9968 85.9781L94.9244 69.4826L100.537 61.3469Z" fill="black"/>
<path d="M100.843 55.4208L103.496 58.0322C103.496 58.0322 105.946 80.7318 104.313 82.9415C102.68 85.1512 96.2213 85.978 96.2213 85.978L96.149 69.4825L100.843 55.4208Z" fill="#D0CDE1"/>
<path d="M61.2483 89.9723C61.2483 89.9723 55.3295 87.7626 54.309 91.9811C53.2885 96.1996 56.7582 115.082 56.7582 115.082C56.7582 115.082 59.0033 129.345 60.4319 129.747C61.8606 130.149 68.1876 130.349 69.2081 128.541C70.2286 126.734 66.1467 108.252 66.1467 108.252L89.822 107.851C89.822 107.851 88.3933 123.921 87.5769 125.327C86.7605 126.734 86.7605 131.555 87.5769 131.555C88.3933 131.555 97.3736 131.153 97.9858 129.948C98.5981 128.742 102.068 101.623 102.068 101.623C102.068 101.623 104.925 92.182 101.66 92.7847C98.394 93.3873 61.2483 89.9723 61.2483 89.9723Z" fill="#3F3D56"/>
<path d="M96.149 129.144C96.149 129.144 98.19 127.738 99.2105 129.144C100.231 130.55 100.639 132.157 96.149 134.568C91.6589 136.978 88.1892 136.376 88.1892 135.974V130.149L96.149 129.144Z" fill="#2F2E41"/>
<path d="M60.8401 128.541C60.8401 128.541 58.7992 127.135 57.7787 128.541C56.7582 129.948 56.35 131.555 60.8401 133.965C65.3303 136.376 68.7999 135.773 68.7999 135.371V129.546L60.8401 128.541Z" fill="#2F2E41"/>
<path d="M80.0756 21.4892C79.3031 21.4628 78.5319 21.571 77.7977 21.8088C77.2283 22.0341 76.6844 22.3173 76.1748 22.6539L72.7508 24.7496C72.4601 24.8734 72.2132 25.0792 72.0412 25.3409C71.8692 25.6027 71.7798 25.9088 71.7843 26.2205L71.3564 29.3743C71.2485 30.1702 71.1489 31.0213 71.5109 31.7409C71.8131 32.3416 72.3893 32.7526 72.863 33.2339C73.6212 34.0075 74.1315 34.9834 74.3305 36.0403C74.5754 37.357 74.4186 38.9427 75.4773 39.7831C76.0506 40.2381 76.832 40.3241 77.5671 40.3664C79.5775 40.482 81.5945 40.4055 83.5899 40.1383C83.9071 40.1149 84.2165 40.0296 84.4998 39.8873C84.8598 39.6778 85.0864 39.3079 85.2982 38.953C86.0628 37.6717 86.8509 36.3087 86.8426 34.8228C86.8385 34.0877 86.6474 33.2982 87.006 32.6533C87.1955 32.3792 87.4012 32.1163 87.6219 31.866C88.066 31.2519 88.1524 30.4629 88.2247 29.7125C88.4559 27.3157 88.2143 25.4918 86.4195 23.8035C84.7442 22.2275 82.3604 21.5037 80.0756 21.4892Z" fill="#2F2E41"/>
<path d="M61.0243 113.704L54.2127 147.785H57.6184L64.1463 114.263L61.0243 113.704Z" fill="#2F2E41"/>
<path d="M82.8782 116.498L87.1356 155.606H89.9737L87.4193 115.38L82.8782 116.498Z" fill="#2F2E41"/>
<path d="M94.5148 115.38L100.475 141.36H103.313L97.6368 114.822L94.5148 115.38Z" fill="#2F2E41"/>
<path d="M71.8094 115.38L70.9579 136.052H73.2285L74.9314 115.38H71.8094Z" fill="#2F2E41"/>
<path d="M56.1994 110.073C56.1994 110.073 51.6583 80.183 64.4301 79.345C77.2019 78.507 95.3662 79.345 95.3662 79.345C95.3662 79.345 105.868 78.507 102.746 110.073C102.746 110.073 105.584 119.291 80.0401 118.453C54.4965 117.615 56.1994 110.073 56.1994 110.073Z" fill="#F2C808"/>
<path d="M172.567 122.279C172.567 127.491 169.418 129.311 165.535 129.311C161.651 129.311 158.503 127.491 158.503 122.279C158.503 117.067 165.535 110.436 165.535 110.436C165.535 110.436 172.567 117.067 172.567 122.279Z" fill="#F2C808"/>
<path d="M165.351 124.152L168.348 118.755L165.362 123.467L165.394 121.506L167.46 117.601L165.403 120.987L165.461 117.459L167.673 114.351L165.47 116.904L165.507 110.436L165.288 118.632L163.048 115.258L165.261 119.324L165.051 123.264L165.045 123.159L162.453 119.594L165.037 123.529L165.011 124.021L165.006 124.029L165.009 124.069L164.477 129.327H165.187L165.272 128.902L167.851 124.977L165.279 128.514L165.351 124.152Z" fill="#3F3D56"/>
<path d="M170.026 140.618H161.643L159.476 128.565H171.721L170.026 140.618Z" fill="#2F2E41"/>
<path d="M46.8424 59.1372H29.4033V79.2609H46.8424V59.1372Z" fill="#3F3D56"/>
<path d="M44.1363 62.2599H32.1093V76.1383H44.1363V62.2599Z" fill="#F2F2F2"/>
<path fill-rule="evenodd" clip-rule="evenodd" d="M37.1468 68.2257C37.4011 68.2257 37.6074 68.4317 37.6074 68.686C37.6074 68.9402 37.4011 69.1463 37.1468 69.1463C36.8924 69.1463 36.6861 68.9402 36.6861 68.686C36.6861 68.4317 36.8924 68.2257 37.1468 68.2257Z" fill="#A97D34"/>
<path fill-rule="evenodd" clip-rule="evenodd" d="M34 69.1465V66H36.5325V66.7417H34.8637V67.2182H36.5325V67.9058H34.8637V68.4048H36.5325V69.1465H34Z" fill="#14477A"/>
<path fill-rule="evenodd" clip-rule="evenodd" d="M37.6034 67.9058L36.7397 67.0423V66H37.316L38.8493 67.6632V67.0423L39.713 67.9058V69.1465H39.2605L37.6034 67.4204V67.9058Z" fill="#25B3B5"/>
<path fill-rule="evenodd" clip-rule="evenodd" d="M40.1827 66.7641H38.8493V66H42V66.7641H41.0554V68.5366C41.0554 68.877 40.6588 69.1465 40.1827 69.1465V66.7641Z" fill="#14477A"/>
<path d="M118.088 45.1623V42.6461C118.088 42.1674 117.994 41.6934 117.812 41.251C117.629 40.8087 117.361 40.4067 117.023 40.0681C116.685 39.7295 116.283 39.4609 115.841 39.2776C115.4 39.0943 114.926 39 114.448 39C113.97 39 113.496 39.0943 113.054 39.2776C112.612 39.4609 112.211 39.7295 111.873 40.0681C111.535 40.4067 111.267 40.8087 111.084 41.251C110.901 41.6934 110.807 42.1674 110.808 42.6461V45.1623C110.321 45.1843 109.862 45.3931 109.525 45.7454C109.188 46.0977 109 46.5664 109 47.0539V53H119.896V47.0539C119.895 46.5664 119.707 46.0977 119.371 45.7454C119.034 45.3931 118.575 45.1843 118.088 45.1623ZM114.448 40.2855C115.073 40.2862 115.672 40.5352 116.115 40.9777C116.557 41.4203 116.805 42.0203 116.806 42.6461V45.158H112.089V42.6461C112.09 42.0203 112.339 41.4203 112.781 40.9777C113.223 40.5352 113.822 40.2862 114.448 40.2855Z" fill="#1751A5"/>
<path d="M115.362 48.1587C115.362 47.9897 115.319 47.8235 115.236 47.6763C115.153 47.5292 115.033 47.406 114.888 47.3188C114.744 47.2315 114.579 47.1832 114.41 47.1785C114.241 47.1738 114.074 47.2128 113.925 47.2918C113.776 47.3708 113.649 47.4872 113.558 47.6295C113.467 47.7718 113.414 47.9352 113.405 48.104C113.396 48.2727 113.43 48.4411 113.505 48.5926C113.58 48.7441 113.692 48.8737 113.832 48.9688V51.0995H114.934V48.9688C115.066 48.879 115.174 48.7582 115.249 48.617C115.323 48.4758 115.362 48.3185 115.362 48.1587Z" fill="#F2C808"/>
</g>
<defs>
<clipPath id="clip0_119_34">
<rect width="175" height="165" fill="white"/>
</clipPath>
</defs>
</svg>
